<svg width="1440" height="800" viewBox="0 0 1440 800" fill="none" xmlns="http://www.w3.org/2000/svg">
<g opacity="0.3" clip-path="url(#clip0_323_3583)" filter="url(#filter0_f_323_3583)">
<path d="M1440 -320H0V1120H1440V-320Z" fill="#0A5B83"/>
<path d="M1059.7 -634.693L2774.79 -424.129L1734.85 955.913L1059.7 -634.693Z" fill="#9747FF"/>
<path d="M-181.328 453.942C-207.856 303.498 -173.533 148.678 -85.9108 23.5405C1.71143 -101.597 135.456 -186.801 285.899 -213.329C436.343 -239.856 591.163 -205.533 716.301 -117.911C841.438 -30.2888 926.643 103.455 953.17 253.899C979.697 404.343 945.375 559.163 857.752 684.301C770.13 809.438 636.386 894.642 485.942 921.17C335.498 947.697 180.678 913.374 55.5408 825.752C-69.5967 738.13 -154.801 604.386 -181.328 453.942Z" fill="#0A0A0A"/>
<path d="M376.021 381.294C393.204 306.869 439.247 242.319 504.023 201.842C568.799 161.366 647.001 148.279 721.426 165.461C795.851 182.644 860.401 228.687 900.878 293.463C941.354 358.239 954.441 436.441 937.259 510.866C920.076 585.29 874.033 649.841 809.257 690.318C744.481 730.794 666.279 743.881 591.854 726.698C517.429 709.516 452.879 663.473 412.402 598.697C371.926 533.921 358.839 455.719 376.021 381.294Z" fill="#FFAEEE"/>
</g>
<defs>
<filter id="filter0_f_323_3583" x="-400" y="-720" width="2240" height="2240" filterUnits="userSpaceOnUse" color-interpolation-filters="sRGB">
<feFlood flood-opacity="0" result="BackgroundImageFix"/>
<feBlend mode="normal" in="SourceGraphic" in2="BackgroundImageFix" result="shape"/>
<feGaussianBlur stdDeviation="200" result="effect1_foregroundBlur_323_3583"/>
</filter>
<clipPath id="clip0_323_3583">
<rect width="1440" height="1440" fill="white" transform="translate(0 -320)"/>
</clipPath>
</defs>
</svg>
