<svg width="428" height="535" viewBox="0 0 428 535" fill="none" xmlns="http://www.w3.org/2000/svg">
<path d="M472.945 -49.2472L416.664 48.2334L312.422 76.1649L285.044 60.3581L285.031 60.3504L215.942 20.4622C201.816 12.3062 197.231 -3.42479 205.05 -16.9682L261.331 -114.449L365.574 -142.38L392.952 -126.573L392.965 -126.566L462.054 -86.6776C476.18 -78.5216 480.765 -62.7906 472.945 -49.2472Z" fill="#0A0A0A" stroke="#FFAEEE" stroke-miterlimit="10"/>
<path d="M474.293 -47.9244L418.28 49.0924L314.539 76.8895L287.286 61.1554L287.273 61.1477L218.516 21.4507C204.456 13.333 199.891 -2.32491 207.672 -15.802L263.685 -112.819L367.426 -140.616L394.678 -124.882L394.692 -124.874L463.449 -85.1771C477.509 -77.0594 482.074 -61.4015 474.293 -47.9244Z" fill="#0A0A0A" stroke="#FFAEEE" stroke-miterlimit="10"/>
<path d="M478.709 -44.2428L422.963 52.3101L319.714 79.9757L292.594 64.3179L292.58 64.3103L224.148 24.8008C210.154 16.7214 205.615 1.1406 213.358 -12.2703L269.104 -108.823L372.353 -136.489L399.473 -120.831L399.486 -120.824L467.919 -81.3139C481.913 -73.2345 486.451 -57.6537 478.709 -44.2428Z" fill="#0A0A0A" stroke="#FFAEEE" stroke-miterlimit="10"/>
<path d="M486.527 -38.3966L431.049 57.6925L328.301 85.2237L301.314 69.6426L301.301 69.6349L233.2 30.3167C219.272 22.2755 214.753 6.76784 222.457 -6.57676L277.935 -102.666L380.683 -130.197L407.67 -114.616L407.683 -114.608L475.784 -75.2901C489.712 -67.2489 494.231 -51.7412 486.527 -38.3966Z" fill="#0A0A0A" stroke="#FFAEEE" stroke-miterlimit="10"/>
<path d="M496.566 -30.5842L441.357 65.0411L339.1 92.4405L312.238 76.932L312.225 76.9244L244.455 37.7974C230.594 29.7945 226.101 14.3639 233.771 1.07893L288.981 -94.5464L391.238 -121.946L418.099 -106.438L418.112 -106.43L485.882 -67.3029C499.743 -59.3 504.237 -43.8692 496.566 -30.5842Z" fill="#0A0A0A" stroke="#FFAEEE" stroke-miterlimit="10"/>
<path d="M509.251 -21.0239L454.309 74.1377L352.543 101.406L325.814 85.9736L325.801 85.966L258.356 47.0264C244.561 39.0618 240.087 23.7043 247.719 10.4856L302.661 -84.676L404.427 -111.944L431.156 -96.5119L431.169 -96.5043L498.614 -57.5647C512.409 -49.6001 516.883 -34.2426 509.251 -21.0239Z" fill="#0A0A0A" stroke="#FFAEEE" stroke-miterlimit="10"/>
<path d="M523.578 -9.89438L468.903 84.8034L367.64 111.937L341.043 96.5815L341.03 96.5738L273.916 57.8256C260.187 49.8992 255.74 34.6187 263.334 21.4662L318.008 -73.2315L419.272 -100.365L445.868 -85.0096L445.882 -85.002L512.995 -46.2537C526.724 -38.3273 531.171 -23.0468 523.578 -9.89438Z" fill="#0A0A0A" stroke="#FFAEEE" stroke-miterlimit="10"/>
<path d="M539.419 2.58595L485.013 96.8198L384.24 123.822L357.77 108.539L357.756 108.531L290.967 69.9705C277.311 62.0862 272.877 46.875 280.433 33.7888L334.839 -60.4451L435.611 -87.447L462.082 -72.1641L462.095 -72.1565L528.884 -33.5957C542.54 -25.7114 546.974 -10.5003 539.419 2.58595Z" fill="#0A0A0A" stroke="#FFAEEE" stroke-miterlimit="10"/>
<path d="M556.81 16.235L502.672 110.005L402.401 136.873L376.063 121.666L376.05 121.659L309.592 83.2892C296.002 75.4431 291.594 60.3088 299.111 47.2889L353.25 -46.4812L453.521 -73.3488L479.859 -58.1425L479.872 -58.1348L546.33 -19.7653C559.919 -11.9193 564.328 3.21504 556.81 16.235Z" fill="#0A0A0A" stroke="#FFAEEE" stroke-miterlimit="10"/>
<path d="M574.83 30.8423L520.959 124.149L421.179 150.885L394.974 135.755L394.96 135.747L328.834 97.5688C315.31 89.761 310.922 74.6998 318.405 61.7395L372.276 -31.5668L472.055 -58.3026L498.261 -43.1729L498.274 -43.1652L564.401 -4.98685C577.924 2.82096 582.312 17.8819 574.83 30.8423Z" fill="#0A0A0A" stroke="#FFAEEE" stroke-miterlimit="10"/>
<path d="M593.291 46.2158L539.688 139.058L440.41 165.66L414.331 150.603L414.317 150.595L348.515 112.604C335.058 104.835 330.696 89.8505 338.141 76.9564L391.744 -15.886L491.022 -42.4874L517.101 -27.4304L517.115 -27.4227L582.916 10.5682C596.374 18.3377 600.736 33.3218 593.291 46.2158Z" fill="#0A0A0A" stroke="#FFAEEE" stroke-miterlimit="10"/>
<path d="M612.006 62.1532L558.67 154.532L459.884 181.002L433.937 166.021L433.924 166.014L368.453 128.214C355.062 120.483 350.719 105.572 358.126 92.7439L411.461 0.365251L510.248 -26.1046L536.195 -11.1239L536.208 -11.1163L601.679 26.6833C615.07 34.4146 619.412 49.3254 612.006 62.1532Z" fill="#0A0A0A" stroke="#FFAEEE" stroke-miterlimit="10"/>
<path d="M629.899 78.4586L576.832 170.373L478.546 196.709L452.732 181.805L452.719 181.797L387.573 144.185C374.248 136.492 369.932 121.658 377.3 108.897L430.368 16.9816L528.663 -9.35658L554.477 5.54747L554.491 5.55513L619.637 43.1674C632.961 50.8604 637.278 65.6943 629.91 78.4559L629.899 78.4586Z" fill="#0A0A0A" stroke="#FFAEEE" stroke-miterlimit="10"/>
<path d="M647.838 94.9225L595.035 186.38L497.24 212.584L471.552 197.752L471.539 197.745L406.724 160.324C393.466 152.669 389.165 137.915 396.502 125.207L449.302 33.7555L547.096 7.55164L572.785 22.383L572.798 22.3907L637.613 59.8116C650.871 67.4664 655.172 82.2207 647.834 94.9292L647.838 94.9225Z" fill="#0A0A0A" stroke="#FFAEEE" stroke-miterlimit="10"/>
<path d="M664.468 111.346L611.932 202.34L514.629 228.412L489.073 213.657L489.06 213.65L424.577 176.42C411.391 168.807 407.11 154.126 414.409 141.484L466.945 50.4902L564.248 24.4181L589.804 39.1729L589.817 39.1806L654.3 76.4103C667.486 84.023 671.767 98.704 664.468 111.346Z" fill="#0A0A0A" stroke="#FFAEEE" stroke-miterlimit="10"/>
<path d="M679.424 127.536L627.156 218.066L530.354 244.004L504.931 229.326L504.924 229.322L440.766 192.28C427.646 184.705 423.385 170.097 430.646 157.521L482.914 66.9914L579.715 41.0537L605.139 55.7321L605.145 55.7358L669.304 92.778C682.423 100.352 686.684 114.96 679.424 127.536Z" fill="#0A0A0A" stroke="#FFAEEE" stroke-miterlimit="10"/>
<path d="M673.515 232.579L623.925 318.471L532.078 343.081L507.953 329.152L507.947 329.149L447.075 294.004C434.624 286.816 430.586 272.955 437.472 261.028L487.062 175.136L578.909 150.526L603.034 164.455L603.04 164.458L663.912 199.603C676.363 206.791 680.401 220.652 673.515 232.579Z" fill="#0A0A0A" stroke="#FFAEEE" stroke-miterlimit="10"/>
<path d="M649.005 233.013L599.683 318.441L508.338 342.917L484.345 329.065L484.339 329.061L423.798 294.108C411.414 286.958 407.401 273.174 414.253 261.307L463.575 175.879L554.921 151.403L578.913 165.255L578.92 165.259L639.46 200.212C651.844 207.362 655.857 221.146 649.005 233.013Z" fill="#0A0A0A" stroke="#FFAEEE" stroke-miterlimit="10"/>
<path d="M618.373 230.806L569.319 315.77L478.464 340.114L454.598 326.335L454.591 326.331L394.375 291.565C382.058 284.454 378.065 270.743 384.878 258.942L433.932 173.978L524.787 149.633L548.653 163.413L548.66 163.417L608.876 198.183C621.194 205.294 625.187 219.005 618.373 230.806Z" fill="#0A0A0A" stroke="#FFAEEE" stroke-miterlimit="10"/>
<path d="M582.045 225.765L533.258 310.266L442.906 334.476L419.172 320.773L419.165 320.769L359.28 286.194C347.035 279.125 343.062 265.487 349.837 253.753L398.624 169.252L488.987 145.04L512.721 158.742L512.728 158.746L572.612 193.321C584.857 200.39 588.831 214.028 582.056 225.763L582.045 225.765Z" fill="#0A0A0A" stroke="#FFAEEE" stroke-miterlimit="10"/>
<path d="M539.168 217.697L490.649 301.733L400.787 325.812L377.186 312.185L377.179 312.182L317.619 277.794C305.441 270.763 301.487 257.199 308.224 245.53L356.743 161.494L446.604 137.416L470.205 151.042L470.212 151.046L529.772 185.433C541.951 192.464 545.904 206.029 539.168 217.697Z" fill="#0A0A0A" stroke="#FFAEEE" stroke-miterlimit="10"/>
<path d="M488.837 206.406L440.586 289.978L351.216 313.925L327.74 300.371L327.734 300.367L268.505 266.172C256.393 259.179 252.465 245.691 259.167 234.083L307.419 150.51L396.789 126.563L420.264 140.117L420.271 140.121L479.5 174.317C491.612 181.31 495.54 194.797 488.837 206.406Z" fill="#0A0A0A" stroke="#FFAEEE" stroke-miterlimit="10"/>
<path d="M431.99 191.731L384.007 274.839L295.138 298.652L271.795 285.174L271.789 285.171L212.891 251.166C200.845 244.211 196.937 230.797 203.601 219.254L251.585 136.145L340.453 112.333L363.796 125.811L363.803 125.814L422.7 159.819C434.746 166.774 438.654 180.188 431.99 191.731Z" fill="#0A0A0A" stroke="#FFAEEE" stroke-miterlimit="10"/>
<path d="M386.87 179.371L339.154 262.016L250.777 285.697L227.566 272.296L227.56 272.292L168.987 238.475C157.007 231.558 153.125 218.221 159.751 206.745L207.467 124.1L295.844 100.419L319.055 113.82L319.061 113.824L377.634 147.641C389.614 154.557 393.496 167.895 386.87 179.371Z" fill="#0A0A0A" stroke="#FFAEEE" stroke-miterlimit="10"/>
<path d="M347.926 168.288L300.478 250.469L212.603 274.015L189.518 260.687L189.512 260.683L131.27 227.057C119.357 220.179 115.494 206.915 122.082 195.505L169.53 113.324L257.405 89.7776L280.49 103.106L280.497 103.109L338.738 136.735C350.652 143.614 354.514 156.878 347.926 168.288Z" fill="#0A0A0A" stroke="#FFAEEE" stroke-miterlimit="10"/>
<path d="M315.113 158.428L267.933 240.146L180.549 263.56L157.597 250.309L157.59 250.305L99.6733 216.866C87.8262 210.026 83.9904 196.839 90.5435 185.489L137.724 103.771L225.108 80.3569L248.06 93.6084L248.067 93.6122L305.984 127.051C317.831 133.891 321.667 147.078 315.113 158.428Z" fill="#0A0A0A" stroke="#FFAEEE" stroke-miterlimit="10"/>
<path d="M288.396 149.743L241.484 230.997L154.601 254.277L131.782 241.102L131.775 241.098L74.1894 207.851C62.4085 201.049 58.5923 187.935 65.1072 176.651L112.019 95.3974L198.902 72.1173L221.722 85.2922L221.728 85.2961L279.314 118.543C291.095 125.345 294.911 138.459 288.396 149.743Z" fill="#0A0A0A" stroke="#FFAEEE" stroke-miterlimit="10"/>
<path d="M266.512 142.188L219.868 222.978L133.476 246.127L110.783 233.024L110.776 233.02L53.5216 199.965C41.8136 193.205 38.0129 180.171 44.4933 168.946L91.1378 88.1564L177.529 65.008L200.223 78.1102L200.23 78.114L257.484 111.17C269.192 117.93 272.993 130.964 266.512 142.188Z" fill="#0A0A0A" stroke="#FFAEEE" stroke-miterlimit="10"/>
<path d="M250.401 135.706L204.024 216.032L118.123 239.048L95.5624 226.023L95.5559 226.019L38.6259 193.15C26.9842 186.429 23.2034 173.468 29.6456 162.31L76.0223 81.9838L161.922 58.9669L184.484 71.9928L184.49 71.9965L241.42 104.865C253.062 111.586 256.843 124.548 250.401 135.706Z" fill="#0A0A0A" stroke="#FFAEEE" stroke-miterlimit="10"/>
<path d="M239.023 130.241L192.914 210.104L107.515 232.986L85.0866 220.037L85.0798 220.033L28.4814 187.356C16.906 180.673 13.1512 167.789 19.559 156.69L65.6679 76.8279L151.066 53.9454L173.495 66.8947L173.502 66.8986L230.1 99.5758C241.676 106.259 245.43 119.143 239.023 130.241Z" fill="#0A0A0A" stroke="#FFAEEE" stroke-miterlimit="10"/>
<path d="M232.296 125.763L186.454 205.161L101.547 227.912L79.2441 215.035L79.2376 215.032L22.9637 182.542C11.4545 175.897 7.71962 163.086 14.0891 152.054L59.9302 72.6554L144.837 49.9045L167.14 62.7812L167.147 62.7849L223.421 95.2748C234.93 101.92 238.665 114.731 232.296 125.763Z" fill="#0A0A0A" stroke="#FFAEEE" stroke-miterlimit="10"/>
<path d="M230.166 122.195L184.593 201.13L100.187 223.746L78.017 210.946L78.0103 210.942L22.068 178.644C10.625 172.037 6.91618 159.303 13.2474 148.337L58.8208 69.4024L143.226 46.7859L165.397 59.586L165.403 59.5899L221.346 91.8885C232.789 98.4951 236.498 111.229 230.166 122.195Z" fill="#0A0A0A" stroke="#FFAEEE" stroke-miterlimit="10"/>
<path d="M231.9 119.502L186.595 197.972L102.68 220.457L80.6429 207.734L80.6361 207.73L25.0251 175.623C13.6484 169.054 9.95911 156.393 16.2521 145.494L61.5577 67.0229L145.472 44.5382L167.51 57.2616L167.516 57.2656L223.127 89.3727C234.504 95.941 238.193 108.602 231.9 119.502Z" fill="#0A0A0A" stroke="#FFAEEE" stroke-miterlimit="10"/>
<path d="M237.132 117.621L192.094 195.628L108.681 217.979L86.7694 205.328L86.7626 205.324L31.4761 173.404C20.1657 166.874 16.5027 154.29 22.7613 143.45L67.7991 65.4431L151.212 43.0928L173.124 55.7436L173.13 55.7475L228.417 87.6673C239.727 94.1974 243.39 106.781 237.132 117.621Z" fill="#0A0A0A" stroke="#FFAEEE" stroke-miterlimit="10"/>
<path d="M246.314 116.521L201.544 194.065L118.623 216.283L96.8432 203.709L96.8364 203.705L41.8812 171.977C30.6436 165.489 26.9936 152.974 33.2139 142.2L77.9839 64.6571L160.906 42.4386L182.685 55.0128L182.692 55.0167L237.647 86.7452C248.884 93.2332 252.534 105.748 246.314 116.521Z" fill="#0A0A0A" stroke="#FFAEEE" stroke-miterlimit="10"/>
<path d="M258.955 116.133L214.453 193.213L132.033 215.297L110.387 202.799L110.38 202.795L55.7495 171.254C44.5782 164.805 40.9542 152.367 47.1362 141.66L91.6384 64.5802L174.069 42.4931L195.716 54.9909L195.722 54.9948L250.353 86.5358C261.524 92.9855 265.148 105.423 258.966 116.131L258.955 116.133Z" fill="#0A0A0A" stroke="#FFAEEE" stroke-miterlimit="10"/>
<path d="M274.278 116.405L230.044 193.02L148.115 214.973L126.594 202.548L126.588 202.544L72.2883 171.194C61.1833 164.783 57.5792 152.418 63.723 141.777L107.957 65.1615L189.886 43.2089L211.407 55.634L211.414 55.6378L265.713 86.9876C276.818 93.3991 280.422 105.764 274.278 116.405Z" fill="#0A0A0A" stroke="#FFAEEE" stroke-miterlimit="10"/>
<path d="M292.606 117.299L248.64 193.451L167.202 215.272L145.814 202.923L145.807 202.919L91.839 171.761C80.8002 165.388 77.2224 153.1 83.3279 142.525L127.295 66.3736L208.732 44.5525L230.12 56.9011L230.127 56.905L284.102 88.0673C295.14 94.4406 298.718 106.728 292.613 117.303L292.606 117.299Z" fill="#0A0A0A" stroke="#FFAEEE" stroke-miterlimit="10"/>
<path d="M313.281 118.761L269.582 194.449L188.646 216.135L167.384 203.859L167.377 203.855L113.734 172.884C102.761 166.549 99.2028 154.335 105.274 143.82L148.973 68.132L229.909 46.4453L251.164 58.7175L251.171 58.7212L304.815 89.6925C315.787 96.0275 319.345 108.242 313.274 118.757L313.281 118.761Z" fill="#0A0A0A" stroke="#FFAEEE" stroke-miterlimit="10"/>
<path d="M335.946 120.731L292.515 195.955L212.071 217.51L190.941 205.311L190.934 205.307L137.622 174.527C126.716 168.231 123.184 156.093 129.217 145.644L172.648 70.4202L253.092 48.8651L274.222 61.0646L274.229 61.0684L327.541 91.8481C338.447 98.1449 341.979 110.282 335.946 120.731Z" fill="#0A0A0A" stroke="#FFAEEE" stroke-miterlimit="10"/>
<path d="M360.877 123.162L317.714 197.922L237.77 219.342L216.773 207.219L216.767 207.216L163.779 176.623C152.939 170.365 149.427 158.301 155.421 147.918L198.585 73.1577L278.527 51.737L299.525 63.8599L299.532 63.8638L352.519 94.4561C363.359 100.715 366.871 112.779 360.877 123.162Z" fill="#0A0A0A" stroke="#FFAEEE" stroke-miterlimit="10"/>
<path d="M387.114 126.019L344.218 200.315L264.767 221.604L243.895 209.554L243.888 209.55L191.232 179.149C180.465 172.933 176.972 160.942 182.929 150.625L225.824 76.3286L305.276 55.0397L326.141 67.0861L326.147 67.09L378.804 97.4911C389.571 103.708 393.063 115.698 387.107 126.015L387.114 126.019Z" fill="#0A0A0A" stroke="#FFAEEE" stroke-miterlimit="10"/>
<path d="M415.016 129.234L372.388 203.067L293.438 224.221L272.699 212.248L272.692 212.244L220.361 182.03C209.66 175.852 206.187 163.934 212.109 153.677L254.736 79.8447L333.686 58.6901L354.426 70.664L354.432 70.6677L406.764 100.881C417.464 107.059 420.938 118.977 415.016 129.234Z" fill="#0A0A0A" stroke="#FFAEEE" stroke-miterlimit="10"/>
<path d="M443.962 132.746L401.602 206.115L323.143 227.138L302.537 215.24L302.53 215.236L250.53 185.214C239.895 179.074 236.448 167.234 242.332 157.043L284.692 83.674L363.151 62.6512L383.757 74.5483L383.764 74.5522L435.764 104.575C446.398 110.714 449.845 122.555 443.962 132.746Z" fill="#0A0A0A" stroke="#FFAEEE" stroke-miterlimit="10"/>
<path d="M473.704 136.528L431.608 209.44L353.64 230.331L333.16 218.507L333.153 218.503L281.484 188.672C270.916 182.57 267.488 170.802 273.334 160.678L315.426 87.7729L393.393 66.8816L413.874 78.7062L413.881 78.7099L465.549 108.541C476.118 114.643 479.545 126.41 473.7 136.535L473.704 136.528Z" fill="#0A0A0A" stroke="#FFAEEE" stroke-miterlimit="10"/>
<path d="M503.879 140.519L462.051 212.967L384.585 233.724L364.237 221.976L364.23 221.972L312.886 192.328C302.384 186.265 298.983 174.574 304.79 164.516L346.618 92.0682L424.084 71.3112L444.432 83.0594L444.439 83.0632L495.783 112.707C506.285 118.77 509.686 130.461 503.879 140.519Z" fill="#0A0A0A" stroke="#FFAEEE" stroke-miterlimit="10"/>
<path d="M534.15 144.663L492.59 216.647L415.615 237.272L395.4 225.601L395.393 225.597L344.38 196.145C333.944 190.12 330.563 178.502 336.335 168.504L377.896 96.5197L454.87 75.8943L475.086 87.5658L475.093 87.5697L526.105 117.022C536.541 123.047 539.923 134.665 534.15 144.663Z" fill="#0A0A0A" stroke="#FFAEEE" stroke-miterlimit="10"/>
<path d="M564.582 148.91L523.289 220.43L446.816 240.921L426.726 229.322L426.72 229.318L376.032 200.053C365.662 194.067 362.307 182.526 368.041 172.594L409.334 101.074L485.807 80.5826L505.896 92.1816L505.903 92.1853L556.591 121.45C566.961 127.437 570.316 138.978 564.582 148.91Z" fill="#0A0A0A" stroke="#FFAEEE" stroke-miterlimit="10"/>
<path d="M594.731 153.213L553.706 224.269L477.724 244.628L457.767 233.106L457.76 233.102L407.403 204.028C397.107 198.084 393.764 186.612 399.46 176.746L440.485 105.69L516.467 85.3307L536.424 96.8531L536.431 96.8569L586.788 125.931C597.084 131.875 600.427 143.347 594.731 153.213Z" fill="#0A0A0A" stroke="#FFAEEE" stroke-miterlimit="10"/>
<path d="M624.144 157.53L583.387 228.122L507.907 248.347L488.082 236.901L488.075 236.897L438.05 208.015C427.819 202.108 424.499 190.721 430.161 180.915L470.918 110.322L546.398 90.0972L566.223 101.543L566.229 101.547L616.255 130.429C626.485 136.336 629.805 147.723 624.144 157.53Z" fill="#0A0A0A" stroke="#FFAEEE" stroke-miterlimit="10"/>
</svg>
