<svg width="729" height="456" viewBox="0 0 729 456" fill="none" xmlns="http://www.w3.org/2000/svg">
<path d="M428.596 428.138V315.577L504.907 239.267H536.52H536.535H616.312C632.624 239.267 644.46 250.598 644.46 266.236V378.797L568.149 455.108H536.535H536.52H456.744C440.432 455.108 428.596 443.777 428.596 428.138Z" fill="#121212" stroke="#005156" stroke-miterlimit="10"/>
<path d="M426.914 427.587V315.562L502.858 239.618H534.326H534.341H613.735C629.971 239.618 641.753 250.896 641.753 266.458V378.483L565.81 454.426H534.341H534.326H454.932C438.697 454.426 426.914 443.149 426.914 427.587Z" fill="#121212" stroke="#005156" stroke-miterlimit="10"/>
<path d="M421.107 426.685V315.195L496.691 239.611H528.007H528.022H607.041C623.2 239.611 634.921 250.835 634.921 266.321V377.81L559.337 453.394H528.022H528.007H448.987C432.829 453.394 421.107 442.17 421.107 426.685Z" fill="#121212" stroke="#005156" stroke-miterlimit="10"/>
<path d="M411.604 425.423V314.469L486.821 239.252H517.983H517.999H596.635C612.717 239.252 624.385 250.422 624.385 265.831V376.786L549.169 452.002H518.006H517.991H439.355C423.272 452.002 411.604 440.832 411.604 425.423Z" fill="#121212" stroke="#005156" stroke-miterlimit="10"/>
<path d="M398.808 423.791V313.373L473.665 238.516H504.682H504.697H582.951C598.957 238.516 610.563 249.632 610.563 264.973V375.391L535.706 450.248H504.689H504.674H426.42C410.414 450.248 398.808 439.131 398.808 423.791Z" fill="#121212" stroke="#005156" stroke-miterlimit="10"/>
<path d="M383.164 421.786V311.903L457.662 237.405H488.525H488.541H566.42C582.349 237.405 593.902 248.468 593.902 263.732V373.615L519.405 448.113H488.541H488.525H410.646C394.717 448.113 383.164 437.049 383.164 421.786Z" fill="#121212" stroke="#005156" stroke-miterlimit="10"/>
<path d="M365.066 419.385V310.037L439.196 235.907H469.907H469.923H547.419C563.272 235.907 574.764 246.917 574.764 262.104V371.452L500.634 445.582H469.923H469.907H392.411C376.558 445.582 365.066 434.572 365.066 419.385Z" fill="#121212" stroke="#005156" stroke-miterlimit="10"/>
<path d="M344.955 416.583V307.771L418.726 234H449.291H449.306H526.428C542.197 234 553.642 244.956 553.642 260.067V368.879L479.872 442.649H449.306H449.291H372.169C356.401 442.649 344.955 431.693 344.955 416.583Z" fill="#121212" stroke="#005156" stroke-miterlimit="10"/>
<path d="M323.233 413.363V305.087L396.637 231.684H427.049H427.065H503.804C519.496 231.684 530.88 242.586 530.88 257.62V365.897L457.477 439.3H427.065H427.049H350.31C334.618 439.3 323.233 428.397 323.233 413.363Z" fill="#121212" stroke="#005156" stroke-miterlimit="10"/>
<path d="M300.327 409.721V301.98L373.371 228.937H403.63H403.646H480.002C495.618 228.937 506.949 239.786 506.949 254.751V362.492L433.905 435.535H403.646H403.63H327.274C311.658 435.535 300.327 424.686 300.327 409.721Z" fill="#121212" stroke="#005156" stroke-miterlimit="10"/>
<path d="M276.65 405.636V298.43L349.327 225.754H379.441H379.456H455.438C470.977 225.754 482.247 236.549 482.247 251.438V358.643L409.57 431.32H379.456H379.441H303.459C287.92 431.32 276.65 420.524 276.65 405.636Z" fill="#121212" stroke="#005156" stroke-miterlimit="10"/>
<path d="M252.618 401.108V294.438L324.935 222.121H354.896H354.911H430.51C445.973 222.121 457.189 232.863 457.189 247.675V354.345L384.873 426.662H354.911H354.896H279.297C263.834 426.662 252.618 415.92 252.618 401.108Z" fill="#121212" stroke="#005156" stroke-miterlimit="10"/>
<path d="M228.665 396.118V289.984L300.615 218.034H330.423H330.438H405.662C421.048 218.034 432.203 228.723 432.203 243.458V349.592L360.246 421.55H330.438H330.423H255.198C239.812 421.55 228.657 410.861 228.657 396.126L228.665 396.118Z" fill="#121212" stroke="#005156" stroke-miterlimit="10"/>
<path d="M205.195 390.655V285.049L276.786 213.459H306.448H306.464H381.305C396.615 213.459 407.716 224.086 407.716 238.761V344.359L336.126 415.949H306.464H306.448H231.606C216.297 415.949 205.195 405.322 205.195 390.647V390.655Z" fill="#121212" stroke="#005156" stroke-miterlimit="10"/>
<path d="M182.634 384.71V279.64L253.864 208.409H283.374H283.389H357.848C373.074 208.409 384.122 218.983 384.122 233.581V338.651L312.891 409.882H283.382H283.366H208.907C193.682 409.882 182.634 399.308 182.634 384.71Z" fill="#121212" stroke="#005156" stroke-miterlimit="10"/>
<path d="M161.401 378.275V273.74L232.265 202.877H261.621H261.629H335.713C350.862 202.877 361.856 213.397 361.856 227.919V332.454L290.993 403.317H261.636H261.629H187.545C172.396 403.317 161.401 392.797 161.401 378.275Z" fill="#121212" stroke="#005156" stroke-miterlimit="10"/>
<path d="M141.907 371.337V267.338L212.411 196.834H241.622H241.63H315.331C330.404 196.834 341.337 207.3 341.337 221.745V325.745L270.833 396.249H241.622H241.614H167.913C152.84 396.249 141.907 385.782 141.907 371.337Z" fill="#121212" stroke="#005156" stroke-miterlimit="10"/>
<path d="M124.582 363.875V260.411L194.718 190.274H223.777H223.784H297.111C312.107 190.274 322.987 200.687 322.987 215.064V318.527L252.85 388.664H223.792H223.784H150.458C135.462 388.664 124.582 378.251 124.582 363.875Z" fill="#121212" stroke="#005156" stroke-miterlimit="10"/>
<path d="M109.839 355.888L109.839 252.959L179.616 183.183H208.521H208.529H281.473C296.392 183.183 307.211 193.542 307.211 207.842V310.77L237.434 380.547H208.529H208.521H135.577C120.657 380.547 109.839 370.187 109.839 355.888Z" fill="#121212" stroke="#005156" stroke-miterlimit="10"/>
<path d="M98.0993 347.367L98.0993 244.974L167.509 175.564H196.269H196.277H268.838C283.681 175.564 294.446 185.87 294.446 200.093V302.486L225.036 371.896H196.277H196.269H123.7C108.857 371.896 98.0918 361.59 98.0918 347.367H98.0993Z" fill="#121212" stroke="#005156" stroke-miterlimit="10"/>
<path d="M89.7744 338.291L89.7744 236.434L158.824 167.384H187.431H187.439H259.626C274.392 167.384 285.096 177.636 285.096 191.783V293.64L216.046 362.69H187.439H187.431H115.244C100.478 362.69 89.7744 352.438 89.7744 338.291Z" fill="#121212" stroke="#005156" stroke-miterlimit="10"/>
<path d="M85.2988 328.652L85.2988 227.33L153.989 158.64H182.451H182.459H254.263C268.945 158.64 279.603 168.838 279.603 182.916V284.238L210.912 352.928H182.459H182.451H110.647C95.9645 352.928 85.3067 342.729 85.3067 328.652H85.2988Z" fill="#121212" stroke="#005156" stroke-miterlimit="10"/>
<path d="M85.0664 318.446L85.0664 217.66L153.389 149.337H181.698H181.706H253.135C267.741 149.337 278.337 159.482 278.337 173.483V274.269L210.014 342.593H181.706H181.698H110.269C95.6629 342.593 85.0664 332.447 85.0664 318.446Z" fill="#121212" stroke="#005156" stroke-miterlimit="10"/>
<path d="M89.5303 307.651L89.5303 207.401L157.494 139.438H185.649H185.657H256.704C271.233 139.438 281.776 149.529 281.776 163.454V263.704L213.812 331.668H185.657H185.649H114.602C100.073 331.668 89.5303 321.576 89.5303 307.651Z" fill="#121212" stroke="#005156" stroke-miterlimit="10"/>
<path d="M99.0752 296.258L99.0752 196.543L166.671 128.947H194.682H194.689H265.354C279.806 128.947 290.288 138.985 290.288 152.834V252.548L222.692 320.145H194.689H194.682H124.01C109.557 320.145 99.0752 310.107 99.0752 296.258Z" fill="#121212" stroke="#005156" stroke-miterlimit="10"/>
<path d="M114.14 284.268L114.14 185.088L181.376 117.852H209.233H209.241L279.53 117.852C293.907 117.852 304.335 127.836 304.335 141.608V240.787L237.098 308.024H209.241H209.233H138.944C124.568 308.024 114.14 298.039 114.14 284.268Z" fill="#121212" stroke="#005156" stroke-miterlimit="10"/>
<path d="M135.133 271.653V173.009L202.002 106.14H229.706H229.714L299.621 106.14C313.921 106.14 324.287 116.071 324.287 129.773V228.417L257.418 295.287H229.714H229.706H159.8C145.5 295.287 135.133 285.356 135.133 271.653Z" fill="#121212" stroke="#005156" stroke-miterlimit="10"/>
<path d="M162.484 258.409V160.301L228.994 93.791H256.553H256.561L326.092 93.791C340.315 93.791 350.629 103.668 350.629 117.295V215.403L284.119 281.913H256.561H256.553H187.021C172.798 281.913 162.484 272.035 162.484 258.409Z" fill="#121212" stroke="#005156" stroke-miterlimit="10"/>
<path d="M196.609 244.522V146.949L262.752 80.8066H290.158H290.165L359.315 80.8066C373.454 80.8066 383.713 90.6305 383.713 104.18V201.753L317.563 267.903H290.158H290.15H221.001C206.862 267.903 196.602 258.079 196.602 244.53L196.609 244.522Z" fill="#121212" stroke="#005156" stroke-miterlimit="10"/>
<path d="M237.927 229.984V132.947L303.71 67.1641H330.962H330.97L399.745 67.1641C413.807 67.1641 424.013 76.9343 424.013 90.4077V187.445L358.23 253.228H330.978H330.97H262.195C248.133 253.228 237.927 243.457 237.927 229.984Z" fill="#121212" stroke="#005156" stroke-miterlimit="10"/>
<path d="M286.846 214.781V118.28L352.269 52.8564H379.376H379.384H447.776C461.762 52.8564 471.907 62.5731 471.907 75.9776V172.479L406.484 237.903H379.376H379.369H310.977C296.991 237.903 286.846 228.186 286.846 214.781Z" fill="#121212" stroke="#005156" stroke-miterlimit="10"/>
<path d="M343.579 198.967V103.001L408.635 37.9453H435.59H435.597H503.607C517.516 37.9453 527.608 47.6085 527.608 60.9365V156.902L462.552 221.959H435.597H435.59H367.58C353.671 221.959 343.579 212.295 343.579 198.967Z" fill="#121212" stroke="#005156" stroke-miterlimit="10"/>
<path d="M388.83 187.117V91.6867L453.527 26.9902H480.328H480.336L547.97 26.9902C561.803 26.9902 571.834 36.5998 571.834 49.8513V145.282L507.137 209.978H480.336H480.328H412.694C398.861 209.978 388.83 200.369 388.83 187.117Z" fill="#121212" stroke="#005156" stroke-miterlimit="10"/>
<path d="M427.988 177.307V82.4122L492.318 18.083H518.973H518.981L586.233 18.083C599.99 18.083 609.966 27.639 609.966 40.814V135.709L545.637 200.038H518.981H518.973H451.722C437.965 200.038 427.988 190.482 427.988 177.307Z" fill="#121212" stroke="#005156" stroke-miterlimit="10"/>
<path d="M461.302 169.459V75.0995L525.271 11.1299L551.774 11.1299H551.782L618.659 11.1299C632.339 11.1299 642.254 20.6323 642.254 33.7384V128.098L578.285 192.067H551.782H551.774H484.897C471.217 192.067 461.302 182.565 461.302 169.459Z" fill="#121212" stroke="#005156" stroke-miterlimit="10"/>
<path d="M489.048 163.468V69.6444L552.651 6.04199L579 6.04199H579.008L645.502 6.04199C659.106 6.04199 668.968 15.4909 668.968 28.5205V122.344L605.366 185.947H579.016H579.008H512.514C498.91 185.947 489.048 176.498 489.048 163.468Z" fill="#121212" stroke="#005156" stroke-miterlimit="10"/>
<path d="M511.474 159.245V65.9566L574.717 2.71387H600.921H600.929H667.041C680.56 2.71387 690.369 12.1016 690.369 25.0623V118.35L627.126 181.593H600.921H600.914H534.802C521.282 181.593 511.474 172.206 511.474 159.245Z" fill="#121212" stroke="#005156" stroke-miterlimit="10"/>
<path d="M528.848 156.696V63.9437L591.731 1.06055L617.783 1.06055H617.79L683.527 1.06055C696.97 1.06055 706.725 10.3947 706.725 23.279V116.032L643.842 178.915H617.79H617.783H552.046C538.603 178.915 528.848 169.581 528.848 156.696Z" fill="#121212" stroke="#005156" stroke-miterlimit="10"/>
<path d="M541.442 155.733V63.516L603.958 1L629.857 1H629.864L695.219 1C708.585 1 718.279 10.2806 718.279 23.096V115.313L655.763 177.829H629.864H629.857H564.502C551.136 177.829 541.442 168.548 541.442 155.733Z" fill="#121212" stroke="#005156" stroke-miterlimit="10"/>
<path d="M549.5 156.254V64.5724L611.657 2.41602L637.41 2.41602H637.417L702.397 2.41602C715.687 2.41602 725.327 11.643 725.327 24.3819V116.063L663.171 178.22H637.417H637.41H572.43C559.14 178.22 549.5 168.993 549.5 156.254Z" fill="#121212" stroke="#005156" stroke-miterlimit="10"/>
<path d="M553.314 158.173V67.0274L615.104 5.23828L640.704 5.23828H640.712L705.309 5.23828C718.522 5.23828 728.101 14.4118 728.101 27.0741V118.22L666.312 180.009H640.712H640.704H576.107C562.893 180.009 553.314 170.836 553.314 158.173Z" fill="#121212" stroke="#005156" stroke-miterlimit="10"/>
<path d="M553.13 161.395V70.785L614.559 9.35547L640.006 9.35547H640.014L704.228 9.35547C717.365 9.35547 726.891 18.4754 726.891 31.0612V121.672L665.461 183.101H640.014H640.006H575.792C562.655 183.101 553.13 173.981 553.13 161.395Z" fill="#121212" stroke="#005156" stroke-miterlimit="10"/>
<path d="M549.215 165.817V75.742L610.277 14.6797L635.579 14.6797H635.587L699.426 14.6797C712.486 14.6797 721.951 23.7461 721.951 36.2631V126.338L660.888 187.4H635.587H635.579H571.739C558.679 187.4 549.215 178.334 549.215 165.817Z" fill="#121212" stroke="#005156" stroke-miterlimit="10"/>
<path d="M541.831 171.357V81.8179L602.534 21.1152H627.682H627.69L691.147 21.1152C704.123 21.1152 713.542 30.1281 713.542 42.5686V132.108L652.839 192.81H627.69H627.682H564.225C551.249 192.81 541.831 183.798 541.831 171.357Z" fill="#121212" stroke="#005156" stroke-miterlimit="10"/>
<path d="M531.238 177.919V88.9155L591.574 28.5801H616.569H616.577L679.659 28.5801C692.559 28.5801 701.916 37.5393 701.916 49.9033V138.907L641.573 199.25H616.577H616.569H553.487C540.588 199.25 531.23 190.291 531.23 177.927L531.238 177.919Z" fill="#121212" stroke="#005156" stroke-miterlimit="10"/>
<path d="M517.714 185.411V96.9427L577.69 36.9668L602.54 36.9668H602.548H665.247C678.07 36.9668 687.374 45.8726 687.374 58.16V146.628L627.398 206.604H602.548H602.54H539.84C527.017 206.604 517.714 197.698 517.714 185.411Z" fill="#121212" stroke="#005156" stroke-miterlimit="10"/>
<path d="M501.503 193.734V105.802L561.119 46.1855L585.817 46.1855H585.824H648.141C660.888 46.1855 670.13 55.0377 670.13 67.2487V155.181L610.514 214.797H585.817H585.809H523.484C510.738 214.797 501.495 205.945 501.495 193.734H501.503Z" fill="#121212" stroke="#005156" stroke-miterlimit="10"/>
<path d="M482.881 202.802V115.405L542.13 56.1562L566.682 56.1563H566.689H628.632C641.302 56.1563 650.49 64.9549 650.49 77.0969V164.494L591.241 223.743H566.697H566.689H504.747C492.077 223.743 482.888 214.944 482.888 202.802H482.881Z" fill="#121212" stroke="#005156" stroke-miterlimit="10"/>
<path d="M462.116 212.519V125.658L521.005 66.7686H545.404H545.412L606.972 66.7686C619.565 66.7686 628.693 75.5136 628.693 87.5791V174.44L569.803 233.33H545.404H545.397H483.837C471.244 233.33 462.116 224.585 462.116 212.519Z" fill="#121212" stroke="#005156" stroke-miterlimit="10"/>
<path d="M439.454 222.786V136.461L497.976 77.9385H522.222H522.23L583.415 77.9385C595.932 77.9385 605.005 86.63 605.005 98.619V184.945L546.483 243.467H522.238H522.23H461.045C448.528 243.467 439.454 234.775 439.454 222.786Z" fill="#121212" stroke="#005156" stroke-miterlimit="10"/>
<path d="M415.175 233.512V147.722L473.337 89.5596H497.438H497.446L558.248 89.5596C570.681 89.5596 579.701 98.1976 579.701 110.11V195.9L521.538 254.063H497.446H497.438H436.636C424.203 254.063 415.183 245.425 415.183 233.512H415.175Z" fill="#121212" stroke="#005156" stroke-miterlimit="10"/>
<path d="M389.527 244.612V159.358L447.323 101.562H471.27H471.278L531.705 101.563C544.061 101.563 553.028 110.147 553.028 121.991V207.245L495.233 265.041H471.285H471.278H410.851C398.494 265.041 389.527 256.456 389.527 244.612Z" fill="#121212" stroke="#005156" stroke-miterlimit="10"/>
<path d="M362.8 255.984V171.265L420.235 113.829H444.03H444.038L504.083 113.829C516.362 113.829 525.268 122.36 525.268 134.127V218.846L467.832 276.282H444.038H444.03H383.985C371.705 276.282 362.8 267.751 362.8 255.984Z" fill="#121212" stroke="#005156" stroke-miterlimit="10"/>
<path d="M335.229 267.537V183.346L392.305 126.27H415.955H415.962L475.625 126.27C487.828 126.27 496.68 134.747 496.68 146.437V230.621L439.604 287.697H415.955H415.947H356.285C344.082 287.697 335.229 279.22 335.229 267.529V267.537Z" fill="#121212" stroke="#005156" stroke-miterlimit="10"/>
<path d="M307.089 279.173V195.517L363.798 138.809H387.294H387.301H446.589C458.716 138.809 467.506 147.232 467.506 158.846V242.502L410.798 299.211H387.301H387.294H328.006C315.88 299.211 307.089 290.787 307.089 279.173Z" fill="#121212" stroke="#005156" stroke-miterlimit="10"/>
<path d="M278.646 290.81V207.69L334.995 151.341H358.338H358.346H417.25C429.301 151.341 438.038 159.711 438.038 171.256V254.376L381.689 310.726H358.346H358.338H299.433C287.383 310.726 278.646 302.355 278.646 290.81Z" fill="#121212" stroke="#005156" stroke-miterlimit="10"/>
<path d="M250.16 302.349V219.764L306.143 163.782H329.34H329.348H387.877C399.851 163.782 408.528 172.099 408.528 183.568V266.152L352.546 322.134H329.348H329.34H270.81C258.837 322.134 250.16 313.818 250.16 302.349Z" fill="#121212" stroke="#005156" stroke-miterlimit="10"/>
<path d="M221.896 313.695V231.646L277.519 176.023H300.564H300.571H358.719C370.608 176.023 379.239 184.287 379.239 195.679V277.728L323.616 333.35H300.571H300.564H242.417C230.527 333.35 221.896 325.087 221.896 313.695Z" fill="#121212" stroke="#005156" stroke-miterlimit="10"/>
<path d="M194.124 324.751V243.238L249.379 187.982H272.271H272.278H330.043C341.856 187.982 350.425 196.184 350.425 207.508V289.021L295.17 344.276H272.278H272.271H214.506C202.693 344.276 194.124 336.074 194.124 324.751Z" fill="#121212" stroke="#005156" stroke-miterlimit="10"/>
<path d="M167.095 335.431V254.453L221.99 199.558H244.737H244.744H302.134C313.871 199.558 322.386 207.706 322.386 218.96V299.938L267.491 354.834H244.744H244.737H187.347C175.61 354.834 167.095 346.686 167.095 335.431Z" fill="#121212" stroke="#005156" stroke-miterlimit="10"/>
<path d="M141.074 345.638V265.195L195.603 210.667H218.196H218.203H275.211C286.871 210.667 295.325 218.762 295.325 229.94V310.382L240.789 364.918H218.196H218.188H161.181C149.521 364.918 141.066 356.823 141.066 345.645L141.074 345.638Z" fill="#121212" stroke="#005156" stroke-miterlimit="10"/>
<path d="M116.339 355.277V275.37L170.508 221.201H192.948H192.955H249.588C261.171 221.201 269.572 229.242 269.572 240.344V320.25L215.403 374.419H192.963H192.955H136.323C124.74 374.419 116.339 366.378 116.339 355.277Z" fill="#121212" stroke="#005156" stroke-miterlimit="10"/>
<path d="M93.1328 364.259L93.1328 284.888L146.942 231.079H169.237H169.245H225.494C237.001 231.079 245.341 239.067 245.341 250.092V329.463L191.532 383.272H169.237H169.229H112.979C101.472 383.272 93.1328 375.284 93.1328 364.259Z" fill="#121212" stroke="#005156" stroke-miterlimit="10"/>
<path d="M71.7314 372.484L71.7314 293.649L125.173 240.207H147.315H147.323H203.19C214.621 240.207 222.907 248.141 222.907 259.09V337.925L169.465 391.367H147.323H147.315H91.448C80.0174 391.367 71.7314 383.433 71.7314 372.484Z" fill="#121212" stroke="#005156" stroke-miterlimit="10"/>
<path d="M52.3975 379.874L52.3975 301.575L105.48 248.492H127.469H127.477H182.969C194.315 248.492 202.548 256.373 202.548 267.252V345.552L149.465 398.635H127.477H127.469H71.9765C60.6301 398.635 52.3975 390.754 52.3975 379.874Z" fill="#121212" stroke="#005156" stroke-miterlimit="10"/>
<path d="M35.3975 386.316L35.3975 308.552L88.1125 255.837H109.956H109.964H165.073C176.343 255.837 184.522 263.664 184.522 274.467V352.231L131.807 404.946H109.964H109.956H54.8461C43.5763 404.946 35.3975 397.12 35.3975 386.316Z" fill="#121212" stroke="#005156" stroke-miterlimit="10"/>
<path d="M20.9893 391.725L20.9893 314.496L73.3449 262.141H95.0351H95.0429H149.778C160.971 262.141 169.089 269.914 169.089 280.641V357.869L116.733 410.225H95.0429H95.0351H40.3005C29.1071 410.225 20.9893 402.452 20.9893 391.725Z" fill="#121212" stroke="#005156" stroke-miterlimit="10"/>
<path d="M9.43652 396.018L9.43652 319.325L61.4249 267.337H82.9623H82.9698H137.322C148.439 267.337 156.503 275.057 156.503 285.707V362.4L104.515 414.388H82.9776H82.9698H28.6177C17.5009 414.388 9.43652 406.668 9.43652 396.018Z" fill="#121212" stroke="#005156" stroke-miterlimit="10"/>
<path d="M1.00747 399.079L1.00747 322.922L52.6361 271.293H74.0282H74.036H128.006C139.046 271.293 147.049 278.959 147.049 289.54V365.698L95.4202 417.327H74.0282H74.0207H20.043C9.00263 417.327 1 409.661 1 399.079H1.00747Z" fill="#121212" stroke="#005156" stroke-miterlimit="10"/>
</svg>
