<svg width="20" height="20" viewBox="0 0 20 20" fill="none" xmlns="http://www.w3.org/2000/svg">
<path fill-rule="evenodd" clip-rule="evenodd" d="M8.94314 2.35459C9.26155 2.16905 9.62349 2.07129 9.99201 2.07129C10.3605 2.07129 10.7225 2.16905 11.0409 2.35459C11.3591 2.54003 11.6225 2.80653 11.8042 3.12692L18.4695 14.7912L18.4701 14.7923C18.6525 15.1086 18.7485 15.4672 18.7486 15.8323C18.7487 16.1979 18.6527 16.557 18.4701 16.8736C18.2875 17.1903 18.0248 17.4533 17.7084 17.6363C17.392 17.8193 17.033 17.9158 16.6674 17.9162H3.33538C2.9688 17.9191 2.60792 17.8253 2.2892 17.6441C1.96988 17.4626 1.70422 17.1999 1.51915 16.8827C1.33407 16.5654 1.23617 16.2048 1.23536 15.8376C1.23454 15.4706 1.33067 15.11 1.51399 14.7921L1.51451 14.7912L8.17951 3.12743C8.36121 2.80712 8.62495 2.53999 8.94314 2.35459ZM9.99201 2.90462C9.7709 2.90462 9.55374 2.96328 9.36269 3.0746C9.17164 3.18593 9.01354 3.34594 8.90452 3.53831L8.90378 3.53959L2.23712 15.2063L2.23618 15.2079C2.12598 15.3987 2.0682 15.6153 2.06869 15.8357C2.06918 16.0561 2.12792 16.2724 2.23896 16.4628C2.35 16.6531 2.5094 16.8108 2.70099 16.9197C2.89258 17.0286 3.10956 17.0849 3.32993 17.0829L3.33368 17.0829L16.6666 17.0829C16.8859 17.0826 17.1013 17.0247 17.2911 16.9149C17.481 16.8051 17.6386 16.6473 17.7482 16.4573C17.8577 16.2673 17.9154 16.0519 17.9153 15.8325C17.9153 15.6132 17.8575 15.3978 17.7478 15.2079L17.7469 15.2063L11.0802 3.53959L11.0795 3.53831C10.9705 3.34594 10.8124 3.18592 10.6213 3.0746C10.4303 2.96328 10.2131 2.90462 9.99201 2.90462ZM10.0003 7.08287C10.2305 7.08287 10.417 7.26942 10.417 7.49954V10.8329C10.417 11.063 10.2305 11.2495 10.0003 11.2495C9.77023 11.2495 9.58368 11.063 9.58368 10.8329V7.49954C9.58368 7.26942 9.77023 7.08287 10.0003 7.08287ZM9.58368 14.1662C9.58368 13.9361 9.77023 13.7495 10.0003 13.7495H10.0087C10.2388 13.7495 10.4253 13.9361 10.4253 14.1662C10.4253 14.3963 10.2388 14.5829 10.0087 14.5829H10.0003C9.77023 14.5829 9.58368 14.3963 9.58368 14.1662Z" fill="#E54545"/>
</svg>
