<svg width="20" height="20" viewBox="0 0 20 20" fill="none" xmlns="http://www.w3.org/2000/svg">
<path fill-rule="evenodd" clip-rule="evenodd" d="M12.5026 2.91634C12.2725 2.91634 12.0859 3.10289 12.0859 3.33301V7.49967C12.0859 7.72979 12.2725 7.91634 12.5026 7.91634H16.6693C16.8994 7.91634 17.0859 7.72979 17.0859 7.49967V3.33301C17.0859 3.10289 16.8994 2.91634 16.6693 2.91634H12.5026ZM11.2526 3.33301C11.2526 2.64265 11.8122 2.08301 12.5026 2.08301H16.6693C17.3596 2.08301 17.9193 2.64265 17.9193 3.33301V7.49967C17.9193 8.19003 17.3596 8.74967 16.6693 8.74967H12.5026C11.8122 8.74967 11.2526 8.19003 11.2526 7.49967V3.33301ZM2.45205 5.78246C2.68647 5.54804 3.00442 5.41634 3.33594 5.41634H7.5026C7.83413 5.41634 8.15207 5.54804 8.38649 5.78246C8.62091 6.01688 8.7526 6.33482 8.7526 6.66634V11.2497H13.3359C13.6675 11.2497 13.9854 11.3814 14.2198 11.6158C14.4542 11.8502 14.5859 12.1682 14.5859 12.4997V16.6663C14.5859 16.9979 14.4542 17.3158 14.2198 17.5502C13.9854 17.7846 13.6675 17.9163 13.3359 17.9163H3.33594C3.00442 17.9163 2.68648 17.7846 2.45205 17.5502C2.21763 17.3158 2.08594 16.9979 2.08594 16.6663V6.66634C2.08594 6.33482 2.21763 6.01688 2.45205 5.78246ZM2.91927 12.083V16.6663C2.91927 16.7768 2.96317 16.8828 3.04131 16.961C3.11945 17.0391 3.22543 17.083 3.33594 17.083H7.91927V12.083H2.91927ZM7.91927 11.2497H2.91927V6.66634C2.91927 6.55583 2.96317 6.44985 3.04131 6.37171C3.11945 6.29357 3.22543 6.24967 3.33594 6.24967H7.5026C7.61311 6.24967 7.71909 6.29357 7.79723 6.37171C7.87537 6.44985 7.91927 6.55583 7.91927 6.66634V11.2497ZM8.7526 12.083V17.083H13.3359C13.4464 17.083 13.5524 17.0391 13.6306 16.961C13.7087 16.8828 13.7526 16.7768 13.7526 16.6663V12.4997C13.7526 12.3892 13.7087 12.2832 13.6306 12.205C13.5524 12.1269 13.4464 12.083 13.3359 12.083H8.7526Z" fill="white"/>
</svg>
