<svg width="56" height="56" viewBox="0 0 56 56" fill="none" xmlns="http://www.w3.org/2000/svg">
<path fill-rule="evenodd" clip-rule="evenodd" d="M21.6464 21.6464C21.8417 21.4512 22.1583 21.4512 22.3536 21.6464L28 27.2929L33.6464 21.6464C33.8417 21.4512 34.1583 21.4512 34.3536 21.6464C34.5488 21.8417 34.5488 22.1583 34.3536 22.3536L28.7071 28L34.3536 33.6464C34.5488 33.8417 34.5488 34.1583 34.3536 34.3536C34.1583 34.5488 33.8417 34.5488 33.6464 34.3536L28 28.7071L22.3536 34.3536C22.1583 34.5488 21.8417 34.5488 21.6464 34.3536C21.4512 34.1583 21.4512 33.8417 21.6464 33.6464L27.2929 28L21.6464 22.3536C21.4512 22.1583 21.4512 21.8417 21.6464 21.6464Z" fill="white"/>
</svg>
