<svg width="24" height="24" viewBox="0 0 24 24" fill="none" xmlns="http://www.w3.org/2000/svg">
<path fill-rule="evenodd" clip-rule="evenodd" d="M12 22.5C17.799 22.5 22.5 17.799 22.5 12C22.5 6.20101 17.799 1.5 12 1.5C6.20101 1.5 1.5 6.20101 1.5 12C1.5 17.799 6.20101 22.5 12 22.5ZM15.3536 10.3536C15.5488 10.1583 15.5488 9.84171 15.3536 9.64645C15.1583 9.45118 14.8417 9.45118 14.6464 9.64645L11 13.2929L9.35355 11.6464C9.15829 11.4512 8.84171 11.4512 8.64645 11.6464C8.45118 11.8417 8.45118 12.1583 8.64645 12.3536L10.6464 14.3536C10.8417 14.5488 11.1583 14.5488 11.3536 14.3536L15.3536 10.3536Z" fill="#FFAEEE"/>
</svg>
