<svg width="32" height="32" viewBox="0 0 32 32" fill="none" xmlns="http://www.w3.org/2000/svg">
<path fill-rule="evenodd" clip-rule="evenodd" d="M24.041 6.65147C23.7368 6.53303 23.4109 6.47877 23.0843 6.49225C22.7576 6.50573 22.4375 6.58664 22.1443 6.7297C21.8511 6.87275 21.5915 7.07476 21.3817 7.32264C21.3727 7.33322 21.3634 7.34342 21.3536 7.35321L7.94746 20.7593L6.71262 25.2871L11.2403 24.0522L24.6465 10.6461C24.6579 10.6347 24.6699 10.6238 24.6824 10.6135C24.9337 10.4068 25.1386 10.1506 25.2844 9.86129C25.4301 9.57202 25.5134 9.25595 25.5292 8.93319C25.545 8.61044 25.4929 8.28788 25.3762 7.98605C25.2595 7.68421 25.0806 7.40956 24.8508 7.17973C24.6209 6.9499 24.3452 6.76992 24.041 6.65147ZM23.043 5.4931C23.5075 5.47394 23.9709 5.55105 24.4038 5.71962C24.8367 5.88819 25.2298 6.14457 25.5579 6.47263C25.8859 6.80069 26.1418 7.19324 26.3089 7.62535C26.476 8.05748 26.5507 8.51955 26.528 8.98209C26.5054 9.44462 26.3859 9.89727 26.1775 10.3112C25.9728 10.7175 25.6867 11.0777 25.3371 11.3697L11.8536 24.8532C11.792 24.9147 11.7155 24.9591 11.6316 24.982L6.13157 26.482C5.95846 26.5293 5.77333 26.4801 5.64646 26.3532C5.51958 26.2263 5.47042 26.0412 5.51763 25.8681L7.01763 20.3681C7.04052 20.2842 7.08493 20.2076 7.14646 20.1461L20.6324 6.66021C20.9295 6.3137 21.2948 6.03151 21.7058 5.83099C22.1232 5.62729 22.5786 5.51226 23.043 5.4931Z" fill="#E5EEFF" fill-opacity="0.6"/>
<path fill-rule="evenodd" clip-rule="evenodd" d="M18.6465 8.64611C18.8417 8.45084 19.1583 8.45084 19.3536 8.64611L23.3536 12.6461C23.5488 12.8414 23.5488 13.158 23.3536 13.3532C23.1583 13.5485 22.8417 13.5485 22.6465 13.3532L18.6465 9.35321C18.4512 9.15795 18.4512 8.84137 18.6465 8.64611Z" fill="#E5EEFF" fill-opacity="0.6"/>
</svg>
