<svg width="20" height="20" viewBox="0 0 20 20" fill="none" xmlns="http://www.w3.org/2000/svg">
<path fill-rule="evenodd" clip-rule="evenodd" d="M3.52686 1.86019C3.91756 1.46949 4.44747 1.25 5 1.25H12.0833C12.1938 1.25 12.2998 1.2939 12.378 1.37204L16.9613 5.95537C17.0394 6.03351 17.0833 6.13949 17.0833 6.25V16.6667C17.0833 17.2192 16.8638 17.7491 16.4731 18.1398C16.0824 18.5305 15.5525 18.75 15 18.75H3.33333C3.10321 18.75 2.91667 18.5635 2.91667 18.3333C2.91667 18.1032 3.10321 17.9167 3.33333 17.9167H15C15.3315 17.9167 15.6495 17.785 15.8839 17.5505C16.1183 17.3161 16.25 16.9982 16.25 16.6667V6.42259L11.9107 2.08333H5C4.66848 2.08333 4.35054 2.21503 4.11612 2.44945C3.8817 2.68387 3.75 3.00181 3.75 3.33333V6.66667C3.75 6.89679 3.56345 7.08333 3.33333 7.08333C3.10321 7.08333 2.91667 6.89679 2.91667 6.66667V3.33333C2.91667 2.7808 3.13616 2.25089 3.52686 1.86019Z" fill="white"/>
<path fill-rule="evenodd" clip-rule="evenodd" d="M11.6667 1.25C11.8968 1.25 12.0833 1.43655 12.0833 1.66667V6.25H16.6667C16.8968 6.25 17.0833 6.43655 17.0833 6.66667C17.0833 6.89679 16.8968 7.08333 16.6667 7.08333H11.6667C11.4365 7.08333 11.25 6.89679 11.25 6.66667V1.66667C11.25 1.43655 11.4365 1.25 11.6667 1.25Z" fill="white"/>
<path fill-rule="evenodd" clip-rule="evenodd" d="M1.25 12.5C1.25 12.2699 1.43655 12.0833 1.66667 12.0833H10C10.2301 12.0833 10.4167 12.2699 10.4167 12.5C10.4167 12.7301 10.2301 12.9167 10 12.9167H1.66667C1.43655 12.9167 1.25 12.7301 1.25 12.5Z" fill="white"/>
<path fill-rule="evenodd" clip-rule="evenodd" d="M7.20537 9.70537C7.36809 9.54265 7.63191 9.54265 7.79463 9.70537L10.2946 12.2054C10.4573 12.3681 10.4573 12.6319 10.2946 12.7946L7.79463 15.2946C7.63191 15.4573 7.36809 15.4573 7.20537 15.2946C7.04265 15.1319 7.04265 14.8681 7.20537 14.7054L9.41074 12.5L7.20537 10.2946C7.04265 10.1319 7.04265 9.86809 7.20537 9.70537Z" fill="white"/>
</svg>
