<svg width="20" height="20" viewBox="0 0 20 20" fill="none" xmlns="http://www.w3.org/2000/svg">
<path d="M10 3.75C10.2301 3.75 10.4167 3.93655 10.4167 4.16667V9.58333H15.8333C16.0635 9.58333 16.25 9.76988 16.25 10C16.25 10.2301 16.0635 10.4167 15.8333 10.4167H10.4167V15.8333C10.4167 16.0635 10.2301 16.25 10 16.25C9.76988 16.25 9.58333 16.0635 9.58333 15.8333V10.4167H4.16667C3.93655 10.4167 3.75 10.2301 3.75 10C3.75 9.76988 3.93655 9.58333 4.16667 9.58333H9.58333V4.16667C9.58333 3.93655 9.76988 3.75 10 3.75Z" fill="#FFAEEE"/>
</svg>
