<svg width="24" height="24" viewBox="0 0 24 24" fill="none" xmlns="http://www.w3.org/2000/svg">
<g id="icon/send">
<g id="Union">
<path fill-rule="evenodd" clip-rule="evenodd" d="M22.3536 1.64646C22.4894 1.78228 22.5354 1.9839 22.4719 2.16519L15.4719 22.1652C15.4042 22.3587 15.2252 22.4912 15.0204 22.4996C14.8155 22.508 14.6264 22.3904 14.5431 22.2031L10.6212 13.3788L1.79693 9.45692C1.60959 9.37366 1.49206 9.18447 1.50042 8.97963C1.50878 8.77479 1.64133 8.59581 1.83483 8.52809L21.8348 1.52808C22.0161 1.46463 22.2177 1.51064 22.3536 1.64646ZM3.35554 9.05532L11.2031 12.5431C11.3162 12.5934 11.4066 12.6838 11.4569 12.7969L14.9447 20.6445L21.185 2.815L3.35554 9.05532Z" fill="#E5EEFF" fill-opacity="0.6"/>
<path fill-rule="evenodd" clip-rule="evenodd" d="M22.3536 1.64646C22.5488 1.84172 22.5488 2.15831 22.3536 2.35357L11.3536 13.3536C11.1583 13.5488 10.8417 13.5488 10.6464 13.3536C10.4512 13.1583 10.4512 12.8417 10.6464 12.6465L21.6464 1.64646C21.8417 1.4512 22.1583 1.4512 22.3536 1.64646Z" fill="#E5EEFF" fill-opacity="0.6"/>
</g>
</g>
</svg>
