<svg width="16" height="16" viewBox="0 0 16 16" fill="none" xmlns="http://www.w3.org/2000/svg">
<path fill-rule="evenodd" clip-rule="evenodd" d="M8.00001 1C8.12688 1 8.24276 1.07202 8.29891 1.18579L10.2814 5.20216L14.7149 5.85017C14.8404 5.86852 14.9446 5.95652 14.9838 6.07719C15.0229 6.19786 14.9901 6.33028 14.8993 6.41879L11.6915 9.54312L12.4485 13.957C12.47 14.082 12.4186 14.2084 12.3159 14.283C12.2133 14.3576 12.0772 14.3674 11.9649 14.3084L8.00001 12.2233L4.03516 14.3084C3.92286 14.3674 3.78676 14.3576 3.6841 14.283C3.58144 14.2084 3.53002 14.082 3.55147 13.957L4.3085 9.54312L1.10077 6.41879C1.00989 6.33028 0.977135 6.19786 1.01626 6.07719C1.05539 5.95652 1.15961 5.86852 1.28513 5.85017L5.71859 5.20216L7.70111 1.18579C7.75726 1.07202 7.87314 1 8.00001 1ZM8.00001 2.08642L6.23891 5.65421C6.1904 5.75249 6.09667 5.82064 5.98822 5.8365L2.04948 6.4122L4.89925 9.18788C4.97788 9.26446 5.01377 9.37484 4.99521 9.48301L4.32274 13.4039L7.84486 11.5516C7.94199 11.5006 8.05803 11.5006 8.15516 11.5516L11.6773 13.4039L11.0048 9.48301C10.9863 9.37484 11.0221 9.26446 11.1008 9.18788L13.9505 6.4122L10.0118 5.8365C9.90335 5.82064 9.80962 5.75249 9.76111 5.65421L8.00001 2.08642Z" fill="white"/>
</svg>
