<svg width="20" height="20" viewBox="0 0 20 20" fill="none" xmlns="http://www.w3.org/2000/svg">
<path fill-rule="evenodd" clip-rule="evenodd" d="M2.08301 5C2.08301 4.76988 2.26956 4.58333 2.49967 4.58333H17.4997C17.7298 4.58333 17.9163 4.76988 17.9163 5C17.9163 5.23012 17.7298 5.41667 17.4997 5.41667H2.49967C2.26956 5.41667 2.08301 5.23012 2.08301 5Z" fill="#E54545"/>
<path fill-rule="evenodd" clip-rule="evenodd" d="M4.16634 4.58333C4.39646 4.58333 4.58301 4.76988 4.58301 5V16.6667C4.58301 16.9478 4.72778 17.2638 4.9818 17.5179C5.23582 17.7719 5.55185 17.9167 5.83301 17.9167H14.1663C14.4475 17.9167 14.7635 17.7719 15.0175 17.5179C15.2716 17.2638 15.4163 16.9478 15.4163 16.6667V5C15.4163 4.76988 15.6029 4.58333 15.833 4.58333C16.0631 4.58333 16.2497 4.76988 16.2497 5V16.6667C16.2497 17.2188 15.9778 17.7362 15.6068 18.1071C15.2358 18.4781 14.7185 18.75 14.1663 18.75H5.83301C5.28083 18.75 4.76352 18.4781 4.39255 18.1071C4.02157 17.7362 3.74967 17.2188 3.74967 16.6667V5C3.74967 4.76988 3.93622 4.58333 4.16634 4.58333Z" fill="#E54545"/>
<path fill-rule="evenodd" clip-rule="evenodd" d="M7.4818 2.48213C7.22778 2.73615 7.08301 3.05218 7.08301 3.33333V5C7.08301 5.23012 6.89646 5.41667 6.66634 5.41667C6.43622 5.41667 6.24967 5.23012 6.24967 5V3.33333C6.24967 2.78115 6.52157 2.26385 6.89255 1.89287C7.26352 1.52189 7.78083 1.25 8.33301 1.25H11.6663C12.2185 1.25 12.7358 1.52189 13.1068 1.89287C13.4778 2.26385 13.7497 2.78115 13.7497 3.33333V5C13.7497 5.23012 13.5631 5.41667 13.333 5.41667C13.1029 5.41667 12.9163 5.23012 12.9163 5V3.33333C12.9163 3.05218 12.7716 2.73615 12.5175 2.48213C12.2635 2.22811 11.9475 2.08333 11.6663 2.08333H8.33301C8.05185 2.08333 7.73582 2.22811 7.4818 2.48213Z" fill="#E54545"/>
<path fill-rule="evenodd" clip-rule="evenodd" d="M8.33301 8.75C8.56313 8.75 8.74967 8.93655 8.74967 9.16667V14.1667C8.74967 14.3968 8.56313 14.5833 8.33301 14.5833C8.10289 14.5833 7.91634 14.3968 7.91634 14.1667V9.16667C7.91634 8.93655 8.10289 8.75 8.33301 8.75Z" fill="#E54545"/>
<path fill-rule="evenodd" clip-rule="evenodd" d="M11.6663 8.75C11.8965 8.75 12.083 8.93655 12.083 9.16667V14.1667C12.083 14.3968 11.8965 14.5833 11.6663 14.5833C11.4362 14.5833 11.2497 14.3968 11.2497 14.1667V9.16667C11.2497 8.93655 11.4362 8.75 11.6663 8.75Z" fill="#E54545"/>
</svg>
