<svg width="24" height="24" viewBox="0 0 24 24" fill="none" xmlns="http://www.w3.org/2000/svg">
<g clip-path="url(#clip0_935_426)">
<path fill-rule="evenodd" clip-rule="evenodd" d="M7.40379 14.4038C8.62278 13.1848 10.2761 12.5 12 12.5C13.7239 12.5 15.3772 13.1848 16.5962 14.4038C17.8152 15.6228 18.5 17.2761 18.5 19C18.5 19.2761 18.2761 19.5 18 19.5C17.7238 19.5 17.5 19.2761 17.5 19C17.5 17.5413 16.9205 16.1424 15.8891 15.1109C14.8576 14.0795 13.4587 13.5 12 13.5C10.5413 13.5 9.14235 14.0795 8.1109 15.1109C7.07945 16.1424 6.49999 17.5413 6.49999 19C6.49999 19.2761 6.27613 19.5 5.99999 19.5C5.72384 19.5 5.49999 19.2761 5.49999 19C5.49999 17.2761 6.18481 15.6228 7.40379 14.4038Z" fill="#FFAEEE"/>
<path fill-rule="evenodd" clip-rule="evenodd" d="M12 5.5C10.067 5.5 8.49999 7.067 8.49999 9C8.49999 10.933 10.067 12.5 12 12.5C13.933 12.5 15.5 10.933 15.5 9C15.5 7.067 13.933 5.5 12 5.5ZM7.49999 9C7.49999 6.51472 9.51471 4.5 12 4.5C14.4853 4.5 16.5 6.51472 16.5 9C16.5 11.4853 14.4853 13.5 12 13.5C9.51471 13.5 7.49999 11.4853 7.49999 9Z" fill="#FFAEEE"/>
<path fill-rule="evenodd" clip-rule="evenodd" d="M17 5C17 4.72386 17.2239 4.5 17.5 4.5C18.6935 4.5 19.8381 4.97411 20.682 5.81802C21.5259 6.66193 22 7.80653 22 9C22 10.1935 21.5259 11.3381 20.682 12.182C20.4001 12.4639 20.0846 12.7045 19.745 12.9C20.6201 13.2221 21.4242 13.7318 22.0962 14.4038C23.3152 15.6228 24 17.2761 24 19C24 19.2761 23.7761 19.5 23.5 19.5C23.2239 19.5 23 19.2761 23 19C23 17.5413 22.4205 16.1424 21.3891 15.1109C20.3576 14.0795 18.9587 13.5 17.5 13.5C17.2239 13.5 17 13.2761 17 13C17 12.7239 17.2239 12.5 17.5 12.5C18.4283 12.5 19.3185 12.1313 19.9749 11.4749C20.6313 10.8185 21 9.92826 21 9C21 8.07174 20.6313 7.1815 19.9749 6.52513C19.3185 5.86875 18.4283 5.5 17.5 5.5C17.2239 5.5 17 5.27614 17 5Z" fill="#FFAEEE"/>
<path fill-rule="evenodd" clip-rule="evenodd" d="M7 5C7 4.72386 6.77614 4.5 6.5 4.5C5.30653 4.5 4.16193 4.97411 3.31802 5.81802C2.47411 6.66193 2 7.80653 2 9C2 10.1935 2.47411 11.3381 3.31802 12.182C3.59992 12.4639 3.91537 12.7045 4.25499 12.9C3.37989 13.2221 2.57584 13.7318 1.9038 14.4038C0.684818 15.6228 0 17.2761 0 19C0 19.2761 0.223857 19.5 0.5 19.5C0.776143 19.5 1 19.2761 1 19C1 17.5413 1.57946 16.1424 2.61091 15.1109C3.64236 14.0795 5.04131 13.5 6.5 13.5C6.77614 13.5 7 13.2761 7 13C7 12.7239 6.77614 12.5 6.5 12.5C5.57174 12.5 4.6815 12.1313 4.02513 11.4749C3.36875 10.8185 3 9.92826 3 9C3 8.07174 3.36875 7.1815 4.02513 6.52513C4.6815 5.86875 5.57174 5.5 6.5 5.5C6.77614 5.5 7 5.27614 7 5Z" fill="#FFAEEE"/>
</g>
<defs>
<clipPath id="clip0_935_426">
<rect width="24" height="24" fill="white"/>
</clipPath>
</defs>
</svg>
