<svg width="24" height="24" viewBox="0 0 24 24" fill="none" xmlns="http://www.w3.org/2000/svg">
<path fill-rule="evenodd" clip-rule="evenodd" d="M3.40381 14.4038C4.62279 13.1848 6.27609 12.5 8 12.5C9.72391 12.5 11.3772 13.1848 12.5962 14.4038C13.8152 15.6228 14.5 17.2761 14.5 19C14.5 19.2761 14.2761 19.5 14 19.5C13.7239 19.5 13.5 19.2761 13.5 19C13.5 17.5413 12.9205 16.1424 11.8891 15.1109C10.8576 14.0795 9.45869 13.5 8 13.5C6.54131 13.5 5.14236 14.0795 4.11091 15.1109C3.07946 16.1424 2.5 17.5413 2.5 19C2.5 19.2761 2.27614 19.5 2 19.5C1.72386 19.5 1.5 19.2761 1.5 19C1.5 17.2761 2.18482 15.6228 3.40381 14.4038Z" fill="#FFAEEE"/>
<path fill-rule="evenodd" clip-rule="evenodd" d="M8 5.5C6.067 5.5 4.5 7.067 4.5 9C4.5 10.933 6.067 12.5 8 12.5C9.933 12.5 11.5 10.933 11.5 9C11.5 7.067 9.933 5.5 8 5.5ZM3.5 9C3.5 6.51472 5.51472 4.5 8 4.5C10.4853 4.5 12.5 6.51472 12.5 9C12.5 11.4853 10.4853 13.5 8 13.5C5.51472 13.5 3.5 11.4853 3.5 9Z" fill="#FFAEEE"/>
<path fill-rule="evenodd" clip-rule="evenodd" d="M15.5 5C15.5 4.72386 15.7239 4.5 16 4.5C17.1935 4.5 18.3381 4.97411 19.182 5.81802C20.0259 6.66193 20.5 7.80653 20.5 9C20.5 10.1935 20.0259 11.3381 19.182 12.182C18.9001 12.4639 18.5846 12.7045 18.245 12.9C19.1201 13.2221 19.9242 13.7318 20.5962 14.4038C21.8152 15.6228 22.5 17.2761 22.5 19C22.5 19.2761 22.2761 19.5 22 19.5C21.7239 19.5 21.5 19.2761 21.5 19C21.5 17.5413 20.9205 16.1424 19.8891 15.1109C18.8576 14.0795 17.4587 13.5 16 13.5C15.7239 13.5 15.5 13.2761 15.5 13C15.5 12.7239 15.7239 12.5 16 12.5C16.9283 12.5 17.8185 12.1313 18.4749 11.4749C19.1313 10.8185 19.5 9.92826 19.5 9C19.5 8.07174 19.1313 7.1815 18.4749 6.52513C17.8185 5.86875 16.9283 5.5 16 5.5C15.7239 5.5 15.5 5.27614 15.5 5Z" fill="#FFAEEE"/>
</svg>
