<svg width="24" height="24" viewBox="0 0 24 24" fill="none" xmlns="http://www.w3.org/2000/svg">
<path fill-rule="evenodd" clip-rule="evenodd" d="M18 12.5C16.6193 12.5 15.5 13.6193 15.5 15C15.5 16.3807 16.6193 17.5 18 17.5C19.3807 17.5 20.5 16.3807 20.5 15C20.5 13.6193 19.3807 12.5 18 12.5ZM14.5 15C14.5 13.067 16.067 11.5 18 11.5C19.933 11.5 21.5 13.067 21.5 15C21.5 16.933 19.933 18.5 18 18.5C16.067 18.5 14.5 16.933 14.5 15Z" fill="#FFAEEE"/>
<path fill-rule="evenodd" clip-rule="evenodd" d="M9 3.5C7.067 3.5 5.5 5.067 5.5 7C5.5 8.933 7.067 10.5 9 10.5C10.933 10.5 12.5 8.933 12.5 7C12.5 5.067 10.933 3.5 9 3.5ZM4.5 7C4.5 4.51472 6.51472 2.5 9 2.5C11.4853 2.5 13.5 4.51472 13.5 7C13.5 9.48528 11.4853 11.5 9 11.5C6.51472 11.5 4.5 9.48528 4.5 7Z" fill="#FFAEEE"/>
<path fill-rule="evenodd" clip-rule="evenodd" d="M2.81802 15.818C3.66193 14.9741 4.80653 14.5 6 14.5H10C10.2761 14.5 10.5 14.7239 10.5 15C10.5 15.2761 10.2761 15.5 10 15.5H6C5.07174 15.5 4.1815 15.8687 3.52513 16.5251C2.86875 17.1815 2.5 18.0717 2.5 19V21C2.5 21.2761 2.27614 21.5 2 21.5C1.72386 21.5 1.5 21.2761 1.5 21V19C1.5 17.8065 1.97411 16.6619 2.81802 15.818Z" fill="#FFAEEE"/>
<path fill-rule="evenodd" clip-rule="evenodd" d="M20.3257 15.9419C20.413 15.6799 20.6961 15.5383 20.9581 15.6257L21.8581 15.9257C22.1201 16.013 22.2617 16.2961 22.1743 16.5581C22.087 16.8201 21.8039 16.9617 21.5419 16.8743L20.6419 16.5743C20.3799 16.487 20.2383 16.2039 20.3257 15.9419Z" fill="#FFAEEE"/>
<path fill-rule="evenodd" clip-rule="evenodd" d="M13.8257 13.4419C13.913 13.1799 14.1961 13.0383 14.4581 13.1257L15.3581 13.4257C15.6201 13.513 15.7617 13.7961 15.6743 14.0581C15.587 14.3201 15.3039 14.4617 15.0419 14.3743L14.1419 14.0743C13.8799 13.987 13.7383 13.7039 13.8257 13.4419Z" fill="#FFAEEE"/>
<path fill-rule="evenodd" clip-rule="evenodd" d="M17.0581 17.3257C17.3201 17.413 17.4617 17.6961 17.3743 17.9581L17.0743 18.8581C16.987 19.1201 16.7039 19.2617 16.4419 19.1743C16.1799 19.087 16.0383 18.8039 16.1257 18.5419L16.4257 17.6419C16.513 17.3799 16.7961 17.2383 17.0581 17.3257Z" fill="#FFAEEE"/>
<path fill-rule="evenodd" clip-rule="evenodd" d="M19.5581 10.8257C19.8201 10.913 19.9617 11.1961 19.8743 11.4581L19.5743 12.3581C19.487 12.6201 19.2039 12.7617 18.9419 12.6743C18.6799 12.587 18.5383 12.3039 18.6257 12.0419L18.9257 11.1419C19.013 10.8799 19.2961 10.7383 19.5581 10.8257Z" fill="#FFAEEE"/>
<path fill-rule="evenodd" clip-rule="evenodd" d="M19.0143 17.2358C19.2707 17.1332 19.5617 17.2579 19.6642 17.5143L20.0642 18.5143C20.1668 18.7707 20.0421 19.0617 19.7857 19.1642C19.5293 19.2668 19.2383 19.1421 19.1358 18.8857L18.7358 17.8857C18.6332 17.6293 18.7579 17.3383 19.0143 17.2358Z" fill="#FFAEEE"/>
<path fill-rule="evenodd" clip-rule="evenodd" d="M16.2143 10.8358C16.4707 10.7332 16.7617 10.8579 16.8642 11.1143L17.2642 12.1143C17.3668 12.3707 17.2421 12.6617 16.9857 12.7642C16.7293 12.8668 16.4383 12.7421 16.3358 12.4857L15.9358 11.4857C15.8332 11.2293 15.9579 10.9383 16.2143 10.8358Z" fill="#FFAEEE"/>
<path fill-rule="evenodd" clip-rule="evenodd" d="M15.7642 16.0143C15.8668 16.2707 15.7421 16.5617 15.4857 16.6642L14.4857 17.0642C14.2293 17.1668 13.9383 17.0421 13.8358 16.7857C13.7332 16.5293 13.8579 16.2383 14.1143 16.1358L15.1143 15.7358C15.3707 15.6332 15.6617 15.7579 15.7642 16.0143Z" fill="#FFAEEE"/>
<path fill-rule="evenodd" clip-rule="evenodd" d="M22.1642 13.2143C22.2668 13.4707 22.1421 13.7617 21.8857 13.8642L20.8857 14.2642C20.6293 14.3668 20.3383 14.2421 20.2358 13.9857C20.1332 13.7293 20.2579 13.4383 20.5143 13.3358L21.5143 12.9358C21.7707 12.8332 22.0617 12.9579 22.1642 13.2143Z" fill="#FFAEEE"/>
</svg>
