<svg width="20" height="20" viewBox="0 0 20 20" fill="none" xmlns="http://www.w3.org/2000/svg">
<path fill-rule="evenodd" clip-rule="evenodd" d="M12.5026 1.25C12.7327 1.25 12.9193 1.43655 12.9193 1.66667V3.33333C12.9193 3.56345 12.7327 3.75 12.5026 3.75C12.2725 3.75 12.0859 3.56345 12.0859 3.33333V1.66667C12.0859 1.43655 12.2725 1.25 12.5026 1.25Z" fill="white"/>
<path fill-rule="evenodd" clip-rule="evenodd" d="M12.5026 11.25C12.7327 11.25 12.9193 11.4365 12.9193 11.6667V13.3333C12.9193 13.5635 12.7327 13.75 12.5026 13.75C12.2725 13.75 12.0859 13.5635 12.0859 13.3333V11.6667C12.0859 11.4365 12.2725 11.25 12.5026 11.25Z" fill="white"/>
<path fill-rule="evenodd" clip-rule="evenodd" d="M6.2526 7.5C6.2526 7.26988 6.43915 7.08333 6.66927 7.08333H8.33594C8.56606 7.08333 8.7526 7.26988 8.7526 7.5C8.7526 7.73012 8.56606 7.91667 8.33594 7.91667H6.66927C6.43915 7.91667 6.2526 7.73012 6.2526 7.5Z" fill="white"/>
<path fill-rule="evenodd" clip-rule="evenodd" d="M16.2526 7.5C16.2526 7.26988 16.4392 7.08333 16.6693 7.08333H18.3359C18.5661 7.08333 18.7526 7.26988 18.7526 7.5C18.7526 7.73012 18.5661 7.91667 18.3359 7.91667H16.6693C16.4392 7.91667 16.2526 7.73012 16.2526 7.5Z" fill="white"/>
<path fill-rule="evenodd" clip-rule="evenodd" d="M14.5413 9.53871C14.704 9.37599 14.9678 9.37599 15.1306 9.53871L16.1306 10.5387C16.2933 10.7014 16.2933 10.9652 16.1306 11.128C15.9678 11.2907 15.704 11.2907 15.5413 11.128L14.5413 10.128C14.3786 9.96524 14.3786 9.70142 14.5413 9.53871Z" fill="white"/>
<path fill-rule="evenodd" clip-rule="evenodd" d="M16.1306 3.87204C16.2933 4.03476 16.2933 4.29858 16.1306 4.46129L15.1306 5.46129C14.9678 5.62401 14.704 5.62401 14.5413 5.46129C14.3786 5.29858 14.3786 5.03476 14.5413 4.87204L15.5413 3.87204C15.704 3.70932 15.9678 3.70932 16.1306 3.87204Z" fill="white"/>
<path fill-rule="evenodd" clip-rule="evenodd" d="M10.2972 9.70537C10.46 9.86809 10.46 10.1319 10.2972 10.2946L2.79723 17.7946C2.63451 17.9573 2.37069 17.9573 2.20798 17.7946C2.04526 17.6319 2.04526 17.3681 2.20798 17.2054L9.70798 9.70537C9.87069 9.54265 10.1345 9.54265 10.2972 9.70537Z" fill="white"/>
<path fill-rule="evenodd" clip-rule="evenodd" d="M8.87464 3.87204C9.03736 3.70932 9.30118 3.70932 9.4639 3.87204L10.4639 4.87204C10.6266 5.03476 10.6266 5.29858 10.4639 5.46129C10.3012 5.62401 10.0374 5.62401 9.87464 5.46129L8.87464 4.46129C8.71192 4.29858 8.71192 4.03476 8.87464 3.87204Z" fill="white"/>
</svg>
