<svg width="107" height="104" viewBox="0 0 107 104" fill="none" xmlns="http://www.w3.org/2000/svg">
<path fill-rule="evenodd" clip-rule="evenodd" d="M51.3289 1.62305L51.1845 10.6036L51.1917 10.5893L52.8955 10.6179L52.9533 6.97574L54.8665 7.00425C55.4152 7.0185 55.8051 7.13254 56.0217 7.35349C56.2383 7.57444 56.3393 7.9522 56.3321 8.47963L56.296 10.6749L58.0143 10.7034L58.0504 8.35846C58.0576 7.77401 57.9277 7.3036 57.6605 6.9401C57.3934 6.5766 57.0035 6.34853 56.4837 6.25587C56.9747 6.12045 57.3862 5.86386 57.7327 5.50036C58.0721 5.12974 58.2526 4.65933 58.2598 4.08913C58.267 3.33363 58.0143 2.74205 57.48 2.32866C56.9458 1.91527 56.2383 1.70145 55.3575 1.68719L51.3289 1.62305ZM56.5054 4.37423C56.4909 5.19388 55.9784 5.59302 54.9748 5.57877L52.975 5.55026L53.0183 3.07704L55.0181 3.10555C55.5091 3.11268 55.8845 3.22672 56.1372 3.44054C56.3899 3.65436 56.5054 3.96084 56.5054 4.37423Z" fill="#E5EEFF" fill-opacity="0.3"/>
<path d="M47.6107 11.0455L41.2863 12.6135L39.0698 3.90382L45.2066 2.37855L45.5603 3.76127L41.0769 4.87315L41.6184 6.99712L45.9141 5.92801L46.2679 7.32498L41.9721 8.3941L42.593 10.8174L47.2714 9.65565L47.6252 11.0384L47.6107 11.0455Z" fill="#E5EEFF" fill-opacity="0.3"/>
<path d="M22.1613 12.5636L28.9839 18.9569L28.9767 18.9641L30.9838 17.731L29.0128 11.4232C28.9262 11.1168 28.7818 10.7176 28.594 10.2187C28.8034 10.4539 28.9911 10.6535 29.1572 10.8245L29.4748 11.1382L34.1676 15.7852L36.1819 14.5522L33.424 5.67142L31.9007 6.60511L33.8067 12.3498C33.9583 12.8274 34.1532 13.3405 34.3842 13.8822C34.1027 13.5829 33.72 13.1909 33.2219 12.7062L28.9045 8.43686L26.818 9.71267L28.6735 15.493C28.8684 16.0703 29.0561 16.5835 29.2438 17.0325C28.8973 16.6548 28.5146 16.2628 28.0887 15.8494L23.7713 11.5801L22.1613 12.5636Z" fill="#E5EEFF" fill-opacity="0.3"/>
<path fill-rule="evenodd" clip-rule="evenodd" d="M20.7101 27.0466C19.9954 27.3174 19.2301 27.3815 18.4359 27.2176C17.6345 27.0608 16.8548 26.6688 16.0823 26.0416C15.3459 25.4429 14.8261 24.7658 14.5156 24.0174C14.2052 23.269 14.1113 22.5135 14.2413 21.7509C14.3712 20.9882 14.7034 20.2826 15.2448 19.6412C15.7863 18.9926 16.4289 18.5364 17.1653 18.2727C17.9089 18.009 18.6814 17.952 19.49 18.1016C20.2986 18.2584 21.0639 18.6291 21.7931 19.2278C22.5512 19.8479 23.0926 20.5321 23.3959 21.2876C23.6991 22.0431 23.7857 22.7915 23.6486 23.547C23.5114 24.3025 23.1576 25.0081 22.6161 25.6567C22.0674 26.3124 21.4393 26.7757 20.7174 27.0466H20.7101ZM22.1035 23.4187C22.1685 22.9412 22.0819 22.4565 21.8364 21.9647C21.5982 21.4729 21.2011 21.0096 20.6668 20.5677C20.1542 20.1472 19.6272 19.8692 19.0929 19.7196C18.5587 19.577 18.0533 19.577 17.5768 19.7196C17.1003 19.8621 16.696 20.1401 16.3494 20.5463C16.0101 20.9526 15.808 21.4016 15.7574 21.8792C15.7069 22.3567 15.8007 22.8414 16.0462 23.3332C16.2917 23.825 16.6743 24.2811 17.2014 24.7088C17.7356 25.1435 18.2699 25.4358 18.7969 25.5783C19.324 25.7209 19.8221 25.7209 20.2842 25.5783C20.7462 25.4358 21.1505 25.1578 21.4899 24.7515C21.8292 24.3453 22.0386 23.8962 22.1035 23.4187Z" fill="#E5EEFF" fill-opacity="0.3"/>
<path fill-rule="evenodd" clip-rule="evenodd" d="M6.95662 34.0457L15.2593 37.7163L15.9524 36.1839L12.6313 34.7157L13.4977 32.8055C13.902 31.9217 14.0247 31.1092 13.8731 30.3751C13.7215 29.6409 13.2161 29.085 12.3642 28.7072C11.5267 28.3366 10.7758 28.3366 10.1188 28.7001C9.46185 29.0636 8.9276 29.698 8.51607 30.6031L6.95662 34.0457ZM12.3497 31.0165C12.4508 31.3444 12.393 31.7435 12.1765 32.2211H12.1692L11.3029 34.1312L8.95647 33.0906L9.82284 31.1805C10.256 30.2325 10.8625 29.9332 11.6422 30.2824C12.0176 30.4463 12.2487 30.6887 12.3497 31.0165Z" fill="#E5EEFF" fill-opacity="0.3"/>
<path d="M104.264 59.3908L103.968 61.0444L96.4303 59.7329L95.9033 62.6908L94.481 62.4413L95.8311 54.8863L97.2533 55.1357L96.7263 58.0793L104.264 59.3908Z" fill="#E5EEFF" fill-opacity="0.3"/>
<path d="M12.523 55.0217L4.27089 59.4763L4.26367 59.4692L4.83403 61.7357L11.5195 61.8212C11.8444 61.8284 12.2703 61.8212 12.8118 61.7927C12.523 61.9139 12.2703 62.0279 12.0537 62.1348C11.9109 62.2054 11.8057 62.2604 11.7341 62.2978C11.6971 62.3172 11.6691 62.3318 11.6494 62.3415L5.72927 65.3208L6.29963 67.5873L15.7069 67.7156L15.2737 65.9979L9.15141 66.0264C8.64603 66.0264 8.09011 66.0478 7.4981 66.0977C7.87352 65.9266 8.37168 65.6843 8.98535 65.3636L14.429 62.6195L13.837 60.2675L7.70025 60.2389C7.07935 60.2389 6.53066 60.2603 6.03972 60.3031C6.509 60.0964 7.00716 59.8541 7.53419 59.5832L12.9778 56.8392L12.523 55.0217Z" fill="#E5EEFF" fill-opacity="0.3"/>
<path d="M12.7245 80.1874L12.7252 80.1886L12.7179 80.1957L12.7245 80.1874Z" fill="#E5EEFF" fill-opacity="0.3"/>
<path fill-rule="evenodd" clip-rule="evenodd" d="M12.7245 80.1874L11.7794 78.5493L13.4832 76.5607L11.57 73.2394L8.95647 73.6599L8.05401 72.099L17.815 70.8659L18.7753 72.5409L12.7245 80.1874ZM14.4723 75.3918L13.0861 72.9828L13.0934 72.9899L16.0679 72.4981C16.4938 72.434 16.862 72.3698 17.1653 72.3057C16.9342 72.5266 16.6888 72.8046 16.4216 73.1182L14.4723 75.3918Z" fill="#E5EEFF" fill-opacity="0.3"/>
<path d="M19.0929 87.4229L19.0897 87.4194L20.1614 86.475L17.1075 83.1108L22.8111 78.0646L21.6776 76.8102L14.9055 82.8044L19.0897 87.4194L19.0857 87.4229H19.0929Z" fill="#E5EEFF" fill-opacity="0.3"/>
<path d="M26.6907 93.4208L26.6953 93.4242H26.688L26.6907 93.4208Z" fill="#E5EEFF" fill-opacity="0.3"/>
<path d="M27.5616 92.291L26.6907 93.4208L21.692 89.6823L27.1862 82.5264L28.5435 83.5385L23.9157 89.5612L27.5616 92.291Z" fill="#E5EEFF" fill-opacity="0.3"/>
<path d="M35.6188 97.9786L29.742 95.1847L33.6839 87.0951L39.3875 89.8035L38.7594 91.0864L34.5936 89.105L33.6334 91.0793L37.6259 92.9752L36.9978 94.2724L33.0053 92.3765L31.9079 94.6288L36.2541 96.6886L35.626 97.9715L35.6188 97.9786Z" fill="#E5EEFF" fill-opacity="0.3"/>
<path d="M41.4812 99.7676L43.1345 100.167H43.1417L44.9611 92.8255L47.8995 93.5383L48.2388 92.1555L40.687 90.3309L40.3477 91.7136L43.3006 92.4264L41.4812 99.7676Z" fill="#E5EEFF" fill-opacity="0.3"/>
<path d="M50.874 100.986C50.217 100.594 49.7189 100.031 49.3795 99.3043C49.0402 98.5773 48.8814 97.7149 48.9103 96.71C48.9319 95.7691 49.1485 94.9495 49.56 94.2581C49.9716 93.5668 50.5203 93.0393 51.2206 92.6758C51.9209 92.3195 52.6934 92.1484 53.5525 92.1698C54.2889 92.1912 54.9459 92.3409 55.5235 92.6259C56.1011 92.911 56.5631 93.3102 56.9097 93.8305C57.2562 94.3508 57.4584 94.9566 57.5161 95.6622L55.7473 95.6195C55.6751 95.0208 55.4513 94.5361 55.0614 94.1726C54.6788 93.8091 54.159 93.6167 53.5092 93.6024C52.975 93.5882 52.4912 93.7093 52.0653 93.9588C51.6393 94.2082 51.3 94.5717 51.0545 95.0564C50.8091 95.5411 50.6791 96.1113 50.6574 96.767C50.643 97.4512 50.7441 98.0499 50.9607 98.5631C51.1845 99.0763 51.4949 99.4754 51.8992 99.7534C52.3035 100.031 52.7728 100.181 53.2998 100.195C53.9568 100.21 54.5055 100.038 54.9532 99.6678C55.3936 99.2972 55.6751 98.8125 55.7834 98.2067L57.4873 98.2495C57.3934 98.9408 57.1624 99.5467 56.7942 100.06C56.4332 100.573 55.9423 100.972 55.3286 101.243C54.7149 101.514 54.0074 101.642 53.2132 101.621C52.3107 101.599 51.531 101.393 50.874 100.994V100.986Z" fill="#E5EEFF" fill-opacity="0.3"/>
<path fill-rule="evenodd" clip-rule="evenodd" d="M61.0538 99.1475C61.5808 99.7605 62.2162 100.174 62.9526 100.395C63.689 100.616 64.4759 100.637 65.3134 100.452C66.1509 100.274 66.8584 99.9244 67.4432 99.4184C68.028 98.9123 68.4251 98.2709 68.6561 97.4868C68.8872 96.7028 68.8872 95.8404 68.6778 94.8853C68.4684 93.973 68.1002 93.2104 67.5587 92.5974C67.0173 91.9845 66.3747 91.564 65.6239 91.3216C64.873 91.0864 64.0861 91.0579 63.2558 91.2361C62.4255 91.4143 61.7252 91.7707 61.1477 92.291C60.5773 92.8113 60.1802 93.467 59.9564 94.2439C59.7398 95.0208 59.7326 95.8689 59.9347 96.7884C60.1513 97.7506 60.5195 98.5346 61.0538 99.1475ZM67.0173 97.0735C66.9018 97.6009 66.6635 98.0357 66.317 98.3778L66.3097 98.3849C65.956 98.7199 65.5156 98.948 64.9958 99.062C64.4759 99.1761 63.985 99.1547 63.5302 98.9836C63.0753 98.8197 62.6782 98.5203 62.3533 98.0784C62.0285 97.6365 61.7902 97.0877 61.6386 96.4177C61.4942 95.7691 61.4798 95.1704 61.5881 94.6359C61.7036 94.0942 61.9274 93.6594 62.2667 93.3102C62.606 92.9609 63.0392 92.7329 63.5662 92.6188C64.0933 92.5048 64.5915 92.5333 65.0535 92.7115C65.5228 92.8825 65.9199 93.189 66.252 93.6309C66.5841 94.0728 66.8223 94.6145 66.9667 95.256C67.1183 95.9331 67.1328 96.546 67.0173 97.0735Z" fill="#E5EEFF" fill-opacity="0.3"/>
<path d="M73.6161 97.8147L73.6146 97.8118L75.125 97.0521L72.3382 91.6424C72.1144 91.2005 71.905 90.837 71.7173 90.5447L78.872 95.1704L80.8646 94.1726L76.7422 86.1685L75.2261 86.9311L77.7169 91.7564C77.9695 92.2482 78.1934 92.6402 78.3811 92.9324L71.775 88.6631L69.4936 89.8106L73.6146 97.8118L73.6088 97.8147H73.6161Z" fill="#E5EEFF" fill-opacity="0.3"/>
<path d="M78.7348 84.8214L84.7633 91.5497L86.0412 90.4378L81.9693 85.8905C81.6372 85.5199 81.3411 85.2206 81.0885 84.9854L89.189 87.6938L90.8639 86.2327L84.8355 79.5044L83.5576 80.6162L87.1891 84.6717C87.5645 85.0923 87.8822 85.413 88.1349 85.6482L80.6553 83.1465L78.7348 84.8214Z" fill="#E5EEFF" fill-opacity="0.3"/>
<path d="M97.5999 77.5443L97.5965 77.5491L96.4231 76.7247L93.6291 80.6091L91.5642 79.1623L94.1272 75.5985L92.9432 74.7646L90.3802 78.3283L88.5681 77.0597L91.2466 73.332L90.0698 72.5052L86.4094 77.6013L93.824 82.7972L97.5965 77.5491L97.5999 77.5515V77.5443Z" fill="#E5EEFF" fill-opacity="0.3"/>
<path d="M97.7226 73.332C98.5312 73.2821 99.246 73.0255 99.8524 72.5623V72.5551C100.466 72.0918 100.943 71.4504 101.289 70.6307C101.6 69.9037 101.737 69.2124 101.701 68.5495C101.665 67.8867 101.47 67.2951 101.116 66.7748C100.762 66.2545 100.271 65.8197 99.6575 65.4847L99.0005 67.0385C99.5276 67.3592 99.8885 67.7869 100.076 68.3286C100.264 68.8703 100.228 69.4404 99.9752 70.0392C99.7658 70.5167 99.4626 70.8944 99.0511 71.1653C98.6395 71.4361 98.1486 71.5858 97.5855 71.6001C97.0223 71.6143 96.4231 71.4932 95.7805 71.2294C95.1669 70.9728 94.6759 70.645 94.3077 70.2458C93.9395 69.8467 93.7157 69.4048 93.6363 68.9201C93.5569 68.4355 93.6146 67.9508 93.824 67.459C94.0767 66.8675 94.4449 66.4612 94.9286 66.2402C95.4123 66.0193 95.9538 65.9837 96.5458 66.1333L97.2245 64.5225C96.5386 64.323 95.8888 64.2945 95.2752 64.4227C94.6615 64.5582 94.1128 64.8361 93.6363 65.2638C93.1598 65.6914 92.7771 66.2402 92.4956 66.9102C92.1635 67.6942 92.0407 68.464 92.1274 69.2409C92.214 70.0178 92.51 70.7163 93.0226 71.3435C93.528 71.9707 94.2211 72.4625 95.1019 72.826C96.0404 73.2109 96.914 73.3819 97.7226 73.332Z" fill="#E5EEFF" fill-opacity="0.3"/>
<path d="M68.158 12.8345L61.8407 11.2166L64.1294 2.5211L70.2517 4.08913L69.8907 5.46473L65.4145 4.31721L64.8586 6.44118L69.1471 7.53881L68.7789 8.92865L64.4904 7.83103L63.855 10.2544L68.519 11.4518L68.158 12.8274V12.8345Z" fill="#E5EEFF" fill-opacity="0.3"/>
<path d="M71.5255 14.1334L71.5224 14.1388V14.1317L71.5255 14.1334Z" fill="#E5EEFF" fill-opacity="0.3"/>
<path fill-rule="evenodd" clip-rule="evenodd" d="M71.5255 14.1334L76.0274 6.33427L78.8287 7.90943C80.1715 8.66494 81.009 9.58438 81.3484 10.6606C81.6877 11.7369 81.4928 12.9129 80.7636 14.1744C80.3087 14.9656 79.7528 15.5572 79.103 15.9634C78.4533 16.3697 77.7169 16.555 76.9082 16.5265C76.0996 16.498 75.2477 16.2271 74.3597 15.7282L71.5255 14.1334ZM77.3703 14.9014C76.6267 15.0796 75.8253 14.9228 74.9661 14.4381H74.9734L73.7171 13.7325L76.7927 8.40122L78.0345 9.09971C78.9298 9.60576 79.4785 10.2258 79.6806 10.9528C79.8828 11.6798 79.7384 12.471 79.2474 13.3263C78.7348 14.2029 78.1139 14.7232 77.3703 14.9014Z" fill="#E5EEFF" fill-opacity="0.3"/>
<path fill-rule="evenodd" clip-rule="evenodd" d="M84.9293 23.7965L92.1057 18.2727L94.4738 21.2662C95.0513 21.9932 95.3618 22.6917 95.4195 23.3617C95.4773 24.0317 95.1885 24.6018 94.5676 25.0794C94.1489 25.4001 93.7085 25.5355 93.2464 25.4785C92.7844 25.4215 92.3367 25.2362 91.9108 24.9155C92.1923 25.4785 92.3006 26.0202 92.2284 26.5334C92.1562 27.0466 91.8963 27.4813 91.4343 27.8377C90.7267 28.3865 89.9976 28.5219 89.2467 28.2511C88.5031 27.9802 87.81 27.4457 87.1819 26.6474L84.9293 23.7965ZM88.3587 25.8206C89.0734 26.7258 89.7737 26.9111 90.4524 26.3908C90.8062 26.12 90.9794 25.8064 90.965 25.4643C90.9506 25.1222 90.7628 24.7159 90.3946 24.2526L89.1312 22.6561L87.0952 24.2241L88.3587 25.8206ZM91.4487 23.326C92.0913 24.1386 92.7122 24.3096 93.3186 23.8392C93.8817 23.4116 93.8384 22.7844 93.2031 21.979L91.9974 20.4537L90.243 21.8008L91.4487 23.326Z" fill="#E5EEFF" fill-opacity="0.3"/>
<path d="M91.9423 34.3938L91.9397 34.3949V34.3878L91.9423 34.3938Z" fill="#E5EEFF" fill-opacity="0.3"/>
<path d="M95.3257 32.9409L91.9423 34.3938L92.6255 35.9416L96.0116 34.4876L102.343 35.4712L101.556 33.6964L97.9609 33.2617C97.4988 33.2189 97.1739 33.1904 96.9934 33.1904C97.1811 32.9766 97.3833 32.72 97.5927 32.4278L99.7225 29.5483L98.9067 27.7023L95.3257 32.9409Z" fill="#E5EEFF" fill-opacity="0.3"/>
<path d="M37.1407 38.6572C46.6005 29.2783 61.9334 29.2783 71.3932 38.6572L72.5299 39.7891C73.0003 40.259 73.0003 41.0202 72.5299 41.4901L68.6363 45.3489C68.4011 45.5806 68.0156 45.5806 67.7805 45.3489L66.2125 43.7935C59.6142 37.2541 48.9131 37.2541 42.3148 43.7935L40.6358 45.4548C40.4006 45.6865 40.0152 45.6865 39.78 45.4548L35.8863 41.596C35.416 41.1261 35.416 40.3649 35.8863 39.895L37.1341 38.6572H37.1407ZM79.4484 46.6396L82.9109 50.0748C83.3813 50.5447 83.3813 51.3059 82.9109 51.7758L67.2839 67.2706C66.8136 67.7405 66.0427 67.7405 65.5723 67.2706L54.4793 56.2767C54.3617 56.1575 54.1722 56.1575 54.0481 56.2767L42.955 67.2706C42.4847 67.7405 41.7138 67.7405 41.2434 67.2706L25.6165 51.7758C25.1461 51.3059 25.1461 50.5447 25.6165 50.0748L29.0789 46.6396C29.5493 46.1696 30.3202 46.1696 30.7906 46.6396L41.8836 57.6335C42.0012 57.7527 42.1907 57.7527 42.3148 57.6335L53.4078 46.6396C53.8782 46.1696 54.6491 46.1696 55.1195 46.6396L66.2125 57.6401C66.3301 57.7593 66.5196 57.7593 66.6437 57.6401L77.7368 46.6462C78.2071 46.1763 78.978 46.1763 79.4484 46.6462V46.6396Z" fill="#5570FF"/>
</svg>
