<svg width="228" height="228" viewBox="0 0 228 228" fill="none" xmlns="http://www.w3.org/2000/svg">
<circle cx="114" cy="114" r="114" fill="#CAFF94"/>
<path d="M86.6 110.969L111.738 126.394C113.41 127.426 115.605 127.426 117.277 126.394L142.415 110.969L159.003 99.7155C160.951 98.3924 161.562 95.9644 160.443 93.9872L153.871 82.4434C152.606 80.2189 149.611 79.3611 147.183 80.5097L116.797 94.9467C115.358 95.6301 113.657 95.6301 112.217 94.9467L81.8313 80.5242C79.4033 79.3757 76.4083 80.2335 75.1434 82.4579L68.5574 93.9872C67.4379 95.9644 68.0485 98.3779 69.9967 99.7155L86.5855 110.969H86.6Z" fill="#140901"/>
<path d="M118.803 168.033L148.288 139.974C150.484 138.142 150.992 135.147 149.495 132.791L145.555 126.598C144.116 124.33 140.859 123.646 138.474 125.129L117.306 138.272C115.619 139.319 113.41 139.319 111.723 138.272L90.5545 125.129C88.1702 123.646 84.9135 124.33 83.4741 126.598L79.5341 132.791C78.0366 135.147 78.5309 138.127 80.7408 139.974L110.226 168.033C112.654 170.069 116.375 170.069 118.803 168.033Z" fill="#140901"/>
<path d="M95.0762 66.6251L112.232 58.5125C113.657 57.8292 115.372 57.8292 116.797 58.5125L133.953 66.6251C137.529 68.3117 137.529 72.9786 133.953 74.6651L116.797 82.7778C115.372 83.4611 113.657 83.4611 112.232 82.7778L95.0762 74.6651C91.4996 72.9786 91.4996 68.3117 95.0762 66.6251Z" fill="#140901"/>
</svg>
