<svg width="144" height="29" viewBox="0 0 144 29" fill="none" xmlns="http://www.w3.org/2000/svg">
<path d="M72.1814 7.45134C72.1814 7.44763 72.1844 7.44462 72.1881 7.44462H72.3524C72.4469 7.44462 72.5235 7.5212 72.5235 7.61568V11.7173C72.5235 11.921 72.5235 12.0229 72.487 12.0954C72.4531 12.1628 72.4072 12.2095 72.3405 12.2446C72.2686 12.2823 72.1585 12.2843 71.9382 12.2882C69.5132 12.3314 67.4484 13.6653 66.1847 15.5653C66.09 15.7077 66.0427 15.7788 65.8617 16.1941C65.7561 16.4366 65.5604 17.0844 65.514 17.3448C65.4347 17.7908 65.4347 18.057 65.4347 18.5895V27.6299C65.4347 27.8215 65.4347 27.9173 65.3974 27.9905C65.3646 28.0549 65.3122 28.1072 65.2479 28.14C65.1747 28.1773 65.0789 28.1773 64.8873 28.1773H60.9323C60.7407 28.1773 60.6449 28.1773 60.5717 28.14C60.5074 28.1072 60.455 28.0549 60.4222 27.9905C60.3849 27.9173 60.3849 27.8215 60.3849 27.6299V8.42993C60.3849 8.23833 60.3849 8.14252 60.4222 8.06934C60.455 8.00496 60.5074 7.95262 60.5717 7.91982C60.6449 7.88253 60.7407 7.88253 60.9323 7.88253H64.8873C65.0789 7.88253 65.1747 7.88253 65.2479 7.91982C65.3122 7.95262 65.3646 8.00496 65.3974 8.06934C65.4347 8.14252 65.4347 8.23833 65.4347 8.42993V10.183C65.4347 10.7931 65.4347 11.0982 65.504 11.1722C65.5695 11.2422 65.6446 11.2667 65.7387 11.249C65.8384 11.2302 66.0295 10.9691 66.4117 10.4469C67.737 8.63622 69.7508 7.37595 72.1743 7.45806C72.1781 7.45819 72.1814 7.45514 72.1814 7.45134ZM30.0773 7.88253C29.9377 7.88253 29.8679 7.88254 29.8083 7.90566C29.7556 7.92609 29.7087 7.95924 29.672 8.00218C29.6304 8.05079 29.6072 8.11663 29.5609 8.24832L25.4185 20.0264C25.2558 20.489 25.1745 20.7202 25.0563 20.7828C24.9541 20.837 24.8314 20.8359 24.7302 20.7798C24.6133 20.7149 24.5363 20.4822 24.3824 20.0167L20.4943 8.25808C20.4496 8.12306 20.4273 8.05555 20.3857 8.00563C20.349 7.96154 20.3017 7.92741 20.2483 7.90636C20.1879 7.88254 20.1168 7.88253 19.9746 7.88253H15.1502C15.0096 7.88253 14.9392 7.88253 14.8792 7.90595C14.8262 7.92663 14.7793 7.96019 14.7425 8.00359C14.7009 8.05274 14.6781 8.11927 14.6324 8.25233L10.5846 20.0535C10.4259 20.5163 10.3465 20.7476 10.229 20.8112C10.1273 20.8662 10.0047 20.8661 9.90304 20.8109C9.7856 20.7471 9.70665 20.5156 9.54875 20.0526L5.52518 8.25326C5.4797 8.11988 5.45696 8.0532 5.41535 8.00392C5.3786 7.96041 5.33157 7.92675 5.27852 7.90602C5.21845 7.88253 5.148 7.88253 5.00708 7.88253H0.637504C0.370657 7.88253 0.237233 7.88253 0.151773 7.9386C0.0770197 7.98764 0.0244335 8.064 0.00526995 8.15133C-0.0166382 8.25116 0.0309369 8.37581 0.126087 8.62512L7.45393 27.8251C7.50242 27.9521 7.52666 28.0157 7.56823 28.0624C7.60495 28.1038 7.65115 28.1356 7.70286 28.1552C7.76139 28.1773 7.82938 28.1773 7.96535 28.1773H11.8236C11.9595 28.1773 12.0274 28.1773 12.0859 28.1552C12.1375 28.1357 12.1837 28.1039 12.2204 28.0626C12.262 28.0159 12.2863 27.9525 12.3348 27.8257L17.0058 15.626C17.1662 15.207 17.2464 14.9975 17.3616 14.9376C17.4615 14.8857 17.5805 14.8862 17.6799 14.9389C17.7946 14.9998 17.873 15.21 18.0298 15.6304L22.5774 27.8212C22.6253 27.9496 22.6492 28.0138 22.6908 28.0611C22.7276 28.1029 22.7739 28.1351 22.8259 28.1549C22.8848 28.1773 22.9533 28.1773 23.0903 28.1773H26.9479C27.0829 28.1773 27.1504 28.1773 27.2087 28.1554C27.2601 28.1361 27.3061 28.1046 27.3428 28.0637C27.3844 28.0174 27.4089 27.9545 27.4579 27.8287L34.9411 8.62872C35.0387 8.37844 35.0875 8.2533 35.066 8.15297C35.0472 8.06523 34.9946 7.98838 34.9197 7.939C34.834 7.88253 34.6997 7.88253 34.4311 7.88253H30.0773ZM120.004 12.5902C120 12.5902 119.998 12.5935 120 12.5964C120.764 14.2052 121.088 16.4078 120.984 18.7722C120.976 18.9472 120.972 19.0348 120.934 19.1047C120.9 19.1651 120.847 19.2163 120.785 19.2468C120.713 19.2821 120.624 19.2821 120.444 19.2821H104.378C104.161 19.2821 104.052 19.2821 103.97 19.3324C103.902 19.3739 103.844 19.4504 103.821 19.5266C103.793 19.6189 103.819 19.7153 103.87 19.908C104.631 22.77 107.364 24.435 110.431 24.3455C112.714 24.3455 114.974 23.561 115.832 21.6291C115.943 21.3808 115.998 21.2566 116.06 21.1919C116.122 21.1268 116.172 21.0947 116.257 21.0641C116.341 21.0338 116.452 21.0338 116.673 21.0338H120.31C120.518 21.0338 120.622 21.0338 120.701 21.0793C120.767 21.1175 120.825 21.1853 120.851 21.2574C120.883 21.343 120.867 21.4399 120.834 21.6335C119.638 28.6926 110.001 30.0324 104.382 27.3425C100.673 25.5909 98.5249 22.2654 98.5523 18.0778C98.5249 13.9587 100.591 10.5237 104.245 8.74469C109.279 6.39173 117.541 6.89685 120.008 12.5839C120.009 12.5868 120.007 12.5902 120.004 12.5902ZM115.205 15.683C115.419 15.683 115.526 15.683 115.609 15.6319C115.676 15.5905 115.736 15.5111 115.758 15.4353C115.785 15.3419 115.759 15.2492 115.707 15.0638C114.372 10.3083 106.146 10.7542 104.261 15.013C104.176 15.2033 104.134 15.2985 104.153 15.4019C104.168 15.4848 104.228 15.5766 104.297 15.6239C104.384 15.683 104.502 15.683 104.736 15.683H115.205ZM90.8613 0.547397C90.8613 0.35579 90.8613 0.259987 90.8986 0.186803C90.9314 0.122428 90.9837 0.0700898 91.0481 0.0372893C91.1213 0 91.2171 0 91.4087 0H95.4047C95.5963 0 95.6921 0 95.7653 0.0372893C95.8297 0.0700898 95.882 0.122428 95.9148 0.186803C95.9521 0.259987 95.9521 0.355791 95.9521 0.547398V27.6299C95.9521 27.8215 95.9521 27.9173 95.9148 27.9905C95.882 28.0549 95.8297 28.1072 95.7653 28.14C95.6921 28.1773 95.5963 28.1773 95.4047 28.1773H91.4087C91.2171 28.1773 91.1213 28.1773 91.0481 28.14C90.9837 28.1072 90.9314 28.0549 90.8986 27.9905C90.8613 27.9173 90.8613 27.8215 90.8613 27.6299V25.3563C90.8613 24.7743 90.8613 24.4833 90.7909 24.409C90.7253 24.3399 90.647 24.3152 90.5537 24.3342C90.4534 24.3545 90.2774 24.6056 89.9254 25.1077C84.7605 32.4759 72.3629 27.5423 72.8245 18.0778C72.7972 14.1776 74.5078 10.729 77.7374 8.79943C81.3322 6.65435 87.0079 6.96576 89.7726 10.197C90.2399 10.7431 90.4735 11.0162 90.5707 11.0292C90.6666 11.042 90.7314 11.0181 90.7959 10.946C90.8613 10.8729 90.8613 10.5432 90.8613 9.88369V0.547397ZM90.8613 18.0641C91.1761 9.59315 77.6416 9.49736 77.9975 18.0641C77.7785 26.412 91.1213 26.3435 90.8613 18.0641ZM143.405 11.947C143.408 11.947 143.41 11.9436 143.409 11.9405C141.133 6.19148 132.578 6.16706 128.93 10.5408C128.526 11.0253 128.324 11.2676 128.227 11.2815C128.133 11.2949 128.064 11.2699 128 11.1994C127.934 11.1261 127.934 10.8329 127.934 10.2466V8.42993C127.934 8.23833 127.934 8.14252 127.897 8.06934C127.864 8.00496 127.811 7.95262 127.747 7.91982C127.674 7.88253 127.578 7.88253 127.386 7.88253H123.432C123.24 7.88253 123.144 7.88253 123.071 7.91982C123.007 7.95262 122.954 8.00496 122.921 8.06934C122.884 8.14252 122.884 8.23833 122.884 8.42993V27.6299C122.884 27.8215 122.884 27.9173 122.921 27.9905C122.954 28.0549 123.007 28.1072 123.071 28.14C123.144 28.1773 123.24 28.1773 123.432 28.1773H127.386C127.578 28.1773 127.674 28.1773 127.747 28.14C127.811 28.1072 127.864 28.0549 127.897 27.9905C127.934 27.9173 127.934 27.8215 127.934 27.6299C127.934 27.6299 127.934 25.2659 127.934 18.1676C127.934 11.0694 138.988 9.7371 138.95 16.2988C138.925 20.7238 138.95 27.6299 138.95 27.6299C138.95 27.8215 138.95 27.9173 138.988 27.9905C139.02 28.0549 139.073 28.1072 139.137 28.14C139.21 28.1773 139.306 28.1773 139.498 28.1773H143.453C143.644 28.1773 143.74 28.1773 143.813 28.14C143.878 28.1072 143.93 28.0549 143.963 27.9905C144 27.9173 144 27.8215 144 27.6299V15.4229C144 14.0984 143.796 12.9373 143.4 11.9533C143.399 11.9503 143.401 11.947 143.405 11.947ZM52.4613 8.42993C52.4613 8.23833 52.4613 8.14252 52.4986 8.06934C52.5314 8.00496 52.5838 7.95262 52.6481 7.91982C52.7213 7.88253 52.8171 7.88253 53.0087 7.88253H57.0047C57.1963 7.88253 57.2921 7.88253 57.3653 7.91982C57.4297 7.95262 57.482 8.00496 57.5148 8.06934C57.5521 8.14252 57.5521 8.23833 57.5521 8.42993V27.6299C57.5521 27.8215 57.5521 27.9173 57.5148 27.9905C57.482 28.0549 57.4297 28.1072 57.3653 28.14C57.2921 28.1773 57.1963 28.1773 57.0047 28.1773H53.0087C52.8171 28.1773 52.7213 28.1773 52.6481 28.14C52.5838 28.1072 52.5314 28.0549 52.4986 27.9905C52.4613 27.9173 52.4613 27.8215 52.4613 27.6299V25.3807C52.4613 24.7914 52.4613 24.4968 52.3909 24.4225C52.3251 24.3533 52.2471 24.3287 52.1536 24.3477C52.0533 24.3681 51.8749 24.6228 51.5183 25.1322C46.3811 32.4695 33.9506 27.4684 34.4246 18.0778C34.3835 14.1229 36.2447 10.7016 39.5564 8.79943C43.1632 6.71997 48.656 6.94007 51.3678 10.0918C51.8387 10.639 52.0741 10.9127 52.1712 10.9254C52.2672 10.9381 52.3315 10.9142 52.3961 10.842C52.4613 10.769 52.4613 10.4384 52.4613 9.77714V8.42993ZM52.4613 18.0641C52.8035 9.63421 39.228 9.5521 39.5975 18.0641C39.3785 26.412 52.7213 26.3435 52.4613 18.0641Z" fill="black"/>
<path d="M72.1814 7.45134C72.1814 7.44763 72.1844 7.44462 72.1881 7.44462H72.3524C72.4469 7.44462 72.5235 7.5212 72.5235 7.61568V11.7173C72.5235 11.921 72.5235 12.0229 72.487 12.0954C72.4531 12.1628 72.4072 12.2095 72.3405 12.2446C72.2686 12.2823 72.1585 12.2843 71.9382 12.2882C69.5132 12.3314 67.4484 13.6653 66.1847 15.5653C66.09 15.7077 66.0427 15.7788 65.8617 16.1941C65.7561 16.4366 65.5604 17.0844 65.514 17.3448C65.4347 17.7908 65.4347 18.057 65.4347 18.5895V27.6299C65.4347 27.8215 65.4347 27.9173 65.3974 27.9905C65.3646 28.0549 65.3122 28.1072 65.2479 28.14C65.1747 28.1773 65.0789 28.1773 64.8873 28.1773H60.9323C60.7407 28.1773 60.6449 28.1773 60.5717 28.14C60.5074 28.1072 60.455 28.0549 60.4222 27.9905C60.3849 27.9173 60.3849 27.8215 60.3849 27.6299V8.42993C60.3849 8.23833 60.3849 8.14252 60.4222 8.06934C60.455 8.00496 60.5074 7.95262 60.5717 7.91982C60.6449 7.88253 60.7407 7.88253 60.9323 7.88253H64.8873C65.0789 7.88253 65.1747 7.88253 65.2479 7.91982C65.3122 7.95262 65.3646 8.00496 65.3974 8.06934C65.4347 8.14252 65.4347 8.23833 65.4347 8.42993V10.183C65.4347 10.7931 65.4347 11.0982 65.504 11.1722C65.5695 11.2422 65.6446 11.2667 65.7387 11.249C65.8384 11.2302 66.0295 10.9691 66.4117 10.4469C67.737 8.63622 69.7508 7.37595 72.1743 7.45806C72.1781 7.45819 72.1814 7.45514 72.1814 7.45134ZM30.0773 7.88253C29.9377 7.88253 29.8679 7.88254 29.8083 7.90566C29.7556 7.92609 29.7087 7.95924 29.672 8.00218C29.6304 8.05079 29.6072 8.11663 29.5609 8.24832L25.4185 20.0264C25.2558 20.489 25.1745 20.7202 25.0563 20.7828C24.9541 20.837 24.8314 20.8359 24.7302 20.7798C24.6133 20.7149 24.5363 20.4822 24.3824 20.0167L20.4943 8.25808C20.4496 8.12306 20.4273 8.05555 20.3857 8.00563C20.349 7.96154 20.3017 7.92741 20.2483 7.90636C20.1879 7.88254 20.1168 7.88253 19.9746 7.88253H15.1502C15.0096 7.88253 14.9392 7.88253 14.8792 7.90595C14.8262 7.92663 14.7793 7.96019 14.7425 8.00359C14.7009 8.05274 14.6781 8.11927 14.6324 8.25233L10.5846 20.0535C10.4259 20.5163 10.3465 20.7476 10.229 20.8112C10.1273 20.8662 10.0047 20.8661 9.90304 20.8109C9.7856 20.7471 9.70665 20.5156 9.54875 20.0526L5.52518 8.25326C5.4797 8.11988 5.45696 8.0532 5.41535 8.00392C5.3786 7.96041 5.33157 7.92675 5.27852 7.90602C5.21845 7.88253 5.148 7.88253 5.00708 7.88253H0.637504C0.370657 7.88253 0.237233 7.88253 0.151773 7.9386C0.0770197 7.98764 0.0244335 8.064 0.00526995 8.15133C-0.0166382 8.25116 0.0309369 8.37581 0.126087 8.62512L7.45393 27.8251C7.50242 27.9521 7.52666 28.0157 7.56823 28.0624C7.60495 28.1038 7.65115 28.1356 7.70286 28.1552C7.76139 28.1773 7.82938 28.1773 7.96535 28.1773H11.8236C11.9595 28.1773 12.0274 28.1773 12.0859 28.1552C12.1375 28.1357 12.1837 28.1039 12.2204 28.0626C12.262 28.0159 12.2863 27.9525 12.3348 27.8257L17.0058 15.626C17.1662 15.207 17.2464 14.9975 17.3616 14.9376C17.4615 14.8857 17.5805 14.8862 17.6799 14.9389C17.7946 14.9998 17.873 15.21 18.0298 15.6304L22.5774 27.8212C22.6253 27.9496 22.6492 28.0138 22.6908 28.0611C22.7276 28.1029 22.7739 28.1351 22.8259 28.1549C22.8848 28.1773 22.9533 28.1773 23.0903 28.1773H26.9479C27.0829 28.1773 27.1504 28.1773 27.2087 28.1554C27.2601 28.1361 27.3061 28.1046 27.3428 28.0637C27.3844 28.0174 27.4089 27.9545 27.4579 27.8287L34.9411 8.62872C35.0387 8.37844 35.0875 8.2533 35.066 8.15297C35.0472 8.06523 34.9946 7.98838 34.9197 7.939C34.834 7.88253 34.6997 7.88253 34.4311 7.88253H30.0773ZM120.004 12.5902C120 12.5902 119.998 12.5935 120 12.5964C120.764 14.2052 121.088 16.4078 120.984 18.7722C120.976 18.9472 120.972 19.0348 120.934 19.1047C120.9 19.1651 120.847 19.2163 120.785 19.2468C120.713 19.2821 120.624 19.2821 120.444 19.2821H104.378C104.161 19.2821 104.052 19.2821 103.97 19.3324C103.902 19.3739 103.844 19.4504 103.821 19.5266C103.793 19.6189 103.819 19.7153 103.87 19.908C104.631 22.77 107.364 24.435 110.431 24.3455C112.714 24.3455 114.974 23.561 115.832 21.6291C115.943 21.3808 115.998 21.2566 116.06 21.1919C116.122 21.1268 116.172 21.0947 116.257 21.0641C116.341 21.0338 116.452 21.0338 116.673 21.0338H120.31C120.518 21.0338 120.622 21.0338 120.701 21.0793C120.767 21.1175 120.825 21.1853 120.851 21.2574C120.883 21.343 120.867 21.4399 120.834 21.6335C119.638 28.6926 110.001 30.0324 104.382 27.3425C100.673 25.5909 98.5249 22.2654 98.5523 18.0778C98.5249 13.9587 100.591 10.5237 104.245 8.74469C109.279 6.39173 117.541 6.89685 120.008 12.5839C120.009 12.5868 120.007 12.5902 120.004 12.5902ZM115.205 15.683C115.419 15.683 115.526 15.683 115.609 15.6319C115.676 15.5905 115.736 15.5111 115.758 15.4353C115.785 15.3419 115.759 15.2492 115.707 15.0638C114.372 10.3083 106.146 10.7542 104.261 15.013C104.176 15.2033 104.134 15.2985 104.153 15.4019C104.168 15.4848 104.228 15.5766 104.297 15.6239C104.384 15.683 104.502 15.683 104.736 15.683H115.205ZM90.8613 0.547397C90.8613 0.35579 90.8613 0.259987 90.8986 0.186803C90.9314 0.122428 90.9837 0.0700898 91.0481 0.0372893C91.1213 0 91.2171 0 91.4087 0H95.4047C95.5963 0 95.6921 0 95.7653 0.0372893C95.8297 0.0700898 95.882 0.122428 95.9148 0.186803C95.9521 0.259987 95.9521 0.355791 95.9521 0.547398V27.6299C95.9521 27.8215 95.9521 27.9173 95.9148 27.9905C95.882 28.0549 95.8297 28.1072 95.7653 28.14C95.6921 28.1773 95.5963 28.1773 95.4047 28.1773H91.4087C91.2171 28.1773 91.1213 28.1773 91.0481 28.14C90.9837 28.1072 90.9314 28.0549 90.8986 27.9905C90.8613 27.9173 90.8613 27.8215 90.8613 27.6299V25.3563C90.8613 24.7743 90.8613 24.4833 90.7909 24.409C90.7253 24.3399 90.647 24.3152 90.5537 24.3342C90.4534 24.3545 90.2774 24.6056 89.9254 25.1077C84.7605 32.4759 72.3629 27.5423 72.8245 18.0778C72.7972 14.1776 74.5078 10.729 77.7374 8.79943C81.3322 6.65435 87.0079 6.96576 89.7726 10.197C90.2399 10.7431 90.4735 11.0162 90.5707 11.0292C90.6666 11.042 90.7314 11.0181 90.7959 10.946C90.8613 10.8729 90.8613 10.5432 90.8613 9.88369V0.547397ZM90.8613 18.0641C91.1761 9.59315 77.6416 9.49736 77.9975 18.0641C77.7785 26.412 91.1213 26.3435 90.8613 18.0641ZM143.405 11.947C143.408 11.947 143.41 11.9436 143.409 11.9405C141.133 6.19148 132.578 6.16706 128.93 10.5408C128.526 11.0253 128.324 11.2676 128.227 11.2815C128.133 11.2949 128.064 11.2699 128 11.1994C127.934 11.1261 127.934 10.8329 127.934 10.2466V8.42993C127.934 8.23833 127.934 8.14252 127.897 8.06934C127.864 8.00496 127.811 7.95262 127.747 7.91982C127.674 7.88253 127.578 7.88253 127.386 7.88253H123.432C123.24 7.88253 123.144 7.88253 123.071 7.91982C123.007 7.95262 122.954 8.00496 122.921 8.06934C122.884 8.14252 122.884 8.23833 122.884 8.42993V27.6299C122.884 27.8215 122.884 27.9173 122.921 27.9905C122.954 28.0549 123.007 28.1072 123.071 28.14C123.144 28.1773 123.24 28.1773 123.432 28.1773H127.386C127.578 28.1773 127.674 28.1773 127.747 28.14C127.811 28.1072 127.864 28.0549 127.897 27.9905C127.934 27.9173 127.934 27.8215 127.934 27.6299C127.934 27.6299 127.934 25.2659 127.934 18.1676C127.934 11.0694 138.988 9.7371 138.95 16.2988C138.925 20.7238 138.95 27.6299 138.95 27.6299C138.95 27.8215 138.95 27.9173 138.988 27.9905C139.02 28.0549 139.073 28.1072 139.137 28.14C139.21 28.1773 139.306 28.1773 139.498 28.1773H143.453C143.644 28.1773 143.74 28.1773 143.813 28.14C143.878 28.1072 143.93 28.0549 143.963 27.9905C144 27.9173 144 27.8215 144 27.6299V15.4229C144 14.0984 143.796 12.9373 143.4 11.9533C143.399 11.9503 143.401 11.947 143.405 11.947ZM52.4613 8.42993C52.4613 8.23833 52.4613 8.14252 52.4986 8.06934C52.5314 8.00496 52.5838 7.95262 52.6481 7.91982C52.7213 7.88253 52.8171 7.88253 53.0087 7.88253H57.0047C57.1963 7.88253 57.2921 7.88253 57.3653 7.91982C57.4297 7.95262 57.482 8.00496 57.5148 8.06934C57.5521 8.14252 57.5521 8.23833 57.5521 8.42993V27.6299C57.5521 27.8215 57.5521 27.9173 57.5148 27.9905C57.482 28.0549 57.4297 28.1072 57.3653 28.14C57.2921 28.1773 57.1963 28.1773 57.0047 28.1773H53.0087C52.8171 28.1773 52.7213 28.1773 52.6481 28.14C52.5838 28.1072 52.5314 28.0549 52.4986 27.9905C52.4613 27.9173 52.4613 27.8215 52.4613 27.6299V25.3807C52.4613 24.7914 52.4613 24.4968 52.3909 24.4225C52.3251 24.3533 52.2471 24.3287 52.1536 24.3477C52.0533 24.3681 51.8749 24.6228 51.5183 25.1322C46.3811 32.4695 33.9506 27.4684 34.4246 18.0778C34.3835 14.1229 36.2447 10.7016 39.5564 8.79943C43.1632 6.71997 48.656 6.94007 51.3678 10.0918C51.8387 10.639 52.0741 10.9127 52.1712 10.9254C52.2672 10.9381 52.3315 10.9142 52.3961 10.842C52.4613 10.769 52.4613 10.4384 52.4613 9.77714V8.42993ZM52.4613 18.0641C52.8035 9.63421 39.228 9.5521 39.5975 18.0641C39.3785 26.412 52.7213 26.3435 52.4613 18.0641Z" fill="black"/>
</svg>
