<svg width="768" height="167" viewBox="0 0 768 167" fill="none" xmlns="http://www.w3.org/2000/svg">
<path d="M232.052 29.937H253.797L265.265 88.4683L270.031 116.617H271.073L292.967 29.937H318.435L340.477 116.766H341.519L345.987 88.7662L357.306 29.937H379.051L355.817 138.51H328.264L306.073 54.958H305.179L282.839 138.51H255.286L232.052 29.937Z" fill="#0A0A0A"/>
<path d="M375.467 116.617C375.467 100.383 387.68 92.6385 406.892 91.2981L428.935 89.6598V85.3407C428.935 75.9578 423.126 72.6813 413.743 72.6813C403.765 72.6813 397.658 77.894 397.956 85.4896H380.084C379.637 68.9579 393.19 57.9367 414.339 57.9367C437.275 57.9367 447.849 67.1707 447.849 83.8514V119.894C447.849 122.276 448.445 125.404 452.317 125.404C453.211 125.404 454.403 125.255 455.147 124.957V138.212C452.02 139.106 448.445 139.702 445.466 139.702C435.935 139.702 430.275 135.085 429.828 125.702H428.786C424.913 134.191 414.041 140 401.829 140C386.042 140 375.467 130.766 375.467 116.617ZM394.531 114.83C394.531 121.979 400.19 125.404 408.382 125.404C420.743 125.404 428.935 117.362 428.935 106.043V101.575L410.169 103.213C398.999 104.106 394.531 108.277 394.531 114.83Z" fill="#0A0A0A"/>
<path d="M463.229 138.51V59.4261H479.761L481.25 75.511H482.144C486.165 62.7026 498.825 57.0431 513.42 58.5325V75.66C493.165 73.277 482.144 83.5535 482.144 105V138.51H463.229Z" fill="#0A0A0A"/>
<path d="M596.093 138.51H579.412L577.178 124.511H576.136C571.668 134.34 560.497 140 547.987 140C526.987 140 513.583 124.362 513.583 99.4895C513.583 73.7238 527.583 57.9367 548.136 57.9367C562.434 57.9367 571.965 65.0856 576.136 74.7663H577.178V28.2988H596.093V138.51ZM577.178 102.915V95.6172C577.178 81.9152 567.646 73.8727 554.689 73.8727C540.54 73.8727 532.945 83.8514 532.945 99.3406C532.945 115.723 541.434 124.213 554.391 124.213C568.242 124.213 577.178 115.277 577.178 102.915Z" fill="#0A0A0A"/>
<path d="M644.808 140C620.83 140 604.596 123.915 604.596 99.1916C604.596 74.1706 620.681 57.9367 644.511 57.9367C667.893 57.9367 682.34 72.2345 682.34 93.681C682.34 97.1065 682.042 100.681 681.446 103.213H623.511C623.213 117.362 631.702 125.255 644.659 125.255C654.936 125.255 662.234 120.489 664.021 113.936H682.787C680.106 129.425 665.063 140 644.808 140ZM623.66 90.4045H663.425C663.276 79.0854 656.127 72.5323 644.064 72.5323C632.298 72.5323 624.107 79.6812 623.66 90.4045Z" fill="#0A0A0A"/>
<path d="M691.035 138.51V59.4261H707.567L709.95 74.0217H711.141C716.503 63.7452 726.333 57.9367 738.545 57.9367C755.971 57.9367 767.141 69.2558 767.141 89.9577V138.51H748.375V93.3832C748.375 79.8301 741.822 73.8727 731.099 73.8727C717.992 73.8727 709.95 83.4046 709.95 97.7023V138.51H691.035Z" fill="#0A0A0A"/>
<g clip-path="url(#clip0_18_1089)">
<path d="M110.661 28.1049V0.435547H55.3226V28.1049H0V83.4436L47.141 130.585L55.3226 138.782V138.621V166.436H110.661V138.766H166V83.4275L110.661 28.0888V28.1049ZM110.661 83.4436V102.48C110.661 107.248 106.796 111.113 102.029 111.113H65.1953C59.7516 111.097 55.3226 106.668 55.3226 101.224V83.4436V65.8241C55.3226 60.2838 59.8161 55.7743 65.3725 55.7743H101.207C106.426 55.7743 110.661 60.01 110.661 65.2282V83.4436Z" fill="#0A0A0A"/>
</g>
<defs>
<clipPath id="clip0_18_1089">
<rect width="166" height="166" fill="#0A0A0A" transform="translate(0 0.435547)"/>
</clipPath>
</defs>
</svg>
