<svg width="1381" height="169" viewBox="0 0 1381 169" fill="none" xmlns="http://www.w3.org/2000/svg">
<style>
  path {
    fill: #000;
  }
  @media (prefers-color-scheme: dark) {
    path {
      fill: #fff;
    }
  }
</style>
<path d="M235.458 29.9343H257.521L269.158 89.3244L273.993 117.886H275.051L297.266 29.9343H323.107L345.473 118.037H346.531L351.065 89.6267L362.55 29.9343H384.613L361.038 140.101H333.081L310.564 55.3224H309.658L286.99 140.101H259.032L235.458 29.9343Z" />
<path d="M380.977 117.886C380.977 101.414 393.369 93.5558 412.863 92.1957L435.229 90.5334V86.1509C435.229 76.6304 429.335 73.3057 419.815 73.3057C409.69 73.3057 403.494 78.5949 403.796 86.302H385.662C385.208 69.5277 398.96 58.3448 420.419 58.3448C443.692 58.3448 454.421 67.7143 454.421 84.6397V121.211C454.421 123.629 455.026 126.802 458.955 126.802C459.861 126.802 461.07 126.651 461.826 126.349V139.799C458.653 140.705 455.026 141.31 452.003 141.31C442.332 141.31 436.589 136.625 436.136 127.104H435.078C431.149 135.718 420.117 141.612 407.725 141.612C391.706 141.612 380.977 132.243 380.977 117.886ZM400.32 116.073C400.32 123.326 406.063 126.802 414.374 126.802C426.917 126.802 435.229 118.642 435.229 107.157V102.623L416.188 104.285C404.854 105.192 400.32 109.423 400.32 116.073Z" />
<path d="M470.027 140.101V59.856H486.801L488.312 76.177H489.219C493.299 63.1807 506.144 57.4381 520.954 58.9493V76.3281C500.402 73.9102 489.219 84.3375 489.219 106.099V140.101H470.027Z" />
<path d="M604.84 140.101H587.914L585.648 125.895H584.59C580.056 135.869 568.722 141.612 556.028 141.612C534.72 141.612 521.119 125.744 521.119 100.507C521.119 74.3636 535.325 58.3448 556.179 58.3448C570.687 58.3448 580.358 65.5986 584.59 75.4214H585.648V28.272H604.84V140.101ZM585.648 103.983V96.5782C585.648 82.6752 575.976 74.5147 562.828 74.5147C548.472 74.5147 540.765 84.6397 540.765 100.356C540.765 116.979 549.379 125.593 562.526 125.593C576.58 125.593 585.648 116.526 585.648 103.983Z" />
<path d="M654.27 141.612C629.94 141.612 613.468 125.291 613.468 100.205C613.468 74.8169 629.789 58.3448 653.968 58.3448C677.694 58.3448 692.352 72.8524 692.352 94.6136C692.352 98.0894 692.05 101.716 691.446 104.285H632.66C632.358 118.642 640.972 126.651 654.119 126.651C664.546 126.651 671.951 121.815 673.765 115.166H692.806C690.086 130.882 674.823 141.612 654.27 141.612ZM632.811 91.289H673.16C673.009 79.8039 665.755 73.1546 653.515 73.1546C641.576 73.1546 633.265 80.4084 632.811 91.289Z" />
<path d="M701.175 140.101V59.856H717.95L720.368 74.6658H721.576C727.017 64.2385 736.991 58.3448 749.383 58.3448C767.064 58.3448 778.398 69.83 778.398 90.8356V140.101H759.357V94.3114C759.357 80.5595 752.707 74.5147 741.827 74.5147C728.528 74.5147 720.368 84.1864 720.368 98.6939V140.101H701.175Z" />
<path d="M865.231 29.9343C890.015 29.9343 904.825 44.4418 904.825 66.5053C904.825 89.1733 889.259 103.227 864.929 103.076H835.763V140.101H815.513V29.9343H865.231ZM862.511 85.5464C877.774 85.5464 883.366 77.8393 883.366 66.6564C883.366 53.0556 874.752 48.2198 862.511 48.2198H835.763V85.5464H862.511Z" />
<path d="M912.548 140.101V59.856H929.323L930.834 76.177H931.741C935.821 63.1807 948.666 57.4381 963.476 58.9493V76.3281C942.924 73.9102 931.741 84.3375 931.741 106.099V140.101H912.548Z" />
<path d="M963.641 100.054C963.641 75.4214 980.113 58.3448 1004.9 58.3448C1029.68 58.3448 1046.15 75.4214 1046.15 100.054C1046.15 124.535 1029.68 141.612 1004.9 141.612C980.113 141.612 963.641 124.687 963.641 100.054ZM983.136 100.054C983.136 115.468 991.296 125.291 1004.75 125.291C1018.2 125.291 1026.51 115.468 1026.51 99.9028C1026.51 84.6397 1018.5 74.5147 1004.75 74.5147C991.447 74.5147 983.136 84.4886 983.136 100.054Z" />
<path d="M1045.16 59.856H1059.21V37.6414L1078.26 34.3168V59.856H1096.69V75.5725H1078.26V113.957C1078.26 122.571 1081.58 125.744 1088.53 125.744C1090.95 125.744 1094.42 125.442 1096.69 124.838V139.799C1091.86 141.007 1087.78 141.31 1082.94 141.31C1061.78 141.31 1059.21 127.256 1059.21 116.224V75.5725H1045.16V59.856Z" />
<path d="M1098.75 100.054C1098.75 75.4214 1115.22 58.3448 1140.01 58.3448C1164.79 58.3448 1181.26 75.4214 1181.26 100.054C1181.26 124.535 1164.79 141.612 1140.01 141.612C1115.22 141.612 1098.75 124.687 1098.75 100.054ZM1118.25 100.054C1118.25 115.468 1126.41 125.291 1139.86 125.291C1153.31 125.291 1161.62 115.468 1161.62 99.9028C1161.62 84.6397 1153.61 74.5147 1139.86 74.5147C1126.56 74.5147 1118.25 84.4886 1118.25 100.054Z" />
<path d="M1266 111.388C1264.79 129.673 1249.07 141.612 1228.07 141.612C1203.44 141.612 1187.12 124.989 1187.12 100.054C1187.12 74.968 1203.44 58.3448 1228.37 58.3448C1249.07 58.3448 1264.19 69.83 1265.85 87.8132H1246.66C1244.69 78.5949 1236.99 74.5147 1228.07 74.5147C1213.86 74.5147 1206.61 84.942 1206.61 100.205C1206.61 116.979 1215.22 125.442 1227.92 125.442C1238.35 125.442 1245.75 119.7 1246.81 111.388H1266Z" />
<path d="M1271.64 100.054C1271.64 75.4214 1288.11 58.3448 1312.9 58.3448C1337.68 58.3448 1354.15 75.4214 1354.15 100.054C1354.15 124.535 1337.68 141.612 1312.9 141.612C1288.11 141.612 1271.64 124.687 1271.64 100.054ZM1291.14 100.054C1291.14 115.468 1299.3 125.291 1312.75 125.291C1326.2 125.291 1334.51 115.468 1334.51 99.9028C1334.51 84.6397 1326.5 74.5147 1312.75 74.5147C1299.45 74.5147 1291.14 84.4886 1291.14 100.054Z" />
<path d="M1361.71 140.101V28.272H1380.75V140.101H1361.71Z" />
<g clip-path="url(#clip0_16_25)">
<path d="M112.285 28.0754V0H56.1344V28.0754H0V84.2261L47.8327 132.059L56.1344 140.377V140.213V168.436H112.285V140.36H168.436V84.2097L112.285 28.059V28.0754ZM112.285 84.2261V103.542C112.285 108.379 108.363 112.301 103.526 112.301H66.1519C60.6284 112.285 56.1344 107.791 56.1344 102.268V84.2261V66.348C56.1344 60.7264 60.6937 56.1507 66.3317 56.1507H102.692C107.987 56.1507 112.285 60.4486 112.285 65.7434V84.2261Z" />
</g>
<defs>
<clipPath id="clip0_16_25">
<rect width="168.436" height="168.436" fill="white"/>
</clipPath>
</defs>
</svg>
