<svg width="2612" height="2496" viewBox="0 0 2612 2496" fill="none" xmlns="http://www.w3.org/2000/svg">
<path d="M2611.67 1L1483.21 665.567C1374.03 729.831 1238.64 729.831 1129.46 665.567L1 1" stroke="white" stroke-width="0.25" stroke-miterlimit="10"/>
<path d="M2611.67 357.399L1483.21 1021.97C1374.03 1086.23 1238.64 1086.23 1129.46 1021.97L1 357.399" stroke="white" stroke-width="0.25" stroke-miterlimit="10"/>
<path d="M2611.67 713.799L1483.21 1378.37C1374.03 1442.63 1238.64 1442.63 1129.46 1378.37L1 713.799" stroke="white" stroke-width="0.25" stroke-miterlimit="10"/>
<path d="M2611.67 1070.15L1483.21 1734.72C1374.03 1798.98 1238.64 1798.98 1129.46 1734.72L1 1070.15" stroke="white" stroke-width="0.25" stroke-miterlimit="10"/>
<path d="M2611.67 1426.55L1483.21 2091.12C1374.03 2155.38 1238.64 2155.38 1129.46 2091.12L1 1426.55" stroke="white" stroke-width="0.25" stroke-miterlimit="10"/>
<path d="M2611.67 1782.95L1483.21 2447.52C1374.03 2511.78 1238.64 2511.78 1129.46 2447.52L1 1782.95" stroke="white" stroke-width="0.25" stroke-miterlimit="10"/>
</svg>
