<svg xmlns:xlink="http://www.w3.org/1999/xlink" xmlns="http://www.w3.org/2000/svg" viewBox="0 0 8 8" shape-rendering="optimizeSpeed" width="64" height="64"><path fill="hsl(137 69% 78%)" d="M0,0H8V8H0z"/><path fill="hsl(242 40% 74%)" d="M1,0h1v1h-1zM6,0h1v1h-1zM0,1h1v1h-1zM7,1h1v1h-1zM2,1h1v1h-1zM5,1h1v1h-1zM3,1h1v1h-1zM4,1h1v1h-1zM0,2h1v1h-1zM7,2h1v1h-1zM1,2h1v1h-1zM6,2h1v1h-1zM2,2h1v1h-1zM5,2h1v1h-1zM0,3h1v1h-1zM7,3h1v1h-1zM1,3h1v1h-1zM6,3h1v1h-1zM3,3h1v1h-1zM4,3h1v1h-1zM2,4h1v1h-1zM5,4h1v1h-1zM3,4h1v1h-1zM4,4h1v1h-1zM3,5h1v1h-1zM4,5h1v1h-1zM0,6h1v1h-1zM7,6h1v1h-1zM3,6h1v1h-1zM4,6h1v1h-1zM1,7h1v1h-1zM6,7h1v1h-1z"/><path fill="hsl(248 96% 64%)" d="M3,0h1v1h-1zM4,0h1v1h-1zM3,2h1v1h-1zM4,2h1v1h-1zM2,5h1v1h-1zM5,5h1v1h-1zM3,7h1v1h-1zM4,7h1v1h-1z"/></svg>