		<svg
			width="460"
			height="56"
			viewBox="0 0 460 56"
			fill="none"
			xmlns="http://www.w3.org/2000/svg"
		>
			<path
				d="M78.2828 9.95233H85.6183L89.487 29.6978L91.0948 39.1938H91.4465L98.8322 9.95233H107.424L114.86 39.244H115.211L116.719 29.7983L120.537 9.95233H127.873L120.035 46.5795H110.74L103.254 18.3932H102.952L95.4157 46.5795H86.1207L78.2828 9.95233Z"
				fill="#0A0A0A"
			/>
			<path
				d="M126.664 39.1938C126.664 33.7173 130.784 31.1046 137.265 30.6524L144.701 30.0998V28.6427C144.701 25.4774 142.741 24.3721 139.576 24.3721C136.21 24.3721 134.15 26.1306 134.25 28.693H128.221C128.071 23.116 132.643 19.398 139.777 19.398C147.515 19.398 151.082 22.5131 151.082 28.1403V40.2991C151.082 41.103 151.283 42.1581 152.589 42.1581C152.891 42.1581 153.292 42.1078 153.544 42.0074V46.479C152.489 46.7804 151.283 46.9814 150.278 46.9814C147.062 46.9814 145.153 45.4239 145.002 42.2586H144.651C143.344 45.1224 139.677 47.0819 135.557 47.0819C130.231 47.0819 126.664 43.9668 126.664 39.1938ZM133.095 38.5908C133.095 41.0025 135.004 42.1581 137.767 42.1581C141.938 42.1581 144.701 39.445 144.701 35.6265V34.1192L138.37 34.6719C134.602 34.9733 133.095 36.3801 133.095 38.5908Z"
				fill="#0A0A0A"
			/>
			<path
				d="M156.27 46.5795V19.9004H161.847L162.35 25.3267H162.651C164.008 21.0058 168.278 19.0966 173.202 19.599V25.3769C166.369 24.573 162.651 28.0398 162.651 35.2748V46.5795H156.27Z"
				fill="#0A0A0A"
			/>
			<path
				d="M201.092 46.5795H195.464L194.711 41.8566H194.359C192.852 45.1727 189.084 47.0819 184.863 47.0819C177.779 47.0819 173.257 41.8064 173.257 33.4158C173.257 24.7238 177.98 19.398 184.913 19.398C189.737 19.398 192.952 21.8097 194.359 25.0755H194.711V9.39966H201.092V46.5795ZM194.711 34.5714V32.1095C194.711 27.4871 191.495 24.774 187.124 24.774C182.351 24.774 179.789 28.1403 179.789 33.3656C179.789 38.8923 182.652 41.7561 187.024 41.7561C191.696 41.7561 194.711 38.7416 194.711 34.5714Z"
				fill="#0A0A0A"
			/>
			<path
				d="M217.526 47.0819C209.437 47.0819 203.96 41.6557 203.96 33.3153C203.96 24.8745 209.386 19.398 217.425 19.398C225.313 19.398 230.187 24.2213 230.187 31.4563C230.187 32.6119 230.087 33.8178 229.886 34.6719H210.341C210.241 39.445 213.104 42.1078 217.476 42.1078C220.942 42.1078 223.404 40.5001 224.007 38.2894H230.338C229.433 43.5147 224.359 47.0819 217.526 47.0819ZM210.391 30.351H223.806C223.756 26.5325 221.344 24.3218 217.275 24.3218C213.305 24.3218 210.542 26.7335 210.391 30.351Z"
				fill="#0A0A0A"
			/>
			<path
				d="M233.12 46.5795V19.9004H238.697L239.501 24.8243H239.903C241.712 21.3575 245.028 19.398 249.148 19.398C255.026 19.398 258.795 23.2165 258.795 30.2003V46.5795H252.464V31.3558C252.464 26.7837 250.253 24.774 246.636 24.774C242.214 24.774 239.501 27.9896 239.501 32.8129V46.5795H233.12Z"
				fill="#0A0A0A"
			/>
			<path
				d="M287.664 9.95233C295.904 9.95233 300.828 14.7757 300.828 22.1111C300.828 29.6476 295.653 34.3202 287.564 34.2699H277.867V46.5795H271.134V9.95233H287.664ZM286.76 28.4418C291.834 28.4418 293.693 25.8794 293.693 22.1614C293.693 17.6395 290.83 16.0317 286.76 16.0317H277.867V28.4418H286.76Z"
				fill="#0A0A0A"
			/>
			<path
				d="M303.396 46.5795V19.9004H308.973L309.475 25.3267H309.777C311.133 21.0058 315.404 19.0966 320.328 19.599V25.3769C313.495 24.573 309.777 28.0398 309.777 35.2748V46.5795H303.396Z"
				fill="#0A0A0A"
			/>
			<path
				d="M320.383 33.2651C320.383 25.0755 325.859 19.398 334.099 19.398C342.339 19.398 347.815 25.0755 347.815 33.2651C347.815 41.4044 342.339 47.0819 334.099 47.0819C325.859 47.0819 320.383 41.4547 320.383 33.2651ZM326.864 33.2651C326.864 38.3899 329.577 41.6557 334.049 41.6557C338.52 41.6557 341.284 38.3899 341.284 33.2148C341.284 28.1403 338.621 24.774 334.049 24.774C329.627 24.774 326.864 28.0901 326.864 33.2651Z"
				fill="#0A0A0A"
			/>
			<path
				d="M347.485 19.9004H352.158V12.5147L358.488 11.4094V19.9004H364.618V25.1257H358.488V37.8874C358.488 40.7513 359.594 41.8064 361.905 41.8064C362.709 41.8064 363.864 41.7059 364.618 41.5049V46.479C363.01 46.8809 361.654 46.9814 360.046 46.9814C353.012 46.9814 352.158 42.3088 352.158 38.6411V25.1257H347.485V19.9004Z"
				fill="#0A0A0A"
			/>
			<path
				d="M365.303 33.2651C365.303 25.0755 370.78 19.398 379.019 19.398C387.259 19.398 392.736 25.0755 392.736 33.2651C392.736 41.4044 387.259 47.0819 379.019 47.0819C370.78 47.0819 365.303 41.4547 365.303 33.2651ZM371.784 33.2651C371.784 38.3899 374.498 41.6557 378.969 41.6557C383.441 41.6557 386.204 38.3899 386.204 33.2148C386.204 28.1403 383.541 24.774 378.969 24.774C374.548 24.774 371.784 28.0901 371.784 33.2651Z"
				fill="#0A0A0A"
			/>
			<path
				d="M420.908 37.0333C420.506 43.1127 415.281 47.0819 408.297 47.0819C400.108 47.0819 394.681 41.5552 394.681 33.2651C394.681 24.9247 400.108 19.398 408.398 19.398C415.281 19.398 420.305 23.2165 420.858 29.1954H414.477C413.824 26.1306 411.262 24.774 408.297 24.774C403.574 24.774 401.163 28.2408 401.163 33.3153C401.163 38.8923 404.027 41.7059 408.247 41.7059C411.714 41.7059 414.176 39.7967 414.527 37.0333H420.908Z"
				fill="#0A0A0A"
			/>
			<path
				d="M422.784 33.2651C422.784 25.0755 428.261 19.398 436.501 19.398C444.74 19.398 450.217 25.0755 450.217 33.2651C450.217 41.4044 444.74 47.0819 436.501 47.0819C428.261 47.0819 422.784 41.4547 422.784 33.2651ZM429.266 33.2651C429.266 38.3899 431.979 41.6557 436.45 41.6557C440.922 41.6557 443.685 38.3899 443.685 33.2148C443.685 28.1403 441.022 24.774 436.45 24.774C432.029 24.774 429.266 28.0901 429.266 33.2651Z"
				fill="#0A0A0A"
			/>
			<path
				d="M452.729 46.5795V9.39966H459.06V46.5795H452.729Z"
				fill="#0A0A0A"
			/>
			<g clip-path="url(#clip0_4_2)">
				<path
					d="M37.3315 9.33424V0H18.663V9.33424H0V28.0027L15.903 43.9057L18.663 46.6712V46.6169V56H37.3315V46.6658H56V27.9973L37.3315 9.32881V9.33424ZM37.3315 28.0027V34.4248C37.3315 36.033 36.0276 37.337 34.4193 37.337H21.9936C20.1572 37.3315 18.663 35.8374 18.663 34.001V28.0027V22.0588C18.663 20.1898 20.1789 18.6685 22.0534 18.6685H34.1422C35.9026 18.6685 37.3315 20.0974 37.3315 21.8578V28.0027Z"
					fill="#0A0A0A"
				/>
			</g>
			<defs>
				<clipPath id="clip0_4_2">
					<rect
						width="56"
						height="56"
						fill="#0A0A0A"
					/>
				</clipPath>
			</defs>
		</svg>