<svg width="276" height="77" viewBox="0 0 276 77" fill="none" xmlns="http://www.w3.org/2000/svg">
<path d="M133.553 25.6525H127.453C127.343 25.6525 127.253 25.7225 127.213 25.8225L121.043 43.3825L115.233 25.8225C115.203 25.7225 115.103 25.6525 114.993 25.6525H108.493C108.383 25.6525 108.293 25.7225 108.253 25.8225L102.213 43.4125L96.2234 25.8225C96.1934 25.7225 96.0934 25.6525 95.9834 25.6525H89.8834C89.8034 25.6525 89.7234 25.6925 89.6734 25.7625C89.6234 25.8325 89.6134 25.9125 89.6434 25.9925L99.1434 50.8925C99.1834 50.9925 99.2734 51.0525 99.3734 51.0525H104.623C104.723 51.0525 104.823 50.9925 104.853 50.8925L111.683 33.0725L118.333 50.8925C118.373 50.9925 118.463 51.0525 118.563 51.0525H123.813C123.913 51.0525 124.013 50.9925 124.043 50.8925L133.743 25.9925C133.773 25.9125 133.763 25.8325 133.713 25.7625C133.663 25.6925 133.593 25.6525 133.503 25.6525H133.553Z" fill="#140901"/>
<path d="M162.753 25.6525H157.153C157.013 25.6525 156.903 25.7625 156.903 25.9025V31.4725C156.213 29.5825 155.083 28.0425 153.553 26.9025C151.953 25.7125 149.763 25.1025 147.053 25.1025C144.623 25.1025 142.393 25.6725 140.433 26.7825C138.473 27.9025 136.893 29.4725 135.743 31.4525C134.593 33.4325 134.013 35.7725 134.013 38.4025C134.013 41.0325 134.583 43.2725 135.723 45.2525C136.853 47.2325 138.403 48.8025 140.313 49.9225C142.223 51.0425 144.363 51.6025 146.663 51.6025C148.763 51.6025 150.563 51.1825 152.013 50.3425C153.453 49.5125 154.633 48.4125 155.493 47.0925C156.063 46.2225 156.533 45.2925 156.913 44.3225V44.9025C156.913 45.7425 156.943 46.6325 157.013 47.5425C157.083 48.4525 157.183 49.5625 157.313 50.8225C157.323 50.9525 157.433 51.0425 157.563 51.0425H162.763C162.903 51.0425 163.013 50.9325 163.013 50.7925V25.8925C163.013 25.7525 162.903 25.6425 162.763 25.6425L162.753 25.6525ZM153.003 45.4625C151.733 46.1525 150.163 46.5025 148.343 46.5025C146.763 46.5025 145.343 46.1625 144.113 45.4825C142.893 44.8125 141.923 43.8525 141.233 42.6325C140.543 41.4125 140.193 39.9925 140.193 38.4025C140.193 35.9825 140.913 33.9825 142.323 32.4725C143.733 30.9625 145.753 30.2025 148.343 30.2025C150.163 30.2025 151.723 30.5325 152.973 31.2025C154.223 31.8625 155.203 32.8025 155.873 34.0025C156.553 35.2125 156.893 36.6925 156.893 38.4025C156.893 39.9525 156.563 41.3625 155.893 42.5825C155.233 43.8025 154.263 44.7625 152.993 45.4525L153.003 45.4625Z" fill="#140901"/>
<path d="M182.403 25.1025C180.943 25.1025 179.643 25.3825 178.563 25.9325C177.483 26.4825 176.573 27.2025 175.833 28.0725C175.103 28.9325 174.523 29.8425 174.093 30.7525C173.923 31.1125 173.773 31.4625 173.643 31.7925V25.9025C173.643 25.7625 173.533 25.6525 173.393 25.6525H167.843C167.703 25.6525 167.593 25.7625 167.593 25.9025V50.8025C167.593 50.9425 167.703 51.0525 167.843 51.0525H173.393C173.533 51.0525 173.643 50.9425 173.643 50.8025V36.9925C173.943 36.2625 174.363 35.5025 174.903 34.7425C175.643 33.6825 176.653 32.7625 177.903 32.0125C179.143 31.2725 180.653 30.8925 182.403 30.8925C182.543 30.8925 182.653 30.7825 182.653 30.6425V25.3425C182.653 25.2025 182.543 25.0925 182.403 25.0925V25.1025Z" fill="#140901"/>
<path d="M239.693 26.7125C237.683 25.6525 235.143 25.1125 232.153 25.1125C229.163 25.1125 226.673 25.6625 224.463 26.7425C222.243 27.8225 220.493 29.3825 219.233 31.3825C217.983 33.3825 217.343 35.7425 217.343 38.4125C217.343 41.0825 217.993 43.4825 219.283 45.4525C220.573 47.4125 222.373 48.9525 224.633 50.0125C226.883 51.0725 229.483 51.6125 232.343 51.6125C234.863 51.6125 237.063 51.2325 238.893 50.4725C240.723 49.7125 242.193 48.6425 243.263 47.3025C244.333 45.9625 245.013 44.3925 245.293 42.6625C245.303 42.5925 245.293 42.5125 245.233 42.4625C245.183 42.4025 245.113 42.3725 245.043 42.3725H239.693C239.583 42.3725 239.483 42.4425 239.453 42.5425C239.073 43.7425 238.243 44.7225 236.993 45.4525C235.723 46.1925 234.123 46.5725 232.243 46.5725C230.553 46.5725 229.063 46.2725 227.803 45.6725C226.553 45.0825 225.553 44.2325 224.833 43.1625C224.163 42.1625 223.723 41.0225 223.533 39.7825H245.193C245.323 39.7825 245.433 39.6825 245.443 39.5425C245.613 36.3525 245.203 33.6625 244.223 31.5525C243.233 29.4325 241.713 27.8025 239.693 26.7325V26.7125ZM226.553 31.7325C227.973 30.6525 229.803 30.1125 232.003 30.1125C234.203 30.1125 235.883 30.6225 237.203 31.6325C238.443 32.5825 239.153 33.9025 239.333 35.5625H223.883C224.333 34.0325 225.233 32.7425 226.553 31.7325Z" fill="#140901"/>
<path d="M274.603 30.7125C274.103 29.4825 273.393 28.4325 272.493 27.5925C271.583 26.7525 270.493 26.1225 269.253 25.7125C268.013 25.3025 266.653 25.1025 265.203 25.1025C263.643 25.1025 262.203 25.3625 260.913 25.8725C259.623 26.3825 258.483 27.0925 257.533 28.0025C256.583 28.9025 255.813 29.9325 255.233 31.0725C255.133 31.2625 255.043 31.4625 254.953 31.6625V25.9125C254.953 25.7725 254.843 25.6625 254.703 25.6625H249.153C249.013 25.6625 248.903 25.7725 248.903 25.9125V50.8125C248.903 50.9525 249.013 51.0625 249.153 51.0625H254.703C254.843 51.0625 254.953 50.9525 254.953 50.8125V36.0325C255.193 35.3125 255.563 34.6325 256.053 33.9925C256.863 32.9425 257.913 32.0725 259.193 31.4125C260.473 30.7525 261.903 30.4125 263.453 30.4125C265.473 30.4125 266.973 30.8825 267.903 31.8125C268.833 32.7425 269.303 34.2025 269.303 36.1625V50.8125C269.303 50.9525 269.413 51.0625 269.553 51.0625H275.103C275.243 51.0625 275.353 50.9525 275.353 50.8125V35.0625C275.353 33.4025 275.103 31.9425 274.613 30.7225L274.603 30.7125Z" fill="#140901"/>
<path d="M212.803 15.6525H207.203C207.063 15.6525 206.953 15.7625 206.953 15.9025V31.5825C206.593 30.6525 206.143 29.8025 205.603 29.0325C204.753 27.8225 203.573 26.8525 202.103 26.1525C200.643 25.4525 198.823 25.1025 196.693 25.1025C194.253 25.1025 192.073 25.6725 190.193 26.7925C188.313 27.9125 186.803 29.4825 185.703 31.4625C184.603 33.4425 184.043 35.7725 184.043 38.4125C184.043 41.0525 184.613 43.2825 185.723 45.2625C186.843 47.2425 188.373 48.8125 190.293 49.9325C192.203 51.0525 194.363 51.6125 196.693 51.6125C198.793 51.6125 200.593 51.1925 202.043 50.3525C203.483 49.5225 204.663 48.4225 205.523 47.1025C206.093 46.2325 206.563 45.3025 206.943 44.3325V44.9125C206.943 45.8225 206.993 46.8525 207.093 47.9825L207.343 50.8325C207.353 50.9625 207.463 51.0625 207.593 51.0625H212.793C212.933 51.0625 213.043 50.9525 213.043 50.8125V15.9025C213.043 15.7625 212.933 15.6525 212.793 15.6525H212.803ZM203.053 45.4625C201.783 46.1525 200.213 46.5025 198.393 46.5025C196.813 46.5025 195.393 46.1625 194.163 45.4825C192.943 44.8125 191.973 43.8525 191.283 42.6325C190.593 41.4125 190.243 39.9925 190.243 38.4025C190.243 35.9825 190.963 33.9725 192.373 32.4425C193.783 30.9225 195.813 30.1525 198.393 30.1525C200.213 30.1525 201.763 30.4925 203.023 31.1725C204.273 31.8425 205.253 32.7925 205.923 34.0025C206.603 35.2125 206.943 36.6925 206.943 38.4025C206.943 39.9525 206.613 41.3625 205.943 42.5825C205.283 43.8025 204.313 44.7625 203.043 45.4525L203.053 45.4625Z" fill="#140901"/>
<path d="M12.7934 36.4325L30.0834 47.0425C31.2334 47.7525 32.7434 47.7525 33.8934 47.0425L51.1834 36.4325L62.5934 28.6925C63.9334 27.7825 64.3534 26.1125 63.5834 24.7525L59.0634 16.8125C58.1934 15.2825 56.1334 14.6925 54.4634 15.4825L33.5634 25.4125C32.5734 25.8825 31.4034 25.8825 30.4134 25.4125L9.51336 15.4925C7.84336 14.7025 5.78336 15.2925 4.91336 16.8225L0.383364 24.7525C-0.386636 26.1125 0.0333636 27.7725 1.37336 28.6925L12.7834 36.4325H12.7934Z" fill="#140901"/>
<path d="M34.9434 75.6825L55.2234 56.3825C56.7334 55.1225 57.0834 53.0625 56.0534 51.4425L53.3434 47.1825C52.3534 45.6225 50.1134 45.1525 48.4734 46.1725L33.9134 55.2125C32.7534 55.9325 31.2334 55.9325 30.0734 55.2125L15.5134 46.1725C13.8734 45.1525 11.6334 45.6225 10.6434 47.1825L7.93337 51.4425C6.90337 53.0625 7.24337 55.1125 8.76337 56.3825L29.0434 75.6825C30.7134 77.0825 33.2734 77.0825 34.9434 75.6825Z" fill="#140901"/>
<path d="M18.6234 5.9325L30.4234 0.3525C31.4034 -0.1175 32.5834 -0.1175 33.5634 0.3525L45.3634 5.9325C47.8234 7.0925 47.8234 10.3025 45.3634 11.4625L33.5634 17.0425C32.5834 17.5125 31.4034 17.5125 30.4234 17.0425L18.6234 11.4625C16.1634 10.3025 16.1634 7.0925 18.6234 5.9325Z" fill="#140901"/>
</svg>
