<svg
    width="425"
    height="118"
    viewBox="0 0 425 118"
    fill="none"
    xmlns="http://www.w3.org/2000/svg"
>
    <path
        d="M206.336 39.4482H196.955C196.786 39.4482 196.647 39.5559 196.586 39.7097L187.098 66.7136L178.163 39.7097C178.117 39.5559 177.963 39.4482 177.794 39.4482H167.798C167.629 39.4482 167.491 39.5559 167.429 39.7097L158.141 66.7597L148.929 39.7097C148.883 39.5559 148.729 39.4482 148.56 39.4482H139.179C139.056 39.4482 138.933 39.5098 138.857 39.6174C138.78 39.725 138.764 39.8481 138.81 39.9711L153.42 78.2626C153.481 78.4163 153.619 78.5086 153.773 78.5086H161.847C162.001 78.5086 162.154 78.4163 162.2 78.2626L172.704 50.8588L182.93 78.2626C182.992 78.4163 183.13 78.5086 183.284 78.5086H191.357C191.511 78.5086 191.665 78.4163 191.711 78.2626L206.628 39.9711C206.674 39.8481 206.659 39.725 206.582 39.6174C206.505 39.5098 206.397 39.4482 206.259 39.4482H206.336Z"
        fill="#CAFF94"
    />
    <path
        d="M251.24 39.4483H242.628C242.413 39.4483 242.243 39.6175 242.243 39.8328V48.3984C241.182 45.4919 239.445 43.1237 237.092 41.3706C234.631 39.5406 231.263 38.6025 227.096 38.6025C223.359 38.6025 219.93 39.4791 216.916 41.1861C213.902 42.9084 211.472 45.3228 209.703 48.3676C207.935 51.4125 207.043 55.011 207.043 59.0554C207.043 63.0999 207.92 66.5445 209.673 69.5894C211.41 72.6343 213.794 75.0486 216.731 76.771C219.668 78.4933 222.959 79.3545 226.496 79.3545C229.726 79.3545 232.494 78.7086 234.724 77.4169C236.938 76.1405 238.753 74.4489 240.075 72.419C240.952 71.0811 241.674 69.6509 242.259 68.1592V69.0512C242.259 70.3429 242.305 71.7116 242.413 73.111C242.52 74.5104 242.674 76.2174 242.874 78.155C242.889 78.3549 243.058 78.4933 243.258 78.4933H251.255C251.47 78.4933 251.639 78.3242 251.639 78.1089V39.8174C251.639 39.6021 251.47 39.433 251.255 39.433L251.24 39.4483ZM236.246 69.9123C234.293 70.9734 231.879 71.5117 229.08 71.5117C226.65 71.5117 224.466 70.9888 222.575 69.9431C220.699 68.9128 219.207 67.4365 218.146 65.5603C217.085 63.6842 216.547 61.5005 216.547 59.0554C216.547 55.3339 217.654 52.2583 219.822 49.9362C221.991 47.6141 225.097 46.4454 229.08 46.4454C231.879 46.4454 234.278 46.9528 236.2 47.9832C238.122 48.9981 239.629 50.4437 240.659 52.289C241.705 54.1498 242.228 56.4258 242.228 59.0554C242.228 61.439 241.721 63.6073 240.69 65.4835C239.675 67.3596 238.184 68.8359 236.231 69.897L236.246 69.9123Z"
        fill="#CAFF94"
    />
    <path
        d="M281.458 38.6028C279.213 38.6028 277.213 39.0334 275.553 39.8792C273.892 40.725 272.492 41.8322 271.354 43.1701C270.232 44.4926 269.34 45.892 268.679 47.2914C268.417 47.845 268.187 48.3833 267.987 48.8907V39.833C267.987 39.6177 267.817 39.4486 267.602 39.4486H259.067C258.852 39.4486 258.683 39.6177 258.683 39.833V78.1245C258.683 78.3398 258.852 78.5089 259.067 78.5089H267.602C267.817 78.5089 267.987 78.3398 267.987 78.1245V56.8873C268.448 55.7647 269.094 54.596 269.924 53.4273C271.062 51.7972 272.615 50.3824 274.538 49.229C276.445 48.0911 278.767 47.5067 281.458 47.5067C281.673 47.5067 281.842 47.3375 281.842 47.1222V38.9719C281.842 38.7566 281.673 38.5874 281.458 38.5874V38.6028Z"
        fill="#CAFF94"
    />
    <path
        d="M369.559 41.0787C366.468 39.4486 362.562 38.6182 357.964 38.6182C353.366 38.6182 349.537 39.464 346.138 41.1248C342.724 42.7856 340.033 45.1846 338.095 48.2602C336.173 51.3358 335.189 54.9651 335.189 59.071C335.189 63.177 336.188 66.8677 338.172 69.8972C340.156 72.9113 342.924 75.2795 346.399 76.9096C349.859 78.5397 353.858 79.3701 358.256 79.3701C362.131 79.3701 365.514 78.7858 368.329 77.617C371.143 76.4483 373.403 74.8028 375.049 72.7422C376.694 70.6815 377.74 68.2671 378.17 65.6067C378.186 65.4991 378.171 65.3761 378.078 65.2992C378.001 65.2069 377.894 65.1608 377.786 65.1608H369.559C369.39 65.1608 369.236 65.2684 369.19 65.4222C368.605 67.2676 367.329 68.7746 365.407 69.8972C363.454 71.0352 360.993 71.6196 358.102 71.6196C355.503 71.6196 353.212 71.1582 351.274 70.2355C349.352 69.3282 347.814 68.0211 346.707 66.3756C345.677 64.8378 345 63.0847 344.708 61.1778H378.017C378.217 61.1778 378.386 61.0241 378.401 60.8088C378.663 55.9031 378.032 51.7664 376.525 48.5217C375.003 45.2615 372.665 42.7549 369.559 41.1094V41.0787ZM349.352 48.7985C351.536 47.1376 354.35 46.3072 357.733 46.3072C361.116 46.3072 363.7 47.0915 365.73 48.6447C367.637 50.1056 368.728 52.1355 369.005 54.6883H345.246C345.938 52.3354 347.322 50.3517 349.352 48.7985Z"
        fill="#CAFF94"
    />
    <path
        d="M423.244 47.2296C422.475 45.3381 421.383 43.7234 419.999 42.4317C418.6 41.1399 416.924 40.1711 415.017 39.5406C413.11 38.9101 411.019 38.6025 408.789 38.6025C406.39 38.6025 404.175 39.0024 402.192 39.7867C400.208 40.5709 398.455 41.6628 396.994 43.0622C395.533 44.4462 394.349 46.0302 393.457 47.7833C393.303 48.0754 393.165 48.383 393.026 48.6906V39.8482C393.026 39.6329 392.857 39.4637 392.642 39.4637H384.107C383.892 39.4637 383.722 39.6329 383.722 39.8482V78.1396C383.722 78.3549 383.892 78.5241 384.107 78.5241H392.642C392.857 78.5241 393.026 78.3549 393.026 78.1396V55.4108C393.395 54.3036 393.964 53.2579 394.718 52.2737C395.963 50.659 397.578 49.3211 399.546 48.3061C401.515 47.2912 403.714 46.7683 406.098 46.7683C409.204 46.7683 411.511 47.4911 412.941 48.9212C414.371 50.3514 415.094 52.5966 415.094 55.6107V78.1396C415.094 78.3549 415.263 78.5241 415.478 78.5241H424.013C424.228 78.5241 424.398 78.3549 424.398 78.1396V53.9191C424.398 51.3664 424.013 49.1212 423.259 47.245L423.244 47.2296Z"
        fill="#CAFF94"
    />
    <path
        d="M328.207 24.0703H319.595C319.38 24.0703 319.211 24.2395 319.211 24.4548V48.5676C318.657 47.1375 317.965 45.8303 317.135 44.6462C315.828 42.7855 314.013 41.2938 311.753 40.2173C309.507 39.1408 306.709 38.6026 303.433 38.6026C299.681 38.6026 296.328 39.4792 293.437 41.2015C290.546 42.9239 288.224 45.3382 286.533 48.3831C284.841 51.4279 283.98 55.011 283.98 59.0709C283.98 63.1307 284.856 66.56 286.563 69.6049C288.286 72.6497 290.638 75.0641 293.591 76.7864C296.528 78.5088 299.85 79.3699 303.433 79.3699C306.662 79.3699 309.43 78.7241 311.66 77.4323C313.875 76.1559 315.689 74.4643 317.012 72.4344C317.888 71.0965 318.611 69.6664 319.196 68.1747V69.0666C319.196 70.466 319.272 72.05 319.426 73.7877L319.811 78.1705C319.826 78.3704 319.995 78.5242 320.195 78.5242H328.192C328.407 78.5242 328.576 78.355 328.576 78.1397V24.4548C328.576 24.2395 328.407 24.0703 328.192 24.0703H328.207ZM313.214 69.9124C311.26 70.9735 308.846 71.5117 306.047 71.5117C303.618 71.5117 301.434 70.9889 299.542 69.9432C297.666 68.9128 296.175 67.4366 295.113 65.5604C294.052 63.6843 293.514 61.5006 293.514 59.0555C293.514 55.334 294.621 52.243 296.79 49.8901C298.958 47.5527 302.08 46.3686 306.047 46.3686C308.846 46.3686 311.23 46.8914 313.167 47.9371C315.09 48.9675 316.597 50.4284 317.627 52.2891C318.673 54.1499 319.196 56.4258 319.196 59.0555C319.196 61.4391 318.688 63.6074 317.658 65.4835C316.643 67.3597 315.151 68.836 313.198 69.897L313.214 69.9124Z"
        fill="#CAFF94"
    />
    <path
        d="M20.6296 56.0263L47.2183 72.3425C48.9868 73.4343 51.3089 73.4343 53.0774 72.3425L79.6661 56.0263L97.2125 44.1236C99.2732 42.7242 99.9191 40.1561 98.7349 38.0647L91.784 25.8545C90.4461 23.5016 87.2783 22.5943 84.7101 23.8092L52.5699 39.0796C51.0475 39.8024 49.2482 39.8024 47.7258 39.0796L15.5856 23.8246C13.0174 22.6097 9.84952 23.517 8.51163 25.8698L1.54535 38.0647C0.361237 40.1561 1.00712 42.7089 3.06778 44.1236L20.6142 56.0263H20.6296Z"
        fill="#CAFF94"
    />
    <path
        d="M54.6931 116.386L85.8799 86.7058C88.202 84.7681 88.7402 81.6002 87.1563 79.109L82.9888 72.5579C81.4664 70.1589 78.0217 69.4362 75.4997 71.0047L53.1092 84.9065C51.3253 86.0138 48.9878 86.0138 47.204 84.9065L24.8135 71.0047C22.2914 69.4362 18.8468 70.1589 17.3243 72.5579L13.1569 79.109C11.5729 81.6002 12.0958 84.7528 14.4332 86.7058L45.62 116.386C48.1882 118.538 52.125 118.538 54.6931 116.386Z"
        fill="#CAFF94"
    />
    <path
        d="M29.5951 9.12306L47.7412 0.542078C49.2483 -0.180693 51.0629 -0.180693 52.5699 0.542078L70.7161 9.12306C74.4991 10.9069 74.4991 15.8433 70.7161 17.6271L52.5699 26.2081C51.0629 26.9309 49.2483 26.9309 47.7412 26.2081L29.5951 17.6271C25.8121 15.8433 25.8121 10.9069 29.5951 9.12306Z"
        fill="#CAFF94"
    />
</svg>