<svg xmlns:xlink="http://www.w3.org/1999/xlink" xmlns="http://www.w3.org/2000/svg" viewBox="0 0 33 33" fill="none" width="48" height="48"><path d="M.667 16.667c0-8.837 7.163-16 16-16 8.836 0 16 7.163 16 16 0 8.836-7.164 16-16 16-8.837 0-16-7.164-16-16Z" fill="url(#a)"></path><path d="M23.93 13.158a7.296 7.296 0 0 0-7.436-7.157 7.294 7.294 0 0 0-7.157 7.157c0 .02-.004.039-.004.054v13.307a.81.81 0 0 0 1.62 0v-2.357a.81.81 0 0 1 1.62 0v1.117c.012.45.38.803.83.795a.814.814 0 0 0 .795-.795v-1.117a.81.81 0 0 1 1.62 0v.307a.81.81 0 0 0 1.62 0v-.307a.814.814 0 0 1 .83-.795c.434.008.783.361.794.795v1.117a.814.814 0 0 0 1.628.004v-1.117a.81.81 0 0 1 1.62 0v2.357a.81.81 0 0 0 1.62 0V13.216a.147.147 0 0 0 0-.058Zm-9.99 1.171c-.717 0-1.297-.664-1.297-1.49 0-.825.583-1.49 1.298-1.49.714 0 1.297.665 1.297 1.49 0 .826-.58 1.49-1.297 1.49Zm2.75 2.104c-.653 0-1.179-.388-1.179-.868s.53-.188 1.179-.188 1.178-.288 1.178.188-.526.864-1.178.868Zm2.637-2.104c-.718 0-1.297-.664-1.297-1.49 0-.825.58-1.49 1.297-1.49.718 0 1.298.665 1.298 1.49 0 .826-.584 1.49-1.298 1.49Z" fill="#fff"></path><defs><linearGradient id="a" x1="32.667" y1="12.729" x2=".667" y2="25.104" gradientUnits="userSpaceOnUse"><stop stop-color="#B6509E"></stop><stop offset="1" stop-color="#2EBAC6"></stop></linearGradient></defs></svg>