<svg xmlns="http://www.w3.org/2000/svg" xmlns:xlink="http://www.w3.org/1999/xlink" width="24" height="24" viewBox="0 0 24 24" version="1.1">
    <title>logo</title>
    <g id="logo" stroke="none" stroke-width="1" fill="none" fill-rule="evenodd">
        <rect id="16x16" x="0" y="0" width="24" height="24"/>
        <g id="final" transform="translate(5.000000, 5.000000)" fill="#000000">
            <path d="M13.2752688,7.15544137 L13.2752688,7.15544137 L13.189137,7.15544137 L13.189137,7.06930959 L13.189137,7.06930959 L13.2752688,7.06930959 L13.2752688,7.15544137 M13.0168735,6.29412356 C12.9307417,6.38025534 12.8446099,6.38025534 12.7584781,6.29412356 L12.7584781,6.29412356 C12.5862146,6.03572822 12.3278192,5.6912011 12.0694239,5.43280576 C12.0694239,5.34667398 12.0694239,5.2605422 12.1555557,5.2605422 L12.1555557,5.2605422 C12.7584781,5.2605422 13.0168735,5.43280576 13.1030052,5.60506932 C13.189137,5.6912011 13.189137,5.94959644 13.0168735,6.29412356 M12.8446099,9.30873587 L12.7584781,9.56713121 L12.7584781,9.56713121 C12.5862146,9.99779011 12.2416874,10.2561855 11.7248968,10.5145808 C11.638765,10.6007126 11.4665014,10.428449 11.5526332,10.3423172 C11.7248968,9.82552655 11.8110285,9.22260409 11.8971603,8.53354985 C11.8971603,8.44741807 11.9832921,8.27515451 12.0694239,8.18902273 C12.2416874,8.01675917 12.413951,7.84449561 12.5862146,7.67223205 L12.5862146,7.67223205 C12.6723463,7.58610027 12.8446099,7.58610027 12.8446099,7.75836383 C13.0168735,8.36128629 13.0168735,8.87807697 12.8446099,9.30873587 M11.638765,11.2897668 L11.4665014,11.4620304 C11.3803696,11.5481622 11.2942379,11.6342939 11.2081061,11.7204257 L11.1219743,11.6342939 L11.1219743,11.5481622 C11.1219743,11.4620304 11.2081061,11.3758986 11.2081061,11.2897668 L11.2942379,11.2897668 C11.3803696,11.2897668 11.4665014,11.203635 11.5526332,11.203635 L11.638765,11.2897668 M10.6913154,10.7729761 C10.5190518,10.7729761 10.3467883,10.8591079 10.0883929,10.8591079 C9.57160226,10.8591079 9.05481158,10.8591079 8.53802089,10.7729761 L8.53802089,10.6007126 C8.62415267,10.5145808 8.79641624,10.5145808 8.88254802,10.428449 C9.74386582,9.99779011 10.5190518,9.48099943 11.2081061,8.96420875 L11.2942379,9.05034053 C11.2081061,9.65326299 11.0358425,10.1700537 10.863579,10.6868444 C10.863579,10.6868444 10.7774472,10.7729761 10.6913154,10.7729761 M10.4329201,11.5481622 C10.0022612,12.40948 9.3993387,12.9262706 8.88254802,12.9262706 C8.27962555,12.9262706 7.67670309,12.3233482 7.24604419,11.2897668 L7.24604419,11.2897668 L7.33217597,11.1175033 L7.33217597,11.1175033 L7.41830775,11.1175033 C8.19349377,11.3758986 9.05481158,11.4620304 9.74386582,11.4620304 C9.8299976,11.4620304 9.91612938,11.4620304 10.0022612,11.4620304 C10.0883929,11.4620304 10.1745247,11.4620304 10.2606565,11.4620304 C10.4329201,11.3758986 10.5190518,11.4620304 10.4329201,11.5481622 M7.76283487,13.2707978 C7.50443953,13.2707978 7.24604419,13.3569295 6.98764885,13.3569295 C5.78180393,13.3569295 4.575959,13.0124024 3.54237764,12.3233482 C3.54237764,12.2372164 3.54237764,12.1510846 3.62850942,12.1510846 L3.7146412,12.1510846 C3.97303654,12.1510846 4.23143188,12.0649528 4.575959,12.0649528 C5.26501325,11.9788211 5.95406749,11.7204257 6.72925351,11.4620304 L6.90151707,11.5481622 L6.90151707,11.5481622 C7.15991241,12.2372164 7.59057131,12.8401389 7.93509843,13.0985342 C7.93509843,13.0985342 7.84896665,13.2707978 7.76283487,13.2707978 M4.1453001,8.79194519 C4.66209078,8.36128629 5.35114503,7.84449561 6.04019927,7.49996849 C6.04019927,8.44741807 6.12633105,9.30873587 6.29859461,10.0839219 C6.04019927,9.99779011 5.78180393,9.82552655 5.52340859,9.73939477 C5.09274969,9.48099943 4.575959,9.13647231 4.1453001,8.79194519 M2.4226645,11.2897668 C2.25040094,11.0313715 2.4226645,10.428449 3.37011408,9.56713121 L3.37011408,9.56713121 C3.45624586,9.48099943 3.45624586,9.30873587 3.37011408,9.22260409 L3.2839823,9.13647231 C3.19785052,9.05034053 3.11171874,9.05034053 3.02558696,9.13647231 L3.02558696,9.13647231 C2.59492806,9.56713121 2.25040094,9.99779011 2.07813738,10.3423172 C1.9920056,10.428449 1.90587382,10.428449 1.81974204,10.3423172 C1.1306878,9.30873587 0.786160675,8.10289095 0.786160675,6.89704603 C0.786160675,6.46638713 0.872292455,6.03572822 0.958424235,5.60506932 L1.04455602,5.60506932 C1.04455602,6.12186 1.30295136,6.55251891 1.5613467,6.98317781 C1.9920056,7.58610027 2.50879628,8.18902273 3.11171874,8.70581341 C3.2839823,8.87807697 3.54237764,9.05034053 3.80077298,9.22260409 C4.23143188,9.56713121 4.74822256,9.91165833 5.35114503,10.1700537 C5.60954037,10.2561855 5.86793571,10.428449 6.04019927,10.5145808 C6.21246283,10.6007126 6.29859461,10.6007126 6.47085817,10.5145808 C6.55698995,10.428449 6.72925351,10.428449 6.81538529,10.3423172 C6.90151707,10.3423172 6.98764885,10.2561855 6.98764885,10.0839219 L6.98764885,10.0839219 C6.81538529,9.30873587 6.72925351,8.36128629 6.64312173,7.41383671 L6.64312173,7.41383671 L6.64312173,7.41383671 L6.64312173,7.24157315 L6.64312173,7.15544137 L6.64312173,7.15544137 L6.64312173,7.15544137 L6.64312173,6.98317781 C6.64312173,6.81091425 6.64312173,6.63865069 6.64312173,6.46638713 L6.64312173,6.46638713 C6.72925351,5.34667398 6.90151707,4.22696084 7.15991241,3.36564304 C7.15991241,3.27951126 7.15991241,3.19337948 7.07378063,3.19337948 C7.07378063,3.19337948 6.98764885,3.1072477 6.90151707,3.1072477 C6.81538529,3.1072477 6.72925351,3.1072477 6.72925351,3.19337948 C6.38472639,4.22696084 6.12633105,5.34667398 6.12633105,6.55251891 C6.12633105,6.72478247 6.04019927,6.81091425 5.86793571,6.89704603 C5.17888147,7.32770493 4.48982722,7.75836383 3.88690476,8.27515451 C3.80077298,8.36128629 3.62850942,8.36128629 3.45624586,8.27515451 C2.93945518,7.75836383 2.4226645,7.24157315 2.07813738,6.63865069 C1.38908314,5.51893754 1.21681958,4.48535618 1.5613467,3.71017016 L1.5613467,3.71017016 C1.64747848,3.62403838 1.64747848,3.5379066 1.73361026,3.45177482 C2.16426916,2.84885236 3.11171874,2.50432523 4.23143188,2.41819345 L4.48982722,2.41819345 C5.17888147,2.41819345 5.95406749,2.50432523 6.72925351,2.76272058 L6.72925351,2.76272058 L6.81538529,2.76272058 L6.81538529,2.76272058 L6.81538529,2.76272058 C6.98764885,2.84885236 7.15991241,2.93498414 7.33217597,3.02111592 L7.33217597,3.02111592 L7.33217597,3.02111592 L7.50443953,3.1072477 L7.59057131,3.1072477 L7.59057131,3.1072477 L7.59057131,3.1072477 C7.93509843,3.27951126 8.36575733,3.45177482 8.71028446,3.62403838 C9.3993387,3.9685655 10.0883929,4.48535618 10.6913154,4.91601508 C9.57160226,5.17441042 8.27962555,5.6912011 6.98764885,6.29412356 L6.90151707,6.46638713 C6.90151707,6.55251891 6.90151707,6.72478247 6.90151707,6.81091425 C6.90151707,6.89704603 6.98764885,6.98317781 7.07378063,6.89704603 L7.07378063,6.89704603 C8.36575733,6.20799178 9.65773404,5.6912011 10.6913154,5.43280576 C10.863579,5.34667398 11.0358425,5.17441042 11.0358425,5.00214686 C11.0358425,4.8298833 11.0358425,4.74375152 10.9497107,4.57148796 C10.9497107,4.3992244 10.863579,4.22696084 10.6913154,4.14082906 C10.1745247,3.71017016 9.57160226,3.36564304 8.9686798,3.1072477 C8.53802089,2.93498414 8.10736199,2.6765888 7.76283487,2.59045702 C7.67670309,2.59045702 7.67670309,2.41819345 7.67670309,2.33206167 C8.10736199,1.55687565 8.62415267,1.12621675 9.14094336,1.12621675 L9.14094336,1.12621675 C9.74386582,1.12621675 10.3467883,1.72913921 10.7774472,2.76272058 C11.0358425,3.27951126 11.2081061,3.88243372 11.2942379,4.57148796 L11.2942379,4.57148796 C11.3803696,4.8298833 11.3803696,5.17441042 11.3803696,5.43280576 L11.3803696,5.43280576 L11.3803696,5.43280576 C11.4665014,5.94959644 11.4665014,6.46638713 11.4665014,6.98317781 C11.4665014,7.32770493 11.4665014,7.67223205 11.3803696,8.01675917 C10.6051836,8.61968163 9.65773404,9.30873587 8.53802089,9.82552655 C8.19349377,9.99779011 7.84896665,10.1700537 7.50443953,10.3423172 L7.50443953,10.3423172 L7.41830775,10.3423172 L7.41830775,10.3423172 C7.15991241,10.5145808 6.81538529,10.6007126 6.55698995,10.6868444 L6.55698995,10.6868444 L6.47085817,10.6868444 L6.38472639,10.6868444 L6.21246283,10.7729761 L6.21246283,10.7729761 L6.12633105,11.0313715 L6.12633105,11.0313715 L6.12633105,11.0313715 C5.52340859,11.203635 4.92048613,11.3758986 4.40369544,11.5481622 C3.11171874,11.7204257 2.50879628,11.5481622 2.4226645,11.2897668 M3.2839823,1.81527099 C4.40369544,1.04008497 5.69567215,0.69555785 6.98764885,0.69555785 C7.33217597,0.69555785 7.67670309,0.69555785 8.02123021,0.781689631 C8.10736199,0.781689631 8.10736199,0.953953191 8.10736199,0.953953191 C7.76283487,1.21234853 7.41830775,1.55687565 7.15991241,2.07366633 C7.07378063,2.15979811 6.98764885,2.24592989 6.81538529,2.24592989 C5.95406749,1.98753455 5.00661791,1.90140277 4.23143188,1.90140277 C3.88690476,1.90140277 3.62850942,1.90140277 3.37011408,1.98753455 L3.2839823,1.81527099 M11.9832921,6.46638713 L12.1555557,6.38025534 L12.3278192,6.63865069 C12.413951,6.72478247 12.413951,6.81091425 12.5000828,6.89704603 L12.5000828,7.06930959 C12.413951,7.15544137 12.3278192,7.24157315 12.2416874,7.32770493 L12.1555557,7.41383671 L12.0694239,7.32770493 C12.0694239,7.24157315 12.0694239,7.15544137 12.0694239,6.98317781 C11.9832921,6.89704603 11.9832921,6.63865069 11.9832921,6.46638713 M11.3803696,2.41819345 L11.4665014,2.50432523 C12.0694239,3.1072477 12.5862146,3.79630194 12.8446099,4.57148796 C12.8446099,4.65761974 12.8446099,4.74375152 12.7584781,4.74375152 C12.5862146,4.74375152 12.413951,4.65761974 12.1555557,4.65761974 C11.9832921,4.65761974 11.8971603,4.57148796 11.8110285,4.3992244 C11.7248968,3.71017016 11.5526332,3.1072477 11.2942379,2.50432523 L11.2942379,2.41819345 L11.3803696,2.41819345 M13.7059277,5.51893754 C13.4475324,4.22696084 12.7584781,3.02111592 11.8110285,2.07366633 C10.5190518,0.781689631 8.79641624,0.0926353888 6.98764885,0.0926353888 C5.17888147,0.0926353888 3.45624586,0.781689631 2.07813738,2.07366633 C1.81974204,2.41819345 1.47521492,2.76272058 1.30295136,3.1072477 C1.21681958,3.19337948 1.1306878,3.36564304 1.04455602,3.45177482 C0.441633554,4.48535618 0.0971064331,5.6912011 0.0971064331,6.98317781 C0.0971064331,8.79194519 0.786160675,10.5145808 2.07813738,11.8926893 C3.37011408,13.2707978 5.17888147,13.8737202 6.98764885,13.8737202 C8.79641624,13.8737202 10.5190518,13.184666 11.8971603,11.8926893 C12.5000828,11.2897668 13.0168735,10.6007126 13.3614006,9.82552655 C13.3614006,9.73939477 13.4475324,9.65326299 13.4475324,9.56713121 C13.7059277,8.70581341 13.8781913,7.84449561 13.8781913,6.98317781 C13.8781913,6.46638713 13.7920595,6.03572822 13.7059277,5.51893754 L13.7059277,5.51893754" id="Shape"/>
            <path d="M13.2752688,7.06930959 L13.2752688,7.06930959 L13.189137,7.24157315 L13.2752688,7.15544137 L13.2752688,7.06930959 L13.2752688,7.06930959 L13.2752688,7.06930959 L13.2752688,7.06930959 L13.189137,7.15544137 L13.2752688,7.15544137 L13.2752688,7.06930959 L13.189137,7.06930959 L13.189137,7.24157315 L13.4475324,7.24157315 L13.4475324,7.06930959 L13.4475324,6.98317781 L13.2752688,6.98317781 L13.189137,6.98317781 L13.1030052,6.98317781 L13.1030052,6.98317781 L13.1030052,7.15544137 L13.1030052,7.15544137 L13.1030052,7.24157315 L13.1030052,7.32770493 L13.2752688,7.32770493 L13.2752688,7.06930959 Z M12.8446099,6.29412356 L12.8446099,6.29412356 L12.8446099,6.29412356 L12.8446099,6.29412356 L12.8446099,6.29412356 L12.8446099,6.29412356 L12.8446099,6.29412356 L12.8446099,6.29412356 L12.8446099,6.29412356 L12.8446099,6.29412356 L12.8446099,6.29412356 L12.8446099,6.29412356 L12.8446099,6.29412356 L12.8446099,6.29412356 L12.8446099,6.29412356 C12.5862146,5.94959644 12.413951,5.6912011 12.1555557,5.43280576 L12.1555557,5.43280576 L12.1555557,5.43280576 L12.1555557,5.43280576 L12.1555557,5.43280576 L12.1555557,5.43280576 L12.1555557,5.43280576 L12.1555557,5.43280576 L12.1555557,5.43280576 L12.1555557,5.43280576 L12.1555557,5.43280576 L12.1555557,5.43280576 C12.6723463,5.43280576 12.9307417,5.60506932 13.0168735,5.6912011 L13.0168735,5.6912011 L13.0168735,5.77733288 C13.0168735,5.86346466 13.0168735,6.03572822 12.8446099,6.29412356 L13.1030052,6.38025534 C13.2752688,6.12186 13.2752688,5.94959644 13.2752688,5.77733288 C13.2752688,5.6912011 13.2752688,5.60506932 13.189137,5.51893754 L13.189137,5.51893754 C13.1030052,5.2605422 12.7584781,5.17441042 12.1555557,5.17441042 L12.1555557,5.17441042 L12.1555557,5.17441042 C11.9832921,5.17441042 11.8971603,5.2605422 11.8971603,5.43280576 L11.9832921,5.60506932 C12.2416874,5.86346466 12.413951,6.12186 12.5862146,6.46638713 L12.5862146,6.46638713 L12.5862146,6.46638713 L12.5862146,6.46638713 C12.6723463,6.55251891 12.7584781,6.55251891 12.8446099,6.55251891 C12.9307417,6.55251891 13.0168735,6.46638713 13.1030052,6.38025534 L12.8446099,6.29412356 L12.8446099,6.29412356 Z M12.7584781,9.22260409 L12.6723463,9.48099943 L12.6723463,9.48099943 L12.7584781,9.56713121 L12.6723463,9.48099943 C12.5000828,9.82552655 12.1555557,10.1700537 11.7248968,10.3423172 L11.7248968,10.3423172 L11.7248968,10.3423172 L11.7248968,10.3423172 L11.7248968,10.3423172 L11.7248968,10.3423172 C11.8971603,9.73939477 11.9832921,9.13647231 12.0694239,8.53354985 C12.0694239,8.44741807 12.1555557,8.36128629 12.1555557,8.27515451 L12.1555557,8.27515451 L12.1555557,8.27515451 C12.3278192,8.10289095 12.5000828,7.93062739 12.6723463,7.75836383 L12.6723463,7.75836383 L12.6723463,7.75836383 L12.5862146,7.67223205 L12.6723463,7.75836383 L12.6723463,7.75836383 L12.6723463,7.75836383 C12.7584781,8.01675917 12.7584781,8.27515451 12.7584781,8.53354985 C12.8446099,8.87807697 12.8446099,9.05034053 12.7584781,9.22260409 L13.0168735,9.30873587 C13.1030052,9.05034053 13.1030052,8.87807697 13.1030052,8.61968163 C13.1030052,8.36128629 13.0168735,8.01675917 12.9307417,7.75836383 C12.9307417,7.67223205 12.7584781,7.58610027 12.6723463,7.58610027 L12.5000828,7.67223205 L12.5000828,7.67223205 L12.5000828,7.67223205 L12.5862146,7.75836383 L12.5000828,7.67223205 C12.3278192,7.84449561 12.1555557,8.01675917 11.9832921,8.18902273 L11.9832921,8.18902273 L11.9832921,8.18902273 C11.8971603,8.27515451 11.8110285,8.44741807 11.8110285,8.53354985 C11.7248968,9.13647231 11.638765,9.73939477 11.4665014,10.3423172 L11.4665014,10.3423172 L11.4665014,10.3423172 L11.4665014,10.428449 C11.4665014,10.6007126 11.5526332,10.6868444 11.7248968,10.6868444 L11.8110285,10.6868444 L11.8110285,10.6868444 C12.3278192,10.428449 12.6723463,10.0839219 12.9307417,9.65326299 L12.9307417,9.65326299 L12.9307417,9.65326299 L12.9307417,9.65326299 L13.0168735,9.39486765 L12.7584781,9.22260409 Z M11.4665014,11.203635 L11.2942379,11.3758986 L11.3803696,11.4620304 L11.2942379,11.3758986 C11.2081061,11.4620304 11.1219743,11.5481622 11.0358425,11.6342939 L11.1219743,11.7204257 L11.2081061,11.6342939 L11.1219743,11.5481622 L11.0358425,11.6342939 L11.1219743,11.7204257 L11.1219743,11.6342939 L11.1219743,11.6342939 L11.1219743,11.6342939 C11.1219743,11.5481622 11.2081061,11.4620304 11.2081061,11.3758986 L11.2081061,11.2897668 L11.2942379,11.3758986 L11.3803696,11.3758986 L11.2942379,11.2897668 L11.2942379,11.3758986 C11.3803696,11.3758986 11.4665014,11.2897668 11.5526332,11.2897668 L11.4665014,11.203635 L11.3803696,11.2897668 L11.4665014,11.3758986 L11.7248968,11.203635 L11.638765,11.1175033 L11.5526332,11.0313715 L11.4665014,11.0313715 C11.3803696,11.0313715 11.2942379,11.1175033 11.2081061,11.1175033 L11.2081061,11.1175033 L11.1219743,11.203635 L11.1219743,11.203635 L11.1219743,11.203635 C11.1219743,11.2897668 11.0358425,11.3758986 11.0358425,11.4620304 L11.0358425,11.4620304 L11.0358425,11.5481622 L10.9497107,11.6342939 L11.1219743,11.8065575 L11.2081061,11.8926893 L11.2942379,11.8065575 C11.3803696,11.7204257 11.4665014,11.6342939 11.5526332,11.5481622 L11.5526332,11.5481622 L11.7248968,11.3758986 L11.4665014,11.203635 L11.4665014,11.203635 Z M10.6913154,10.6868444 C10.5190518,10.6868444 10.3467883,10.7729761 10.0883929,10.7729761 L9.8299976,10.7729761 C9.3993387,10.7729761 8.9686798,10.6868444 8.45188911,10.6868444 L8.45188911,10.7729761 L8.53802089,10.7729761 L8.53802089,10.6007126 L8.45188911,10.6007126 L8.53802089,10.6868444 C8.62415267,10.6007126 8.79641624,10.6007126 8.88254802,10.5145808 C9.74386582,10.0839219 10.5190518,9.56713121 11.2081061,9.05034053 L11.1219743,8.96420875 L11.0358425,9.05034053 L11.1219743,9.13647231 L11.2081061,9.05034053 L11.1219743,9.05034053 C11.0358425,9.56713121 10.863579,10.0839219 10.6913154,10.6868444 L10.6913154,10.6868444 L10.6913154,10.6868444 L10.6913154,10.9452397 C10.863579,10.9452397 10.9497107,10.8591079 10.9497107,10.6868444 L10.9497107,10.6868444 C11.1219743,10.1700537 11.2942379,9.65326299 11.3803696,9.05034053 L11.3803696,8.96420875 L11.2081061,8.87807697 L11.1219743,8.79194519 L11.0358425,8.87807697 C10.3467883,9.39486765 9.57160226,9.82552655 8.71028446,10.3423172 C8.62415267,10.428449 8.45188911,10.428449 8.36575733,10.5145808 L8.27962555,10.5145808 L8.27962555,10.7729761 L8.27962555,10.8591079 L8.36575733,10.8591079 C8.88254802,10.9452397 9.31320692,11.0313715 9.74386582,11.0313715 L10.0022612,11.0313715 C10.1745247,11.0313715 10.4329201,11.0313715 10.6051836,10.9452397 L10.6913154,10.6868444 Z M10.3467883,11.5481622 C9.91612938,12.40948 9.3993387,12.8401389 8.9686798,12.8401389 L8.9686798,12.8401389 L8.9686798,12.8401389 C8.45188911,12.8401389 7.93509843,12.3233482 7.50443953,11.2897668 L7.50443953,11.2897668 L7.50443953,11.2897668 L7.33217597,11.2897668 L7.41830775,11.2897668 L7.50443953,11.1175033 L7.41830775,11.0313715 L7.50443953,11.1175033 L7.50443953,11.1175033 L7.41830775,11.0313715 L7.41830775,11.1175033 L7.50443953,11.1175033 L7.50443953,11.0313715 L7.50443953,11.1175033 C8.36575733,11.3758986 9.14094336,11.4620304 9.91612938,11.4620304 C10.0022612,11.4620304 10.0883929,11.4620304 10.1745247,11.4620304 L10.1745247,11.4620304 L10.1745247,11.4620304 C10.1745247,11.5481622 10.2606565,11.5481622 10.3467883,11.5481622 L10.3467883,11.5481622 L10.3467883,11.5481622 L10.3467883,11.5481622 L10.3467883,11.5481622 L10.3467883,11.5481622 L10.3467883,11.5481622 L10.3467883,11.5481622 L10.3467883,11.5481622 L10.3467883,11.5481622 L10.3467883,11.5481622 L10.3467883,11.5481622 L10.3467883,11.5481622 L10.3467883,11.5481622 L10.3467883,11.5481622 L10.3467883,11.5481622 L10.3467883,11.5481622 L10.3467883,11.5481622 L10.6051836,11.6342939 L10.6051836,11.5481622 C10.6051836,11.4620304 10.5190518,11.2897668 10.3467883,11.2897668 L10.3467883,11.2897668 L10.3467883,11.2897668 C10.2606565,11.2897668 10.1745247,11.2897668 10.0883929,11.2897668 L10.0883929,11.2897668 C10.0022612,11.2897668 9.91612938,11.2897668 9.8299976,11.2897668 C9.05481158,11.2897668 8.27962555,11.203635 7.50443953,10.9452397 L7.50443953,10.9452397 L7.41830775,10.9452397 L7.41830775,10.9452397 L7.41830775,10.9452397 L7.33217597,10.9452397 L7.24604419,11.203635 L7.24604419,11.2897668 L7.24604419,11.3758986 L7.24604419,11.3758986 C7.67670309,12.40948 8.27962555,13.0985342 8.9686798,13.0985342 L8.9686798,13.0985342 L8.9686798,13.0985342 C9.57160226,13.0985342 10.1745247,12.5817435 10.6051836,11.6342939 L10.3467883,11.5481622 Z M7.76283487,13.0985342 C7.50443953,13.0985342 7.24604419,13.184666 6.98764885,13.184666 C5.78180393,13.184666 4.66209078,12.8401389 3.62850942,12.2372164 L3.62850942,12.2372164 L3.62850942,12.2372164 L3.62850942,12.2372164 L3.7146412,12.2372164 L3.7146412,12.2372164 L3.7146412,12.2372164 L3.80077298,12.2372164 L3.62850942,12.2372164 L3.62850942,12.2372164 L3.62850942,12.2372164 L3.62850942,12.2372164 L3.62850942,12.2372164 L3.62850942,12.2372164 L3.7146412,12.2372164 L3.7146412,12.2372164 L3.7146412,12.2372164 C3.97303654,12.2372164 4.23143188,12.1510846 4.575959,12.1510846 L4.575959,12.1510846 L4.575959,12.1510846 C5.26501325,12.0649528 5.95406749,11.8065575 6.72925351,11.5481622 L6.64312173,11.4620304 L6.55698995,11.5481622 L6.72925351,11.6342939 L6.81538529,11.5481622 L6.72925351,11.6342939 L6.72925351,11.6342939 L6.72925351,11.6342939 C6.98764885,12.2372164 7.33217597,12.8401389 7.76283487,13.0985342 L7.76283487,13.0985342 L7.76283487,13.0985342 L7.76283487,13.0985342 L7.76283487,13.0985342 L7.76283487,13.0985342 L7.76283487,13.0985342 L7.76283487,13.0985342 L7.76283487,13.0985342 L7.76283487,13.0985342 L7.76283487,13.0985342 L7.76283487,13.0985342 L7.76283487,13.3569295 C7.84896665,13.3569295 7.93509843,13.2707978 7.93509843,13.0985342 L7.93509843,13.0124024 L7.93509843,13.0124024 C7.59057131,12.6678753 7.15991241,12.1510846 6.90151707,11.4620304 L6.90151707,11.4620304 L6.90151707,11.4620304 L6.90151707,11.3758986 L6.64312173,11.2897668 L6.55698995,11.2897668 L6.47085817,11.2897668 C5.69567215,11.5481622 5.00661791,11.8065575 4.40369544,11.8926893 L4.40369544,11.8926893 C4.1453001,11.9788211 3.80077298,11.9788211 3.54237764,11.9788211 L3.54237764,12.0649528 L3.54237764,11.9788211 L3.45624586,11.9788211 L3.45624586,11.9788211 C3.37011408,11.9788211 3.2839823,12.0649528 3.2839823,12.1510846 L3.54237764,12.40948 L3.54237764,12.40948 L3.54237764,12.40948 C4.575959,13.0985342 5.78180393,13.4430613 6.98764885,13.4430613 C7.24604419,13.4430613 7.50443953,13.4430613 7.84896665,13.3569295 L7.76283487,13.0985342 Z M4.23143188,8.96420875 C4.74822256,8.53354985 5.43727681,8.10289095 6.12633105,7.67223205 L6.04019927,7.49996849 L5.95406749,7.49996849 C5.95406749,8.44741807 6.04019927,9.30873587 6.21246283,10.0839219 L6.29859461,10.0839219 L6.38472639,9.99779011 C6.12633105,9.82552655 5.86793571,9.73939477 5.60954037,9.56713121 L5.60954037,9.56713121 C5.09274969,9.30873587 4.66209078,9.05034053 4.23143188,8.70581341 L4.05916832,8.87807697 C4.48982722,9.22260409 5.00661791,9.48099943 5.52340859,9.73939477 L5.52340859,9.73939477 C5.78180393,9.91165833 6.04019927,9.99779011 6.29859461,10.0839219 L6.55698995,10.1700537 L6.47085817,9.91165833 C6.29859461,9.13647231 6.21246283,8.27515451 6.21246283,7.32770493 L6.21246283,7.06930959 L6.04019927,7.41383671 C5.26501325,7.84449561 4.66209078,8.27515451 4.05916832,8.70581341 L4.23143188,8.96420875 Z M2.50879628,11.203635 L2.50879628,11.1175033 C2.50879628,10.8591079 2.76719162,10.3423172 3.45624586,9.65326299 L3.45624586,9.65326299 L3.45624586,9.65326299 L3.45624586,9.65326299 L3.45624586,9.65326299 C3.45624586,9.56713121 3.54237764,9.48099943 3.54237764,9.39486765 C3.54237764,9.30873587 3.45624586,9.22260409 3.37011408,9.13647231 L3.37011408,9.13647231 L3.2839823,9.05034053 L3.2839823,9.05034053 L3.02558696,8.96420875 C2.93945518,8.96420875 2.8533234,8.96420875 2.76719162,9.05034053 L2.76719162,9.05034053 L2.76719162,9.05034053 L2.76719162,9.05034053 L2.76719162,9.05034053 C2.33653272,9.56713121 1.9920056,9.99779011 1.81974204,10.428449 L1.81974204,10.428449 L1.81974204,10.428449 L1.81974204,10.428449 L1.81974204,10.428449 C1.1306878,9.39486765 0.786160675,8.27515451 0.786160675,6.98317781 C0.786160675,6.55251891 0.872292455,6.12186 0.958424235,5.6912011 L0.872292455,5.6912011 L0.872292455,5.77733288 L0.958424235,5.77733288 L0.958424235,5.6912011 L0.872292455,5.6912011 C0.958424235,6.12186 1.1306878,6.63865069 1.47521492,7.06930959 C1.90587382,7.67223205 2.4226645,8.27515451 3.02558696,8.79194519 C3.19785052,8.96420875 3.45624586,9.13647231 3.7146412,9.30873587 C4.23143188,9.65326299 4.74822256,9.99779011 5.26501325,10.2561855 C5.52340859,10.3423172 5.78180393,10.5145808 5.95406749,10.6007126 C6.04019927,10.6007126 6.12633105,10.6868444 6.21246283,10.6868444 C6.29859461,10.6868444 6.38472639,10.6868444 6.47085817,10.6007126 L6.47085817,10.6007126 C6.55698995,10.5145808 6.72925351,10.5145808 6.81538529,10.428449 L6.81538529,10.428449 C6.98764885,10.3423172 7.07378063,10.2561855 7.07378063,10.0839219 L7.07378063,9.99779011 L7.07378063,9.99779011 L7.07378063,9.99779011 L7.07378063,9.99779011 C6.90151707,9.22260409 6.81538529,8.27515451 6.72925351,7.41383671 L6.72925351,7.24157315 L6.55698995,7.32770493 L6.64312173,7.41383671 L6.72925351,7.41383671 L6.72925351,7.41383671 L6.72925351,7.41383671 L6.72925351,7.24157315 L6.72925351,7.15544137 L6.72925351,7.15544137 L6.72925351,7.15544137 L6.64312173,7.15544137 L6.64312173,7.24157315 L6.64312173,7.24157315 L6.72925351,7.24157315 L6.72925351,6.98317781 L6.72925351,6.98317781 C6.72925351,6.81091425 6.72925351,6.63865069 6.72925351,6.46638713 L6.72925351,6.20799178 L6.55698995,6.38025534 L6.64312173,6.46638713 L6.72925351,6.46638713 C6.81538529,5.34667398 6.98764885,4.31309262 7.24604419,3.36564304 L7.24604419,3.27951126 C7.24604419,3.19337948 7.15991241,3.02111592 7.07378063,3.02111592 L7.07378063,3.02111592 C7.07378063,3.02111592 6.98764885,3.02111592 6.90151707,3.02111592 L6.81538529,3.02111592 C6.72925351,3.02111592 6.55698995,3.1072477 6.55698995,3.19337948 C6.21246283,4.22696084 6.04019927,5.34667398 5.95406749,6.63865069 L5.95406749,6.63865069 C5.95406749,6.72478247 5.86793571,6.81091425 5.78180393,6.89704603 C5.09274969,7.32770493 4.40369544,7.75836383 3.80077298,8.27515451 L3.7146412,8.27515451 L3.54237764,8.18902273 C3.02558696,7.67223205 2.50879628,7.15544137 2.16426916,6.63865069 C1.73361026,5.94959644 1.47521492,5.2605422 1.47521492,4.65761974 C1.47521492,4.31309262 1.5613467,4.05469728 1.64747848,3.79630194 L1.5613467,3.71017016 L1.64747848,3.79630194 L1.64747848,3.79630194 L1.5613467,3.71017016 L1.64747848,3.79630194 C1.73361026,3.71017016 1.81974204,3.62403838 1.81974204,3.5379066 L1.73361026,3.45177482 L1.81974204,3.5379066 C2.25040094,2.93498414 3.11171874,2.59045702 4.23143188,2.59045702 L4.23143188,2.50432523 L4.23143188,2.59045702 L4.48982722,2.59045702 L4.48982722,2.50432523 L4.48982722,2.59045702 C5.17888147,2.59045702 5.95406749,2.6765888 6.72925351,2.93498414 L6.81538529,2.93498414 L6.90151707,2.84885236 L6.72925351,2.76272058 L6.72925351,2.84885236 L6.81538529,2.84885236 L6.81538529,2.84885236 L6.81538529,2.76272058 L6.72925351,2.76272058 L6.72925351,2.76272058 L6.64312173,2.84885236 L6.81538529,2.93498414 C6.98764885,3.02111592 7.15991241,3.02111592 7.33217597,3.1072477 L7.41830775,3.1072477 L7.50443953,3.02111592 L7.33217597,3.02111592 L7.33217597,3.1072477 L7.33217597,3.1072477 L7.50443953,3.19337948 L7.59057131,3.19337948 L7.59057131,3.19337948 L7.67670309,3.1072477 L7.50443953,3.02111592 L7.50443953,3.02111592 L7.41830775,3.1072477 L7.59057131,3.19337948 C7.93509843,3.36564304 8.27962555,3.5379066 8.71028446,3.71017016 C9.3993387,4.05469728 10.0883929,4.48535618 10.6913154,5.00214686 L10.7774472,4.91601508 L10.7774472,4.8298833 C9.57160226,5.00214686 8.27962555,5.51893754 6.98764885,6.20799178 L6.98764885,6.20799178 L6.81538529,6.38025534 L6.81538529,6.38025534 L6.81538529,6.38025534 C6.81538529,6.46638713 6.81538529,6.63865069 6.81538529,6.72478247 L6.81538529,6.72478247 C6.81538529,6.98317781 6.90151707,7.06930959 6.98764885,7.06930959 L7.07378063,7.06930959 L7.07378063,7.06930959 L7.07378063,7.06930959 L7.07378063,6.89704603 L7.15991241,6.98317781 C8.45188911,6.29412356 9.74386582,5.77733288 10.7774472,5.51893754 C11.0358425,5.43280576 11.2081061,5.2605422 11.2081061,5.00214686 L11.2081061,4.91601508 L11.2081061,4.91601508 L11.2081061,4.91601508 C11.2081061,4.74375152 11.1219743,4.65761974 11.1219743,4.48535618 C11.1219743,4.31309262 10.9497107,4.05469728 10.7774472,3.9685655 C10.2606565,3.5379066 9.65773404,3.19337948 9.05481158,2.84885236 C8.62415267,2.6765888 8.19349377,2.41819345 7.76283487,2.24592989 L7.76283487,2.24592989 L7.76283487,2.24592989 C8.19349377,1.47074387 8.71028446,1.12621675 9.05481158,1.12621675 L9.05481158,1.12621675 L9.05481158,1.12621675 L9.05481158,1.12621675 C9.57160226,1.12621675 10.0883929,1.64300743 10.5190518,2.6765888 C10.6913154,3.19337948 10.863579,3.79630194 11.0358425,4.48535618 L11.1219743,4.48535618 L11.2942379,4.48535618 L11.2942379,4.48535618 L11.0358425,4.22696084 L11.1219743,4.57148796 C11.2081061,4.8298833 11.2081061,5.17441042 11.2081061,5.43280576 L11.2942379,5.43280576 L11.2942379,5.34667398 L11.2942379,5.34667398 L11.1219743,5.43280576 L11.2942379,5.60506932 L11.3803696,5.51893754 L11.2942379,5.51893754 C11.2942379,5.94959644 11.3803696,6.38025534 11.3803696,6.81091425 C11.3803696,6.89704603 11.3803696,6.98317781 11.3803696,7.06930959 C11.3803696,7.41383671 11.3803696,7.75836383 11.2942379,8.10289095 L11.3803696,8.10289095 L11.2942379,8.01675917 C10.5190518,8.61968163 9.57160226,9.30873587 8.53802089,9.82552655 C8.19349377,9.99779011 7.84896665,10.1700537 7.50443953,10.3423172 L7.50443953,10.3423172 L7.41830775,10.3423172 L7.41830775,10.428449 L7.41830775,10.3423172 L7.41830775,10.3423172 L7.33217597,10.3423172 L7.24604419,10.3423172 C6.98764885,10.428449 6.64312173,10.6007126 6.38472639,10.6868444 L6.21246283,10.7729761 L6.29859461,10.8591079 L6.38472639,10.7729761 L6.29859461,10.6868444 L6.21246283,10.6868444 L6.21246283,10.6868444 L6.12633105,10.6868444 L6.12633105,10.6868444 L5.95406749,10.7729761 L5.95406749,10.7729761 L5.95406749,10.7729761 L5.78180393,10.8591079 L5.78180393,10.8591079 L6.12633105,11.0313715 L6.12633105,10.8591079 L6.12633105,10.8591079 L6.04019927,10.8591079 L5.95406749,10.8591079 C5.43727681,11.1175033 4.92048613,11.2897668 4.40369544,11.3758986 C3.97303654,11.4620304 3.62850942,11.4620304 3.37011408,11.4620304 C2.8533234,11.4620304 2.59492806,11.2897668 2.50879628,11.203635 L2.25040094,11.2897668 C2.4226645,11.5481622 2.76719162,11.6342939 3.2839823,11.6342939 C3.54237764,11.6342939 3.88690476,11.6342939 4.31756366,11.5481622 C4.83435435,11.4620304 5.43727681,11.2897668 6.04019927,11.0313715 L6.12633105,11.0313715 L6.04019927,11.1175033 L6.04019927,11.1175033 L6.12633105,11.1175033 L6.21246283,11.1175033 L6.38472639,11.0313715 L6.38472639,11.0313715 L6.38472639,11.0313715 L6.38472639,11.0313715 L6.55698995,10.9452397 L6.55698995,10.9452397 L6.64312173,10.9452397 L6.72925351,10.9452397 L6.90151707,10.8591079 L6.81538529,10.7729761 L6.72925351,10.8591079 L6.81538529,10.9452397 C7.07378063,10.8591079 7.41830775,10.6868444 7.67670309,10.6007126 L7.41830775,10.428449 L7.41830775,10.5145808 L7.41830775,10.5145808 L7.50443953,10.5145808 L7.59057131,10.428449 L7.59057131,10.428449 L7.59057131,10.428449 C7.93509843,10.2561855 8.27962555,10.0839219 8.62415267,9.91165833 C9.65773404,9.30873587 10.6913154,8.70581341 11.4665014,8.10289095 L11.4665014,8.10289095 L11.4665014,8.01675917 C11.4665014,7.67223205 11.5526332,7.32770493 11.5526332,6.98317781 C11.5526332,6.89704603 11.5526332,6.81091425 11.5526332,6.72478247 C11.5526332,6.29412356 11.5526332,5.86346466 11.4665014,5.43280576 L11.4665014,5.34667398 L11.3803696,5.2605422 L11.2942379,5.34667398 L11.3803696,5.43280576 L11.3803696,5.43280576 L11.4665014,5.43280576 L11.4665014,5.34667398 C11.4665014,5.00214686 11.3803696,4.74375152 11.3803696,4.48535618 L11.2942379,4.48535618 L11.2081061,4.57148796 L11.2081061,4.57148796 L11.4665014,4.8298833 L11.3803696,4.48535618 C11.2942379,3.79630194 11.1219743,3.19337948 10.863579,2.6765888 C10.4329201,1.64300743 9.8299976,0.953953191 9.14094336,0.953953191 L9.14094336,0.953953191 L9.14094336,0.953953191 L9.14094336,0.953953191 L9.14094336,0.953953191 C8.53802089,0.953953191 8.02123021,1.47074387 7.59057131,2.24592989 L7.59057131,2.41819345 C7.59057131,2.50432523 7.67670309,2.6765888 7.76283487,2.6765888 C8.19349377,2.84885236 8.62415267,3.02111592 8.9686798,3.19337948 C9.57160226,3.5379066 10.0883929,3.88243372 10.6051836,4.22696084 C10.6913154,4.31309262 10.7774472,4.48535618 10.863579,4.57148796 C10.863579,4.74375152 10.9497107,4.8298833 10.9497107,5.00214686 L10.9497107,5.00214686 L10.9497107,5.00214686 C10.9497107,5.08827864 10.863579,5.2605422 10.7774472,5.2605422 C9.57160226,5.60506932 8.27962555,6.12186 6.98764885,6.81091425 L6.98764885,6.81091425 L6.98764885,6.81091425 L7.07378063,6.89704603 L6.98764885,6.81091425 L6.98764885,6.81091425 L6.98764885,6.81091425 L6.98764885,6.81091425 L6.98764885,6.81091425 L6.98764885,6.81091425 L6.98764885,6.81091425 L6.98764885,6.81091425 L6.98764885,6.81091425 L6.98764885,6.81091425 L6.98764885,6.81091425 L6.98764885,6.81091425 L6.98764885,6.81091425 L6.98764885,6.81091425 L6.98764885,6.81091425 L6.98764885,6.81091425 C6.98764885,6.72478247 6.98764885,6.55251891 6.98764885,6.46638713 L6.90151707,6.46638713 L6.98764885,6.55251891 L7.07378063,6.38025534 L7.07378063,6.29412356 L7.15991241,6.38025534 C8.45188911,5.6912011 9.74386582,5.2605422 10.7774472,5.00214686 L11.0358425,4.91601508 L10.863579,4.74375152 C10.2606565,4.22696084 9.57160226,3.79630194 8.88254802,3.45177482 C8.53802089,3.27951126 8.10736199,3.1072477 7.76283487,2.93498414 L7.59057131,3.1072477 L7.67670309,3.19337948 L7.67670309,3.19337948 L7.84896665,3.02111592 L7.59057131,2.93498414 L7.50443953,2.93498414 L7.50443953,2.93498414 L7.41830775,2.84885236 L7.41830775,2.84885236 L7.33217597,2.84885236 L7.24604419,2.93498414 L7.33217597,3.02111592 L7.41830775,2.93498414 C7.24604419,2.76272058 7.07378063,2.76272058 6.90151707,2.6765888 L6.90151707,2.76272058 L6.98764885,2.84885236 L6.98764885,2.84885236 L6.98764885,2.76272058 L6.81538529,2.6765888 L6.81538529,2.6765888 L6.72925351,2.6765888 L6.72925351,2.6765888 L6.64312173,2.6765888 L6.72925351,2.76272058 L6.72925351,2.6765888 C5.95406749,2.41819345 5.17888147,2.33206167 4.48982722,2.33206167 L4.48982722,2.33206167 L4.23143188,2.33206167 L4.23143188,2.33206167 L4.23143188,2.33206167 C3.02558696,2.33206167 2.16426916,2.76272058 1.64747848,3.45177482 L1.64747848,3.45177482 L1.64747848,3.45177482 C1.5613467,3.45177482 1.47521492,3.5379066 1.47521492,3.62403838 L1.47521492,3.62403838 L1.47521492,3.62403838 L1.47521492,3.62403838 L1.47521492,3.62403838 C1.30295136,3.9685655 1.21681958,4.31309262 1.21681958,4.65761974 C1.21681958,5.2605422 1.47521492,6.03572822 1.90587382,6.72478247 C2.25040094,7.32770493 2.76719162,7.84449561 3.37011408,8.36128629 C3.45624586,8.44741807 3.54237764,8.44741807 3.62850942,8.44741807 C3.7146412,8.44741807 3.80077298,8.44741807 3.88690476,8.36128629 C4.48982722,7.93062739 5.09274969,7.41383671 5.86793571,6.98317781 C6.12633105,6.98317781 6.21246283,6.81091425 6.21246283,6.55251891 L6.21246283,6.55251891 C6.29859461,5.34667398 6.47085817,4.22696084 6.81538529,3.19337948 L6.81538529,3.19337948 L6.81538529,3.19337948 C6.90151707,3.19337948 6.98764885,3.27951126 7.07378063,3.27951126 L7.07378063,3.27951126 L7.07378063,3.27951126 L7.07378063,3.27951126 C6.81538529,4.22696084 6.55698995,5.34667398 6.55698995,6.46638713 L6.55698995,6.72478247 L6.72925351,6.63865069 L6.64312173,6.46638713 L6.55698995,6.46638713 C6.55698995,6.63865069 6.55698995,6.81091425 6.55698995,6.98317781 L6.55698995,6.98317781 L6.55698995,7.15544137 L6.64312173,7.15544137 L6.64312173,7.06930959 L6.64312173,7.06930959 L6.55698995,7.06930959 L6.55698995,7.15544137 L6.55698995,7.15544137 L6.55698995,7.24157315 L6.55698995,7.24157315 L6.55698995,7.41383671 L6.55698995,7.41383671 L6.55698995,7.58610027 L6.72925351,7.49996849 L6.64312173,7.41383671 L6.55698995,7.41383671 C6.55698995,8.36128629 6.64312173,9.30873587 6.90151707,10.0839219 L6.90151707,10.0839219 L6.90151707,10.0839219 L6.90151707,10.0839219 L6.90151707,10.0839219 L6.90151707,10.0839219 L6.81538529,10.2561855 L6.81538529,10.2561855 L6.81538529,10.2561855 C6.64312173,10.3423172 6.55698995,10.428449 6.38472639,10.428449 L6.38472639,10.428449 L6.21246283,10.428449 L6.12633105,10.428449 C5.86793571,10.3423172 5.69567215,10.1700537 5.43727681,10.0839219 C4.92048613,9.82552655 4.40369544,9.48099943 3.88690476,9.13647231 C3.62850942,8.96420875 3.45624586,8.79194519 3.19785052,8.61968163 C2.59492806,8.10289095 2.07813738,7.49996849 1.64747848,6.89704603 C1.38908314,6.46638713 1.1306878,6.03572822 1.04455602,5.60506932 L1.04455602,5.51893754 L0.786160675,5.51893754 L0.700028895,5.51893754 L0.700028895,5.60506932 C0.613897114,6.03572822 0.527765334,6.55251891 0.527765334,6.98317781 C0.527765334,8.27515451 0.872292455,9.48099943 1.5613467,10.5145808 L1.5613467,10.5145808 C1.64747848,10.6007126 1.73361026,10.6007126 1.81974204,10.6007126 C1.90587382,10.6007126 1.9920056,10.5145808 2.07813738,10.428449 L2.07813738,10.428449 C2.25040094,10.0839219 2.50879628,9.65326299 2.93945518,9.22260409 L2.93945518,9.22260409 L2.93945518,9.22260409 L2.93945518,9.22260409 L3.02558696,9.22260409 L3.11171874,9.22260409 L3.11171874,9.22260409 L3.19785052,9.30873587 L3.19785052,9.30873587 L3.19785052,9.30873587 L3.19785052,9.39486765 L3.19785052,9.48099943 L3.19785052,9.48099943 L3.19785052,9.48099943 L3.19785052,9.48099943 L3.19785052,9.48099943 C2.50879628,10.1700537 2.25040094,10.7729761 2.25040094,11.1175033 C2.25040094,11.203635 2.25040094,11.2897668 2.33653272,11.3758986 L2.50879628,11.203635 L2.50879628,11.203635 Z M3.37011408,1.90140277 C4.40369544,1.21234853 5.69567215,0.781689631 6.98764885,0.781689631 C7.33217597,0.781689631 7.67670309,0.781689631 8.02123021,0.867821411 L8.02123021,0.867821411 L8.02123021,0.867821411 L8.02123021,0.867821411 L8.02123021,0.867821411 L8.02123021,0.867821411 L8.02123021,0.867821411 L8.02123021,0.867821411 L8.02123021,0.867821411 L8.02123021,0.867821411 L8.02123021,0.867821411 L8.02123021,0.867821411 C7.67670309,1.12621675 7.33217597,1.47074387 7.07378063,1.98753455 L6.90151707,2.07366633 L6.81538529,2.07366633 C6.04019927,1.90140277 5.26501325,1.72913921 4.48982722,1.72913921 C4.40369544,1.72913921 4.31756366,1.72913921 4.23143188,1.72913921 C3.88690476,1.72913921 3.62850942,1.72913921 3.37011408,1.81527099 L3.37011408,1.90140277 L3.45624586,1.90140277 L3.45624586,1.81527099 L3.19785052,1.90140277 L3.2839823,2.07366633 L3.2839823,2.15979811 L3.37011408,2.15979811 C3.62850942,2.07366633 3.88690476,2.07366633 4.23143188,2.07366633 C4.31756366,2.07366633 4.40369544,2.07366633 4.48982722,2.07366633 C5.26501325,2.07366633 6.04019927,2.15979811 6.81538529,2.41819345 L6.90151707,2.41819345 C7.07378063,2.41819345 7.15991241,2.33206167 7.24604419,2.15979811 C7.50443953,1.64300743 7.84896665,1.29848031 8.10736199,1.04008497 L8.10736199,1.04008497 L8.19349377,0.867821411 C8.19349377,0.781689631 8.10736199,0.69555785 8.02123021,0.60942607 C7.67670309,0.52329429 7.33217597,0.52329429 6.98764885,0.52329429 C5.60954037,0.52329429 4.31756366,0.953953191 3.2839823,1.72913921 L3.37011408,1.90140277 Z M12.0694239,6.55251891 L12.0694239,6.55251891 L12.1555557,6.72478247 L12.2416874,6.63865069 L12.1555557,6.72478247 C12.2416874,6.81091425 12.2416874,6.89704603 12.3278192,6.98317781 L12.413951,6.89704603 L12.3278192,6.89704603 L12.3278192,7.06930959 L12.413951,7.06930959 L12.3278192,6.98317781 C12.2416874,7.06930959 12.1555557,7.15544137 12.0694239,7.24157315 L12.0694239,7.24157315 L12.0694239,7.24157315 L12.0694239,7.24157315 L11.9832921,7.32770493 L12.0694239,7.32770493 C12.0694239,7.24157315 12.0694239,7.15544137 12.0694239,6.98317781 C12.0694239,6.89704603 12.0694239,6.81091425 12.0694239,6.72478247 C12.0694239,6.63865069 12.0694239,6.46638713 12.0694239,6.38025534 L11.8110285,6.38025534 C11.8110285,6.46638713 11.8110285,6.63865069 11.8110285,6.72478247 C11.8110285,6.81091425 11.8110285,6.89704603 11.8110285,6.98317781 C11.8110285,7.06930959 11.8110285,7.15544137 11.8110285,7.32770493 L11.8110285,7.41383671 L11.9832921,7.49996849 L12.0694239,7.49996849 L12.2416874,7.32770493 L12.2416874,7.32770493 L12.2416874,7.32770493 C12.3278192,7.24157315 12.413951,7.15544137 12.5000828,7.06930959 L12.5000828,7.06930959 L12.5000828,6.81091425 L12.5000828,6.81091425 L12.5000828,6.81091425 C12.413951,6.72478247 12.413951,6.63865069 12.3278192,6.55251891 L12.3278192,6.55251891 L12.1555557,6.29412356 L12.1555557,6.20799178 L11.8971603,6.29412356 L12.0694239,6.55251891 Z M11.2081061,2.50432523 L11.2942379,2.59045702 L11.3803696,2.50432523 L11.2942379,2.59045702 C11.8971603,3.19337948 12.3278192,3.88243372 12.6723463,4.65761974 L12.6723463,4.65761974 L12.6723463,4.65761974 L12.6723463,4.65761974 L12.6723463,4.65761974 L12.6723463,4.65761974 L12.6723463,4.65761974 L12.6723463,4.65761974 L12.6723463,4.65761974 L12.6723463,4.65761974 L12.6723463,4.65761974 L12.6723463,4.65761974 L12.6723463,4.65761974 L12.6723463,4.65761974 L12.6723463,4.65761974 L12.6723463,4.65761974 L12.6723463,4.65761974 L12.6723463,4.65761974 L12.6723463,4.65761974 C12.5000828,4.65761974 12.3278192,4.57148796 12.0694239,4.57148796 L11.9832921,4.57148796 L11.9832921,4.57148796 C11.8971603,4.57148796 11.8110285,4.48535618 11.8110285,4.3992244 C11.7248968,3.71017016 11.4665014,3.02111592 11.2942379,2.50432523 L11.2942379,2.50432523 L11.2942379,2.41819345 L11.2081061,2.50432523 L11.2942379,2.59045702 L11.3803696,2.50432523 L11.2942379,2.33206167 L11.2081061,2.41819345 L11.1219743,2.50432523 L11.2081061,2.6765888 L11.2081061,2.6765888 C11.4665014,3.19337948 11.638765,3.88243372 11.7248968,4.57148796 C11.7248968,4.74375152 11.9832921,4.91601508 12.1555557,4.91601508 L12.1555557,4.91601508 L12.2416874,4.91601508 C12.413951,4.91601508 12.5862146,4.91601508 12.7584781,4.91601508 L12.7584781,4.91601508 L12.7584781,4.91601508 C12.9307417,4.91601508 13.0168735,4.8298833 13.0168735,4.65761974 L13.0168735,4.57148796 L13.0168735,4.57148796 L13.0168735,4.57148796 C12.6723463,3.79630194 12.2416874,3.02111592 11.638765,2.41819345 L11.638765,2.41819345 L11.5526332,2.33206167 L11.2081061,2.50432523 Z M13.8781913,5.51893754 C13.6197959,4.22696084 12.9307417,3.02111592 11.9832921,1.98753455 C10.6051836,0.69555785 8.88254802,-0.0796281716 6.98764885,0.00650360862 C5.09274969,0.00650360862 3.37011408,0.69555785 1.9920056,2.07366633 C1.73361026,2.33206167 1.38908314,2.6765888 1.1306878,3.02111592 L1.21681958,3.1072477 L1.1306878,3.02111592 C1.1306878,3.19337948 1.04455602,3.27951126 0.958424235,3.36564304 L1.04455602,3.45177482 L0.958424235,3.36564304 C0.355501774,4.48535618 -0.0751571274,5.6912011 0.0109746529,6.98317781 C0.0109746529,8.87807697 0.700028895,10.6007126 2.07813738,11.9788211 C3.37011408,13.2707978 5.17888147,14.0459838 7.07378063,14.0459838 C8.9686798,14.0459838 10.6913154,13.3569295 12.0694239,11.9788211 C12.6723463,11.3758986 13.189137,10.6007126 13.5336641,9.82552655 L13.4475324,9.73939477 L13.5336641,9.82552655 C13.6197959,9.73939477 13.6197959,9.65326299 13.6197959,9.56713121 L13.5336641,9.56713121 L13.6197959,9.65326299 C13.8781913,8.70581341 14.0504548,7.84449561 13.964323,6.98317781 C14.0504548,6.46638713 13.964323,6.03572822 13.8781913,5.51893754 L13.8781913,5.51893754 L13.6197959,5.60506932 L13.6197959,5.60506932 L13.6197959,5.60506932 C13.7059277,6.03572822 13.7920595,6.55251891 13.7920595,6.98317781 C13.7920595,7.84449561 13.6197959,8.70581341 13.3614006,9.48099943 L13.3614006,9.48099943 L13.3614006,9.48099943 C13.3614006,9.56713121 13.2752688,9.65326299 13.2752688,9.73939477 L13.2752688,9.73939477 L13.2752688,9.73939477 C12.9307417,10.5145808 12.5000828,11.203635 11.8971603,11.8065575 C10.6051836,13.0985342 8.88254802,13.7875884 7.07378063,13.7875884 C5.26501325,13.7875884 3.54237764,13.0985342 2.25040094,11.8065575 C0.958424235,10.5145808 0.269369994,8.79194519 0.183238213,6.98317781 C0.183238213,5.77733288 0.527765334,4.57148796 1.1306878,3.5379066 L1.1306878,3.5379066 L1.1306878,3.5379066 C1.21681958,3.45177482 1.21681958,3.36564304 1.30295136,3.27951126 L1.30295136,3.27951126 L1.30295136,3.27951126 C1.5613467,2.93498414 1.81974204,2.59045702 2.16426916,2.24592989 C3.45624586,0.953953191 5.17888147,0.264898949 6.98764885,0.178767169 C8.79641624,0.178767169 10.5190518,0.867821411 11.8110285,2.15979811 C12.7584781,3.1072477 13.3614006,4.22696084 13.6197959,5.51893754 L13.8781913,5.51893754 Z" id="Shape" fill-rule="nonzero"/>
        </g>
    </g>
</svg>