<svg width="55" height="55" viewBox="0 0 55 55" fill="none" xmlns="http://www.w3.org/2000/svg">
<rect width="55" height="55" fill="url(#paint0_linear_168_874)"/>
<path d="M21.5125 38.3791L13.9326 24.4961C13.7436 24.1501 13.6445 23.7581 13.6445 23.3581C13.6445 22.9591 13.7436 22.5661 13.9326 22.2201L21.5125 8.34506C21.7015 7.99806 21.9725 7.71105 22.3005 7.51105C22.6275 7.31105 22.9986 7.20605 23.3766 7.20605H38.5295C38.9075 7.20605 39.2785 7.31105 39.6065 7.51105C39.9335 7.71105 40.2055 7.99806 40.3945 8.34506L47.9995 22.2331L44.2705 24.5101L37.3125 11.7731H24.6455L18.3085 23.3721L25.2665 36.1161L21.5125 38.3791Z" fill="white"/>
<path d="M32.623 45.9325H17.438C17.06 45.9325 16.689 45.8274 16.361 45.6274C16.034 45.4274 15.762 45.1405 15.573 44.7945L8 30.9254L11.723 28.6494L18.681 41.3925H31.342L37.672 29.7874L30.72 17.0504L34.443 14.7734L42.022 28.6494C42.211 28.9954 42.311 29.3874 42.311 29.7874C42.311 30.1864 42.211 30.5794 42.022 30.9254L34.443 44.8075C34.257 45.1455 33.992 45.4264 33.673 45.6234C33.354 45.8204 32.992 45.9265 32.623 45.9325Z" fill="white"/>
<defs>
<linearGradient id="paint0_linear_168_874" x1="0" y1="26.0521" x2="55" y2="26.0521" gradientUnits="userSpaceOnUse">
<stop stop-color="#9C6CFF"/>
<stop offset="1" stop-color="#05D2DD"/>
</linearGradient>
</defs>
</svg>
