<svg width="1000" height="1000" viewBox="0 0 1000 1000" fill="none" xmlns="http://www.w3.org/2000/svg">
<rect width="1000" height="1000" fill="white"/>
<mask id="mask0_171_895" style="mask-type:luminance" maskUnits="userSpaceOnUse" x="96" y="97" width="808" height="805">
<path d="M758.56 97H241.44C161.116 97 96 161.874 96 241.9V757.1C96 837.126 161.116 902 241.44 902H758.56C838.884 902 904 837.126 904 757.1V241.9C904 161.874 838.884 97 758.56 97Z" fill="white"/>
</mask>
<g mask="url(#mask0_171_895)">
<mask id="mask1_171_895" style="mask-type:luminance" maskUnits="userSpaceOnUse" x="112" y="115" width="776" height="516">
<path d="M887.74 115H112.06V630.2H887.74V115Z" fill="white"/>
</mask>
<g mask="url(#mask1_171_895)">
<path d="M810.964 470.575C810.964 584.039 675.506 630.147 507.318 630.147C339.128 630.147 201.699 584.039 201.699 470.575C201.699 357.111 338.143 265.297 506.331 265.297C674.521 265.297 810.964 357.311 810.964 470.575Z" fill="#4BAF74"/>
<path d="M780.053 223.544C780.053 163.805 732.338 115.292 673.579 115.292C640.454 115.292 610.879 130.728 591.358 154.784C564.74 148.77 536.347 145.362 506.968 145.362C477.59 145.362 449.196 148.569 422.577 154.784C402.86 130.728 373.284 115.292 340.356 115.292C281.599 115.292 233.883 163.805 233.883 223.544C233.883 243.19 239.01 261.432 247.882 277.269C239.403 295.712 234.868 315.358 234.868 335.805C234.868 441.051 356.722 526.249 506.968 526.249C657.215 526.249 779.067 441.051 779.067 335.805C779.067 315.358 774.532 295.712 766.054 277.269C774.927 261.432 780.053 243.19 780.053 223.544Z" fill="#32DA6D"/>
<path d="M331.776 283.766C367.711 283.766 396.842 254.148 396.842 217.612C396.842 181.076 367.711 151.458 331.776 151.458C295.84 151.458 266.708 181.076 266.708 217.612C266.708 254.148 295.84 283.766 331.776 283.766Z" fill="white"/>
<path d="M678.962 283.766C714.897 283.766 744.03 254.148 744.03 217.612C744.03 181.076 714.897 151.458 678.962 151.458C643.027 151.458 613.896 181.076 613.896 217.612C613.896 254.148 643.027 283.766 678.962 283.766Z" fill="white"/>
<path d="M297.034 622.351C311.033 622.351 322.075 609.922 320.497 595.89C314.779 546.174 290.527 438.523 183.856 373.772C41.8916 287.571 154.28 584.262 154.28 584.262L124.902 601.503C115.043 607.316 119.184 622.351 130.422 622.351H297.034Z" fill="#32DA6D"/>
<path d="M720.662 622.351C708.043 622.351 698.185 609.922 699.565 595.89C704.494 546.374 726.577 438.523 822.798 373.772C951.158 287.571 849.614 584.262 849.614 584.262L876.232 601.503C885.105 607.316 881.359 622.351 871.302 622.351H720.662Z" fill="#32DA6D"/>
<path d="M331.892 229.288C338.426 229.288 343.722 223.903 343.722 217.26C343.722 210.617 338.426 205.232 331.892 205.232C325.358 205.232 320.062 210.617 320.062 217.26C320.062 223.903 325.358 229.288 331.892 229.288Z" fill="#0D0D0D"/>
<path d="M678.753 229.288C685.287 229.288 690.584 223.903 690.584 217.26C690.584 210.617 685.287 205.232 678.753 205.232C672.22 205.232 666.923 210.617 666.923 217.26C666.923 223.903 672.22 229.288 678.753 229.288Z" fill="#0D0D0D"/>
</g>
<path d="M904 683H96V993H904V683Z" fill="#AC4BFF"/>
</g>
</svg>
