<svg width="25" height="21" viewBox="0 0 25 21" fill="none" xmlns="http://www.w3.org/2000/svg">
<path fill-rule="evenodd" clip-rule="evenodd" d="M13.4998 12.1494C14.8294 12.1139 16.1546 11.9816 17.465 11.7534C17.5594 11.7363 17.6564 11.7402 17.7492 11.7647C17.8419 11.7892 17.9281 11.8338 18.0017 11.8953C18.0754 11.9568 18.1346 12.0337 18.1752 12.1206C18.2158 12.2075 18.2368 12.3023 18.2367 12.3982V14.881C16.3554 15.2637 14.4398 15.4526 12.5199 15.4445C8.0012 15.4445 4.04612 14.4646 1.85787 12.9973C1.16272 12.579 0.600966 11.9714 0.238246 11.2457C0.106846 10.9624 0.0375863 10.6543 0.0351562 10.342C0.0454462 9.86111 0.199276 9.39441 0.476876 9.00161C0.499946 8.96571 0.530786 8.93551 0.567116 8.91321C0.603446 8.89091 0.644326 8.87701 0.686746 8.87261C0.729166 8.86821 0.772026 8.87341 0.812156 8.88781C0.852286 8.90231 0.888666 8.92551 0.918586 8.95591C1.16201 9.19751 1.42524 9.41831 1.70554 9.61591C2.94799 10.4291 4.32236 11.0201 5.76726 11.3625C7.6606 11.8442 9.6021 12.1116 11.5552 12.1596V13.3883C11.5552 13.5156 11.5803 13.6417 11.629 13.7594C11.6778 13.877 11.7492 13.9839 11.8393 14.074C11.9293 14.164 12.0362 14.2355 12.1538 14.2842C12.2715 14.3329 12.3976 14.358 12.5249 14.358C12.7817 14.3567 13.0276 14.2541 13.2092 14.0725C13.3908 13.8909 13.4934 13.6451 13.4947 13.3883L13.4998 12.1494Z" fill="#FF7900"/>
<path fill-rule="evenodd" clip-rule="evenodd" d="M24.9998 10.3119C24.9992 10.6315 24.9281 10.947 24.7916 11.2359C24.4247 11.9518 23.8656 12.5513 23.1771 12.9672C22.2402 13.5631 21.2253 14.0262 20.1612 14.3432V11.5406C20.1601 11.4046 20.2016 11.2717 20.2799 11.1606C20.3583 11.0495 20.4694 10.9658 20.5979 10.9212C21.5625 10.6042 22.4783 10.1548 23.3192 9.5859C23.6038 9.3878 23.8705 9.1653 24.1164 8.9208C24.1463 8.8904 24.1826 8.8671 24.2228 8.8527C24.2629 8.8383 24.3058 8.8331 24.3482 8.8374C24.3906 8.8418 24.4315 8.8557 24.4678 8.878C24.5042 8.9004 24.535 8.9306 24.5581 8.9665C24.8389 9.3595 24.993 9.8289 24.9998 10.3119Z" fill="#FF7900"/>
<path fill-rule="evenodd" clip-rule="evenodd" d="M24.9997 15.5249C24.998 15.8427 24.927 16.1564 24.7915 16.4439C24.4246 17.1597 23.8655 17.7592 23.177 18.1752C20.9786 19.6425 17.0235 20.6224 12.515 20.6224C8.0065 20.6224 4.04122 19.6425 1.85297 18.1752C1.15782 17.7568 0.596073 17.1493 0.233363 16.4236C0.102063 16.142 0.0328034 15.8356 0.0302734 15.5249C0.0398634 15.0424 0.193713 14.5738 0.471983 14.1795C0.495053 14.1436 0.525893 14.1134 0.562223 14.0911C0.598553 14.0687 0.639433 14.0548 0.681853 14.0505C0.724273 14.0461 0.767133 14.0513 0.807263 14.0657C0.847393 14.0801 0.883773 14.1034 0.913693 14.1338C1.15601 14.3766 1.41935 14.5975 1.70064 14.7938C2.94195 15.6091 4.31671 16.2003 5.76237 16.5403C7.9683 17.0939 10.2356 17.3652 12.5099 17.3476C14.4298 17.3559 16.3455 17.1671 18.2268 16.7841V17.7995C18.2261 17.927 18.2507 18.0534 18.2992 18.1714C18.3477 18.2893 18.4191 18.3965 18.5093 18.4867C18.5995 18.5769 18.7067 18.6483 18.8246 18.6968C18.9426 18.7453 19.069 18.7699 19.1965 18.7692C19.3239 18.7692 19.45 18.7441 19.5676 18.6954C19.6853 18.6467 19.7922 18.5752 19.8822 18.4852C19.9723 18.3951 20.0437 18.2882 20.0924 18.1706C20.1412 18.0529 20.1663 17.9268 20.1663 17.7995V16.2763C21.2863 15.9471 22.3495 15.4489 23.3192 14.7989C23.6061 14.604 23.8731 14.3812 24.1163 14.1338C24.1467 14.1033 24.1835 14.08 24.224 14.0656C24.2645 14.0512 24.3077 14.046 24.3505 14.0503C24.3933 14.0547 24.4346 14.0686 24.4714 14.0909C24.5081 14.1132 24.5395 14.1435 24.5631 14.1795C24.8401 14.5741 24.9922 15.0428 24.9997 15.5249Z" fill="#FF7900"/>
<path fill-rule="evenodd" clip-rule="evenodd" d="M24.9999 5.1025C24.9977 5.4345 24.9232 5.7619 24.7816 6.0621C24.4285 6.7343 23.9028 7.3004 23.2584 7.702C22.7258 8.0608 22.1596 8.3668 21.5677 8.6159C18.9884 9.6227 16.2485 10.1559 13.4798 10.1898V8.8241C13.4795 8.435 13.5953 8.0547 13.8123 7.7318C14.0294 7.4089 14.3379 7.1581 14.6983 7.0115L16.0387 6.4632C17.1811 6.0469 17.9071 5.4224 17.9071 4.7319C17.9071 3.46769 15.4904 2.44211 12.5101 2.44211C9.5298 2.44211 7.1131 3.45754 7.1131 4.7319C7.1131 5.4224 7.8391 6.0469 8.9815 6.4632L10.3269 7.0115C10.687 7.1587 10.9951 7.4096 11.2121 7.7323C11.4291 8.0551 11.5451 8.4351 11.5454 8.8241V10.1898C8.7644 10.1597 6.01188 9.6247 3.42199 8.6108C2.83413 8.3622 2.27139 8.0578 1.74146 7.702C1.0979 7.2994 0.57238 6.7336 0.21831 6.0621C0.0767001 5.7619 0.0022 5.4345 0 5.1025C0 2.28471 5.58486 0 12.4847 0C19.3846 0 24.9999 2.28471 24.9999 5.1025Z" fill="#FF7900"/>
</svg>
