<?xml version="1.0" encoding="utf-8"?><!-- Uploaded to: SVG Repo, www.svgrepo.com, Generator: SVG Repo Mixer Tools -->
<svg width="800px" height="800px" viewBox="0 0 48 48" xmlns="http://www.w3.org/2000/svg"><defs><style>.a{fill:none;stroke:#ffffff;stroke-linecap:round;stroke-linejoin:round;}</style></defs><polyline class="a" points="23.971 35.016 26.233 35.016 26.959 38.431 23.624 38.431"/><polyline class="a" points="42.158 31.771 30.588 31.984 26.233 35.016 26.617 16.784 29.008 10.85 40.621 6.239 42.5 11.96 40.792 18.706 40.963 22.121 39.853 23.759 42.158 31.771 40.066 40.267 31.527 37.62 26.959 41.761 23.971 41.761"/><line class="a" x1="39.8529" y1="23.7591" x2="31.698" y2="21.3529"/><line class="a" x1="40.7922" y1="18.7057" x2="42.2865" y2="18.4496"/><line class="a" x1="42.2865" y1="20.3282" x2="40.8818" y2="20.4987"/><line class="a" x1="26.4389" y1="25.2438" x2="34.3878" y2="25.0674"/><polyline class="a" points="35.647 31.891 31.527 37.62 30.588 31.984 34.388 25.067 31.698 21.353 26.617 16.784 40.621 6.239"/><line class="a" x1="26.2329" y1="35.0155" x2="31.5272" y2="37.6199"/><polygon class="a" points="27.45 29.663 30.636 28.478 28.362 27.293 27.45 29.663"/><line class="a" x1="29.0081" y1="10.8497" x2="23.9708" y2="10.8497"/><polyline class="a" points="24.029 35.016 21.767 35.016 21.041 38.431 23.624 38.431"/><polyline class="a" points="5.842 31.771 17.412 31.984 21.767 35.016 21.383 16.784 18.992 10.85 7.379 6.239 5.5 11.96 7.208 18.706 7.037 22.121 8.147 23.759 5.842 31.771 7.934 40.267 16.473 37.62 21.041 41.761 24.029 41.761"/><line class="a" x1="8.1471" y1="23.7591" x2="16.302" y2="21.3529"/><line class="a" x1="7.2078" y1="18.7057" x2="5.7135" y2="18.4496"/><line class="a" x1="5.7135" y1="20.3282" x2="7.1182" y2="20.4987"/><line class="a" x1="21.5611" y1="25.2438" x2="13.6122" y2="25.0674"/><polyline class="a" points="12.353 31.891 16.473 37.62 17.412 31.984 13.612 25.067 16.302 21.353 21.383 16.784 7.379 6.239"/><line class="a" x1="21.7671" y1="35.0155" x2="16.4728" y2="37.6199"/><polygon class="a" points="20.55 29.663 17.364 28.478 19.638 27.293 20.55 29.663"/><line class="a" x1="18.9919" y1="10.8497" x2="24.0292" y2="10.8497"/></svg>