<svg width="442" height="474" viewBox="0 0 442 474" fill="none" xmlns="http://www.w3.org/2000/svg">
<path d="M433.937 87.511C429.187 69.454 413.918 51.397 386.433 31.296C364.378 15.283 340.966 6.08398 322.304 6.08398C318.571 6.08398 315.178 6.42496 311.784 7.10596C303.302 8.80996 295.837 14.942 291.087 24.141C285.318 35.043 283.962 49.694 287.694 58.552C289.051 61.277 290.747 64.684 292.784 67.751C274.8 78.653 264.621 81.719 263.263 82.06C310.088 97.732 349.109 130.44 373.54 173.027L373.879 168.939C374.897 157.355 378.29 144.749 383.04 131.462C387.791 132.825 392.541 133.506 397.291 133.506C409.846 133.506 420.704 128.395 427.49 119.197C434.276 109.998 436.991 98.073 433.937 87.511Z" fill="#5E12A0"/>
<path d="M385.076 121.583C415.954 130.101 428.507 106.252 424.436 90.239C420.365 74.226 405.774 57.872 380.664 39.474C355.556 21.076 330.107 13.581 313.821 16.988C297.533 20.395 292.784 45.266 296.855 54.806C298.551 58.553 302.284 64.005 307.373 70.137C300.926 74.566 294.819 77.973 289.729 81.04C320.946 95.008 348.091 116.813 368.449 144.069C370.825 134.87 374.218 126.694 377.272 119.539C379.647 120.22 382.361 120.902 385.076 121.583Z" fill="url(#paint0_radial_6_91)"/>
<path d="M208.295 455.81C313.049 455.81 397.97 370.541 397.97 265.358C397.97 160.174 313.049 74.906 208.295 74.906C103.54 74.906 18.62 160.174 18.62 265.358C18.62 370.541 103.54 455.81 208.295 455.81Z" fill="url(#paint1_radial_6_91)"/>
<path opacity="0.6" d="M408.828 74.906C383.04 47.65 361.325 40.495 335.197 34.703C314.839 29.933 320.268 18.35 345.037 20.734C333.161 16.646 321.964 15.624 313.821 17.327C297.534 20.734 292.783 45.606 296.855 55.145C298.551 58.893 302.284 64.344 307.374 70.477C298.213 76.609 290.409 81.039 283.961 84.446C287.015 85.808 290.747 87.512 295.158 89.897C306.695 96.029 319.25 106.25 319.25 106.25C300.249 89.897 304.32 82.401 330.447 64.003C338.59 58.212 353.52 58.893 367.432 66.048C381.344 73.202 397.631 91.26 397.631 91.26L382.022 121.241C383.04 121.582 384.058 121.923 385.076 122.263C394.916 124.989 402.72 124.307 408.828 121.923C415.954 117.493 434.616 102.162 408.828 74.906Z" fill="#A98698"/>
<path d="M334.858 51.057C341.645 53.783 350.467 58.552 361.325 65.707C374.219 74.225 385.416 83.764 392.542 91.26C380.666 106.932 372.861 128.396 368.112 143.387C370.486 146.794 373.201 150.201 375.576 153.608C377.952 145.09 382.023 132.484 387.452 119.879C388.809 120.219 390.505 120.219 392.203 120.219C396.274 120.219 401.025 119.538 404.757 116.472C407.471 114.427 410.525 110.68 410.186 103.866C410.186 97.392 405.096 89.216 394.578 79.335C387.112 72.18 376.934 64.344 366.754 57.19C337.573 37.77 317.214 32.319 308.053 41.517C301.945 47.65 302.625 55.145 304.66 60.597C293.802 67.751 284.641 72.862 278.533 76.269C282.605 77.632 286.337 79.335 290.409 81.039C301.267 74.906 316.875 65.026 334.858 51.057ZM398.989 99.437C400.007 101.14 400.346 102.843 400.346 103.866C400.346 106.932 399.327 107.954 398.649 108.635C397.292 109.657 394.578 110.339 392.203 110.339C394.238 106.591 396.614 102.844 398.989 99.437ZM315.178 48.672C316.196 47.65 318.911 46.969 323.322 47.65C319.929 50.376 316.536 52.761 313.143 55.145C312.803 52.761 313.143 50.716 315.178 48.672Z" fill="#5E12A0"/>
<path d="M208.295 63.664C97.34 63.664 7.422 153.95 7.422 265.359C7.422 376.768 97.34 467.054 208.295 467.054C319.251 467.054 409.168 376.768 409.168 265.359C408.829 153.95 318.911 63.664 208.295 63.664ZM208.295 455.47C103.448 455.47 18.62 370.295 18.62 265.018C18.62 159.742 103.448 74.566 208.295 74.566C313.143 74.566 397.971 159.742 397.971 265.018C397.631 370.295 312.803 455.47 208.295 455.47Z" fill="#5E12A0"/>
<path opacity="0.6" d="M208.295 455.81C313.049 455.81 397.97 370.541 397.97 265.358C397.97 160.174 313.049 74.906 208.295 74.906C103.54 74.906 18.62 160.174 18.62 265.358C18.62 370.541 103.54 455.81 208.295 455.81Z" fill="url(#paint2_linear_6_91)"/>
<path opacity="0.6" d="M206.938 432.301C103.447 415.607 33.21 317.826 50.175 213.912C57.64 167.918 80.713 128.737 113.287 100.459C65.784 128.056 30.496 176.094 20.994 234.695C4.36797 338.609 74.606 436.39 177.757 453.084C235.44 462.624 291.087 444.567 332.143 409.134C295.837 430.598 251.726 439.797 206.938 432.301Z" fill="#A98698"/>
<path opacity="0.6" d="M238.494 77.2909C190.651 69.4549 144.165 80.358 106.162 104.547C105.483 105.229 104.805 105.91 104.805 105.91C119.395 97.052 140.772 89.216 140.772 89.216C85.803 121.242 68.837 157.697 68.837 157.697C90.214 116.131 152.988 86.831 202.187 84.787C251.388 82.742 283.622 97.392 322.982 129.078C362.342 161.103 386.095 226.518 383.719 278.304C381.684 330.091 354.538 371.997 354.538 371.997C373.2 347.807 384.397 330.091 391.523 312.034C392.881 306.583 394.237 301.131 394.917 295.339C411.881 191.766 341.983 94.3259 238.494 77.2909Z" fill="url(#paint3_linear_6_91)"/>
<path d="M388.469 263.314C388.469 363.14 307.714 444.226 208.295 444.226C108.877 444.226 27.781 363.14 27.781 263.314H388.469Z" fill="url(#paint4_linear_6_91)"/>
<g opacity="0.6">
<path opacity="0.6" d="M374.219 263.314C374.219 360.755 297.534 440.479 201.169 444.226C203.544 444.226 205.92 444.226 208.295 444.226C307.714 444.226 388.47 363.14 388.47 263.314H374.219Z" fill="url(#paint5_linear_6_91)"/>
</g>
<g opacity="0.7">
<path d="M53.23 263.314H27.781C27.781 363.14 108.537 444.226 207.956 444.226C212.367 444.226 216.438 444.226 220.51 443.886C127.199 437.412 53.23 359.051 53.23 263.314Z" fill="url(#paint6_linear_6_91)"/>
</g>
<path d="M388.13 265.358C388.13 244.575 352.163 232.651 304.32 228.562C269.71 225.837 234.761 229.244 194.722 241.509C160.113 251.73 128.896 250.026 106.162 247.301C55.605 241.509 27.781 240.827 27.781 265.358C27.781 300.791 99.715 345.082 207.616 329.75C262.246 321.914 290.408 305.901 322.643 294.999C357.592 283.074 388.13 283.756 388.13 265.358Z" fill="url(#paint7_linear_6_91)"/>
<path d="M267.334 179.16C284.201 179.16 297.873 165.432 297.873 148.497C297.873 131.562 284.201 117.834 267.334 117.834C250.469 117.834 236.797 131.562 236.797 148.497C236.797 165.432 250.469 179.16 267.334 179.16Z" fill="white"/>
<path d="M317.214 201.987C324.335 201.987 330.108 196.191 330.108 189.041C330.108 181.89 324.335 176.094 317.214 176.094C310.093 176.094 304.32 181.89 304.32 189.041C304.32 196.191 310.093 201.987 317.214 201.987Z" fill="white"/>
<g opacity="0.6">
<path d="M363.36 124.307C363.021 124.307 362.682 124.307 362.682 124.307C360.645 123.966 359.289 121.922 359.627 119.537C362.682 103.865 375.575 88.874 376.254 88.193C377.611 86.489 380.326 86.489 381.684 87.852C383.38 89.215 383.38 91.941 382.022 93.303C381.684 93.644 369.807 107.613 367.093 121.241C366.753 122.944 365.056 124.307 363.36 124.307Z" fill="url(#paint8_linear_6_91)"/>
</g>
<path d="M322.303 6.42596C341.305 6.42596 364.717 15.625 386.434 31.637C413.918 51.739 429.187 69.455 433.937 87.853C436.651 98.415 434.277 110.339 427.491 119.197C420.365 128.396 409.845 133.507 397.292 133.507C392.881 133.507 388.13 132.825 383.041 131.463C379.986 139.299 377.612 147.135 375.915 154.63C396.612 186.315 408.828 224.474 408.828 265.358C408.828 376.767 318.91 467.053 207.955 467.053C97.0001 467.053 7.42206 376.767 7.42206 265.358C7.42206 153.949 97.34 63.663 208.295 63.663C232.725 63.663 256.138 68.092 277.853 76.269C281.926 74.225 287.015 71.499 292.783 68.092C290.748 65.026 288.712 61.96 287.694 58.894C283.961 49.695 285.319 35.385 291.086 24.483C295.837 15.625 302.963 9.49197 311.785 7.44797C314.839 6.76597 318.571 6.42596 322.303 6.42596ZM322.303 0.292969C318.232 0.292969 314.16 0.633975 310.428 1.65598C300.248 4.04098 291.426 10.855 285.658 21.757C279.211 34.363 277.515 50.717 281.926 61.278C282.604 62.641 283.283 64.345 284.301 66.048C281.926 67.411 279.55 68.774 277.175 69.796C254.78 61.96 231.707 57.871 207.955 57.871C180.132 57.871 152.987 63.323 127.539 74.225C102.769 84.787 80.7141 99.777 61.7121 118.857C42.7111 137.936 27.7811 160.082 17.2621 184.953C6.40405 210.505 0.976074 237.761 0.976074 265.699C0.976074 293.636 6.40405 320.892 17.2621 346.445C27.7811 371.316 42.7111 393.461 61.7121 412.541C80.7141 431.62 102.769 446.611 127.539 457.172C152.987 468.075 180.132 473.526 207.955 473.526C235.779 473.526 262.924 468.075 288.372 457.172C313.143 446.611 335.198 431.62 354.199 412.541C373.201 393.461 388.13 371.316 398.649 346.445C409.507 320.892 414.936 293.636 414.936 265.699C414.936 225.837 403.738 187.338 382.361 153.949C383.379 148.838 385.076 143.728 386.772 138.617C390.166 139.299 393.898 139.639 397.292 139.639C411.543 139.639 424.097 133.848 432.24 122.945C440.044 112.724 443.099 98.415 439.706 86.49C434.276 66.73 418.669 47.991 389.827 27.208C367.093 9.83298 342.323 0.292969 322.303 0.292969Z" fill="white"/>
<path opacity="0.2" d="M195.741 407.089C200.987 407.089 205.241 402.818 205.241 397.549C205.241 392.281 200.987 388.01 195.741 388.01C190.493 388.01 186.239 392.281 186.239 397.549C186.239 402.818 190.493 407.089 195.741 407.089Z" fill="white"/>
<g opacity="0.4">
<path opacity="0.6" d="M190.311 404.023C186.579 400.275 186.579 394.143 190.311 390.395C190.99 389.714 191.669 389.373 192.347 388.691C190.99 389.032 189.972 389.713 188.954 390.736C185.221 394.483 185.221 400.616 188.954 404.364C192.007 407.43 196.758 408.111 200.491 406.067C197.098 407.43 193.025 406.749 190.311 404.023Z" fill="url(#paint9_linear_6_91)"/>
</g>
<path opacity="0.3" d="M199.133 394.823C200.258 394.823 201.169 393.908 201.169 392.779C201.169 391.65 200.258 390.734 199.133 390.734C198.009 390.734 197.098 391.65 197.098 392.779C197.098 393.908 198.009 394.823 199.133 394.823Z" fill="white"/>
<path opacity="0.2" d="M245.28 402.319C250.527 402.319 254.78 398.048 254.78 392.78C254.78 387.511 250.527 383.24 245.28 383.24C240.033 383.24 235.779 387.511 235.779 392.78C235.779 398.048 240.033 402.319 245.28 402.319Z" fill="white"/>
<g opacity="0.4">
<path opacity="0.6" d="M239.851 398.912C236.118 395.164 236.118 389.031 239.851 385.284C240.529 384.602 241.209 384.261 241.887 383.58C240.529 383.921 239.512 384.602 238.494 385.624C234.762 389.372 234.762 395.505 238.494 399.252C241.547 402.319 246.298 403 250.031 400.956C246.637 402.659 242.566 401.978 239.851 398.912Z" fill="url(#paint10_linear_6_91)"/>
</g>
<path opacity="0.3" d="M248.673 390.053C249.798 390.053 250.709 389.138 250.709 388.009C250.709 386.88 249.798 385.965 248.673 385.965C247.549 385.965 246.638 386.88 246.638 388.009C246.638 389.138 247.549 390.053 248.673 390.053Z" fill="white"/>
<path opacity="0.2" d="M220.85 424.466C224.785 424.466 227.975 421.263 227.975 417.311C227.975 413.36 224.785 410.156 220.85 410.156C216.914 410.156 213.724 413.36 213.724 417.311C213.724 421.263 216.914 424.466 220.85 424.466Z" fill="white"/>
<g opacity="0.4">
<path opacity="0.6" d="M216.777 422.081C214.063 419.355 214.063 414.586 216.777 411.86C217.117 411.519 217.795 411.179 218.135 410.838C217.117 411.179 216.439 411.86 215.76 412.541C213.046 415.267 213.046 420.037 215.76 422.762C218.135 425.147 221.528 425.488 224.582 423.784C221.868 424.466 218.813 424.125 216.777 422.081Z" fill="url(#paint11_linear_6_91)"/>
</g>
<path opacity="0.3" d="M223.225 414.927C223.974 414.927 224.582 414.317 224.582 413.564C224.582 412.811 223.974 412.201 223.225 412.201C222.475 412.201 221.868 412.811 221.868 413.564C221.868 414.317 222.475 414.927 223.225 414.927Z" fill="white"/>
<path opacity="0.2" d="M264.622 419.354C268.557 419.354 271.746 416.151 271.746 412.2C271.746 408.248 268.557 405.045 264.622 405.045C260.686 405.045 257.496 408.248 257.496 412.2C257.496 416.151 260.686 419.354 264.622 419.354Z" fill="white"/>
<g opacity="0.4">
<path opacity="0.6" d="M260.549 416.97C257.835 414.244 257.835 409.474 260.549 406.749C260.889 406.408 261.567 406.067 261.906 405.727C260.889 406.067 260.21 406.749 259.531 407.43C256.817 410.156 256.817 414.925 259.531 417.651C261.906 420.036 265.3 420.377 268.353 418.673C265.639 419.355 262.586 419.014 260.549 416.97Z" fill="url(#paint12_linear_6_91)"/>
</g>
<path opacity="0.3" d="M266.997 409.815C267.746 409.815 268.353 409.205 268.353 408.453C268.353 407.7 267.746 407.09 266.997 407.09C266.247 407.09 265.639 407.7 265.639 408.453C265.639 409.205 266.247 409.815 266.997 409.815Z" fill="white"/>
<path opacity="0.2" d="M155.362 403.682C163.983 403.682 170.97 396.666 170.97 388.01C170.97 379.355 163.983 372.338 155.362 372.338C146.742 372.338 139.753 379.355 139.753 388.01C139.753 396.666 146.742 403.682 155.362 403.682Z" fill="white"/>
<g opacity="0.4">
<path opacity="0.6" d="M146.54 398.232C140.432 392.099 140.432 382.219 146.54 376.086C147.557 375.064 148.575 374.383 149.933 373.701C147.897 374.383 146.2 375.745 144.504 377.108C138.396 383.241 138.396 393.121 144.504 399.254C149.593 404.364 157.397 405.386 163.505 401.639C157.737 404.024 150.951 402.661 146.54 398.232Z" fill="url(#paint13_linear_6_91)"/>
</g>
<path opacity="0.3" d="M160.791 383.582C162.665 383.582 164.184 382.056 164.184 380.175C164.184 378.293 162.665 376.768 160.791 376.768C158.917 376.768 157.397 378.293 157.397 380.175C157.397 382.056 158.917 383.582 160.791 383.582Z" fill="white"/>
<path opacity="0.2" d="M294.82 365.184C303.44 365.184 310.429 358.168 310.429 349.512C310.429 340.856 303.44 333.84 294.82 333.84C286.199 333.84 279.212 340.856 279.212 349.512C279.212 358.168 286.199 365.184 294.82 365.184Z" fill="white"/>
<g opacity="0.4">
<path opacity="0.6" d="M285.658 359.734C279.55 353.601 279.55 343.721 285.658 337.588C286.676 336.566 287.694 335.885 289.051 335.203C287.015 335.885 285.319 337.247 283.622 338.61C277.515 344.743 277.515 354.623 283.622 360.756C288.712 365.866 296.516 366.888 302.623 363.141C296.855 365.526 290.408 364.163 285.658 359.734Z" fill="url(#paint14_linear_6_91)"/>
</g>
<path opacity="0.3" d="M300.25 345.083C302.123 345.083 303.643 343.558 303.643 341.677C303.643 339.795 302.123 338.27 300.25 338.27C298.375 338.27 296.856 339.795 296.856 341.677C296.856 343.558 298.375 345.083 300.25 345.083Z" fill="white"/>
<defs>
<radialGradient id="paint0_radial_6_91" cx="0" cy="0" r="1" gradientUnits="userSpaceOnUse" gradientTransform="translate(418.247 68.956) scale(151.653 152.274)">
<stop stop-color="#FFEAFF" stop-opacity="0.6"/>
<stop offset="0.6807" stop-color="#A087C9"/>
<stop offset="1" stop-color="#10002F"/>
</radialGradient>
<radialGradient id="paint1_radial_6_91" cx="0" cy="0" r="1" gradientUnits="userSpaceOnUse" gradientTransform="translate(333.875 133.898) scale(371.041 372.56)">
<stop stop-color="#FFEAFF" stop-opacity="0.6"/>
<stop offset="0.6807" stop-color="#A087C9"/>
<stop offset="1" stop-color="#10002F"/>
</radialGradient>
<linearGradient id="paint2_linear_6_91" x1="177.909" y1="452.928" x2="239.061" y2="77.192" gradientUnits="userSpaceOnUse">
<stop stop-color="#81FFFF"/>
<stop offset="0.6202" stop-color="white" stop-opacity="0"/>
</linearGradient>
<linearGradient id="paint3_linear_6_91" x1="341.967" y1="135.857" x2="184.538" y2="279.714" gradientUnits="userSpaceOnUse">
<stop offset="0.2888" stop-color="white"/>
<stop offset="0.7796" stop-color="white" stop-opacity="0"/>
</linearGradient>
<linearGradient id="paint4_linear_6_91" x1="27.934" y1="353.846" x2="388.382" y2="353.846" gradientUnits="userSpaceOnUse">
<stop stop-color="#0002E9"/>
<stop offset="0.9952" stop-color="#FF00C7"/>
</linearGradient>
<linearGradient id="paint5_linear_6_91" x1="405.445" y1="279.371" x2="208.498" y2="464.738" gradientUnits="userSpaceOnUse">
<stop offset="0.2888" stop-color="white"/>
<stop offset="0.7796" stop-color="white" stop-opacity="0"/>
</linearGradient>
<linearGradient id="paint6_linear_6_91" x1="27.934" y1="353.846" x2="220.772" y2="353.846" gradientUnits="userSpaceOnUse">
<stop stop-color="#000292"/>
<stop offset="0.9952" stop-color="#7D00C7"/>
</linearGradient>
<linearGradient id="paint7_linear_6_91" x1="28.176" y1="280.229" x2="388.14" y2="280.229" gradientUnits="userSpaceOnUse">
<stop stop-color="#000292"/>
<stop offset="0.9952" stop-color="#BE00C7"/>
</linearGradient>
<linearGradient id="paint8_linear_6_91" x1="382.233" y1="86.375" x2="356.209" y2="128.493" gradientUnits="userSpaceOnUse">
<stop offset="0.2888" stop-color="white"/>
<stop offset="0.7796" stop-color="white" stop-opacity="0"/>
</linearGradient>
<linearGradient id="paint9_linear_6_91" x1="186.145" y1="398.023" x2="200.501" y2="398.023" gradientUnits="userSpaceOnUse">
<stop offset="0.2888" stop-color="white"/>
<stop offset="0.7796" stop-color="white" stop-opacity="0"/>
</linearGradient>
<linearGradient id="paint10_linear_6_91" x1="235.65" y1="393.188" x2="250.007" y2="393.188" gradientUnits="userSpaceOnUse">
<stop offset="0.2888" stop-color="white"/>
<stop offset="0.7796" stop-color="white" stop-opacity="0"/>
</linearGradient>
<linearGradient id="paint11_linear_6_91" x1="213.679" y1="417.574" x2="224.457" y2="417.574" gradientUnits="userSpaceOnUse">
<stop offset="0.2888" stop-color="white"/>
<stop offset="0.7796" stop-color="white" stop-opacity="0"/>
</linearGradient>
<linearGradient id="paint12_linear_6_91" x1="257.304" y1="412.45" x2="268.082" y2="412.45" gradientUnits="userSpaceOnUse">
<stop offset="0.2888" stop-color="white"/>
<stop offset="0.7796" stop-color="white" stop-opacity="0"/>
</linearGradient>
<linearGradient id="paint13_linear_6_91" x1="139.767" y1="388.592" x2="163.212" y2="388.592" gradientUnits="userSpaceOnUse">
<stop offset="0.2888" stop-color="white"/>
<stop offset="0.7796" stop-color="white" stop-opacity="0"/>
</linearGradient>
<linearGradient id="paint14_linear_6_91" x1="279.016" y1="350.082" x2="302.46" y2="350.082" gradientUnits="userSpaceOnUse">
<stop offset="0.2888" stop-color="white"/>
<stop offset="0.7796" stop-color="white" stop-opacity="0"/>
</linearGradient>
</defs>
</svg>
